<?xml version="1.0" encoding="utf-8"?>
<!-- Generator: Adobe Illustrator 27.1.1, SVG Export Plug-In . SVG Version: 6.00 Build 0)  -->
<svg version="1.1" id="Layer_1" xmlns="http://www.w3.org/2000/svg" xmlns:xlink="http://www.w3.org/1999/xlink" x="0px" y="0px"
	 viewBox="0 0 600 600" style="enable-background:new 0 0 600 600;" xml:space="preserve">
<style type="text/css">
	.st0{fill:#D868AE;stroke:#000000;stroke-width:5;stroke-linecap:round;stroke-linejoin:round;stroke-miterlimit:10;}
	.st1{fill:#BF57A1;}
	.st2{fill:#C17B4C;stroke:#000000;stroke-width:5;stroke-miterlimit:10;}
	.st3{fill:none;stroke:#000000;stroke-width:5;stroke-linecap:round;stroke-linejoin:round;stroke-miterlimit:10;}
	.st4{fill:none;stroke:#000000;stroke-width:5;stroke-linejoin:round;stroke-miterlimit:10;}
	.st5{fill:#FFFFFF;}
</style>
<g id="outline-Toys">
</g>
<g id="outline-Cooking">
</g>
<g id="outline-Swimming">
</g>
<g id="outline-Playing_Chess">
</g>
<g id="outline-Tennis">
</g>
<g id="outline-Writing">
</g>
<g id="outline-Surfing">
</g>
<g id="outline-Skating">
</g>
<g id="outline-Movie">
</g>
<g id="outline-Photography">
</g>
<g id="outline-Work_Out">
</g>
<g id="outline-Gaming">
</g>
<g id="outline-Sewing">
</g>
<g id="outline-Baking">
</g>
<g id="outline-Gardening">
</g>
<g id="outline-Hiking">
</g>
<g id="outline-Painting">
</g>
<g id="outline-Riding">
</g>
<g id="outline-Fishing">
</g>
<g id="outline-Knitting">
</g>
<g id="color-Toys_1_">
</g>
<g id="color-Cooking_1_">
</g>
<g id="color-Swimming_1_">
</g>
<g id="color-Playing_Chess_1_">
</g>
<g id="color-Tennis_1_">
</g>
<g id="color-Writing_1_">
</g>
<g id="color-Surfing_1_">
</g>
<g id="color-Skating_1_">
</g>
<g id="color-Movie_1_">
</g>
<g id="color-Photography_1_">
</g>
<g id="color-Work_Out_1_">
</g>
<g id="color-Gaming_1_">
</g>
<g id="color-Sewing_1_">
</g>
<g id="color-Baking_1_">
</g>
<g id="color-Hiking_1_">
</g>
<g id="color-Painting_1_">
</g>
<g id="color-Riding_1_">
</g>
<g id="color-Fishing_1_">
</g>
<g id="color-Knitting_1_">
</g>
<g>
	<path class="st0" d="M128.2,319.2c114.5,0,229.1,0,343.6,0c-0.5,36.4-1,72.8-1.5,109.1c-1.3,7-5.2,22.7-18.2,37.4
		c-14.6,16.5-32.1,22-38.9,23.7c-76.5,0-152.9,0-229.4,0c-7.9-3.1-22.3-9.9-35.4-24.3c-11.5-12.6-17.1-25.6-19.7-33.3
		C128.5,394.3,128.4,356.7,128.2,319.2z"/>
	<g>
		<path class="st1" d="M469.5,321.6c-0.2,16.3-0.4,32.6-0.6,48.9h-42.2l-0.9-48.9H469.5z"/>
		<path class="st1" d="M468.9,370.5c-0.2,18.6-0.5,37.2-0.7,55.8c-1.2,6.7-4.7,21.8-16.7,35.9c-13.4,15.9-31.9,23.1-38.1,24.8h-51.1
			c12.6-8.7,29.9-21.7,42.3-35.9c9.5-10.8,15-15,18-26.4c4.1-15.7,4.3-37.9,4.1-54.2L468.9,370.5L468.9,370.5z"/>
	</g>
	<g>
		<path class="st2" d="M312,215.9c5.1,5.1,10.2,10.2,15.3,15.3c5.4,5.4,10.8,10.8,16.2,16.2c35.3-35.3,70.7-70.7,106-106
			c3.3-8.1,2.1-17.3-3.2-23.5c-6.9-8.1-19.9-10-30.3-3.5C381.4,148.3,346.7,182.1,312,215.9z"/>
		<path class="st3" d="M328.1,232.8c-14.2,4.8-32.7,11.1-54.6,18.7c-3.9,1.4-26,9.2-52.5,22.7c-12,6.1-20.8,11.3-26.3,21.7
			c-4.5,8.6-4.9,17.3-4.5,22.7c8.8-0.2,17.5-0.3,26.3-0.5c7.2-8.7,15.4-17.8,24.8-26.8C271.3,262.5,302.7,244.3,328.1,232.8z"/>
		<path class="st3" d="M297.3,317.7c6.3-9.6,13.3-22.1,19.2-37.4c6.9-17.8,10.1-34,11.6-46.5c-10.8,17.2-23,35.2-36.9,53.6
			c-7.9,10.5-15.9,20.5-23.7,29.8C277.4,317.3,287.4,317.5,297.3,317.7z"/>
	</g>
	<line class="st4" x1="128.2" y1="370.1" x2="471.8" y2="370.1"/>
</g>
<g>
	<g>
		<path class="st5" d="M139.9,401.9c0,9.2,0,18.4,0,27.6c0,3.3,5.1,3.3,5.1,0c0-9.2,0-18.4,0-27.6
			C145,398.7,139.9,398.7,139.9,401.9L139.9,401.9z"/>
	</g>
</g>
<g>
	<g>
		<path class="st5" d="M139.9,381.4c0,3.2,0,6.5,0,9.7c0,3.3,5.1,3.3,5.1,0c0-3.2,0-6.5,0-9.7C145,378.2,139.9,378.2,139.9,381.4
			L139.9,381.4z"/>
	</g>
</g>
</svg>
