<?xml version="1.0" encoding="utf-8"?>
<!-- Generator: Adobe Illustrator 22.0.0, SVG Export Plug-In . SVG Version: 6.00 Build 0)  -->
<svg version="1.1" xmlns="http://www.w3.org/2000/svg" xmlns:xlink="http://www.w3.org/1999/xlink" x="0px" y="0px"
	 viewBox="0 0 600 600" style="enable-background:new 0 0 600 600;" xml:space="preserve">
<style type="text/css">
	.st0{fill:#B74697;}
	.st1{fill:#020202;}
	.st2{fill:#D868AE;}
	.st3{fill:#C95DA5;}
	.st4{fill:#D19E20;}
	.st5{fill:#E5C53C;}
	.st6{fill:#D3A83D;}
	.st7{fill:#79CCB2;}
	.st8{fill:#ACE2D3;}
	.st9{fill:#8FCCB9;}
	.st10{fill:#FFFFFF;}
	.st11{fill:#E5BD4E;}
	.st12{fill:#AD78BA;}
	.st13{fill:#9462A0;}
	.st14{fill:#E2ABEF;}
	.st15{fill:#CD87DD;}
	.st16{fill:#BDD174;}
	.st17{fill:#7793E0;}
	.st18{fill:#A0AF61;}
	.st19{fill:#D68A56;}
	.st20{fill:#F2C577;}
	.st21{fill:#5F78CE;}
	.st22{fill:#B1C659;}
	.st23{fill:#ACBF58;}
	.st24{fill:#A3B24F;}
	.st25{fill:#F9EBD7;}
	.st26{fill:#F2DCC2;}
	.st27{fill:#EDD7BC;}
	.st28{fill:#FBFBFB;}
	.st29{fill:#546AA8;}
	.st30{fill:#E5B46C;}
	.st31{fill:#D19F5D;}
	.st32{fill:#C17B4C;}
	.st33{fill:#567CC1;}
	.st34{fill:#F7D19A;}
	.st35{fill:#DD8345;}
	.st36{fill:#DDAA5F;}
	.st37{fill:#E5B28F;}
	.st38{fill:#AF6E43;}
	.st39{fill:#DDA152;}
	.st40{fill:#895633;}
	.st41{fill:#F9D9AA;}
	.st42{fill:#CBF7E9;}
	.st43{fill:#7DB2A1;}
	.st44{fill:#6AAD97;}
	.st45{fill:#599B83;}
	.st46{fill:#89C9B7;}
</style>
<g id="outline-Toys">
</g>
<g id="outline-Cooking">
</g>
<g id="outline-Swimming">
</g>
<g id="outline-Playing_Chess">
</g>
<g id="outline-Tennis">
</g>
<g id="outline-Writing">
</g>
<g id="outline-Surfing">
</g>
<g id="outline-Skating">
</g>
<g id="outline-Movie">
</g>
<g id="outline-Photography">
</g>
<g id="outline-Work_Out">
</g>
<g id="outline-Gaming">
</g>
<g id="outline-Sewing">
</g>
<g id="outline-Baking">
</g>
<g id="outline-Gardening">
</g>
<g id="outline-Hiking">
</g>
<g id="outline-Painting">
</g>
<g id="outline-Riding">
</g>
<g id="outline-Fishing">
</g>
<g id="outline-Knitting">
</g>
<g id="color-Toys_1_">
</g>
<g id="color-Cooking_1_">
</g>
<g id="color-Swimming_1_">
</g>
<g id="color-Playing_Chess_1_">
</g>
<g id="color-Tennis_1_">
</g>
<g id="color-Writing_1_">
</g>
<g id="color-Surfing_1_">
</g>
<g id="color-Skating_1_">
</g>
<g id="color-Movie_1_">
</g>
<g id="color-Photography_1_">
</g>
<g id="color-Work_Out_1_">
</g>
<g id="color-Gaming_1_">
	<g>
		<g>
			<path class="st17" d="M409.9,163.1V403c0,16.1-6.4,30.8-16.8,41.5c-10.9,11.4-26.2,18.4-43.2,18.4h-99.9c-33.1,0-60-26.9-60-60
				V163.1c0-14.3,11.7-26,26-26h167.7c1.2,0,2.4,0.1,3.6,0.2c2,0.2,3.9,0.8,5.7,1.5C403,142.5,409.9,152,409.9,163.1z"/>
		</g>
		<g>
			<path class="st33" d="M409.9,163.1V403c0,16.1-6.4,30.8-16.8,41.5c-10.9,11.4-26.2,18.4-43.2,18.4h-14.3
				c35-13.8,51.8-47.7,51.8-63.6v-262c2,0.2,3.9,0.8,5.7,1.5C403,142.5,409.9,152,409.9,163.1z"/>
		</g>
		<g>
			<path class="st1" d="M349.9,465.3h-99.9c-34.4,0-62.4-28-62.4-62.4V163.1c0-15.7,12.8-28.4,28.4-28.4h167.7
				c15.7,0,28.4,12.8,28.4,28.4V403C412.3,437.3,384.3,465.3,349.9,465.3z M216.1,139.5c-13,0-23.6,10.6-23.6,23.6V403
				c0,31.7,25.8,57.5,57.5,57.5h99.9c31.7,0,57.5-25.8,57.5-57.5V163.1c0-13-10.6-23.6-23.6-23.6H216.1z"/>
		</g>
		<g>
			<path class="st8" d="M377,182.7v82.2c0,7.7-6.2,13.8-13.8,13.8H236.8c-7.7,0-13.9-6.2-13.9-13.8v-82.2c0-7.6,6.2-13.8,13.9-13.8
				h126.4C370.8,168.8,377,175,377,182.7z"/>
		</g>
		<g>
			<path class="st9" d="M377,182.7v82.2c0,7.7-6.2,13.8-13.8,13.8h-19.1c8-2.4,16.1-8,16.1-15.3v-94.6h3
				C370.8,168.8,377,175,377,182.7z"/>
		</g>
		<g>
			<path class="st1" d="M363.2,281.1H236.8c-8.9,0-16.2-7.3-16.2-16.2v-82.2c0-8.9,7.3-16.2,16.2-16.2h126.4
				c8.9,0,16.2,7.3,16.2,16.2v82.2C379.4,273.9,372.1,281.1,363.2,281.1z M236.8,171.3c-6.3,0-11.4,5.1-11.4,11.4v82.2
				c0,6.3,5.1,11.4,11.4,11.4h126.4c6.3,0,11.4-5.1,11.4-11.4v-82.2c0-6.3-5.1-11.4-11.4-11.4H236.8z"/>
		</g>
		<g>
			<g>
				<path class="st20" d="M273.6,357.2H256v-17.7c0-4.4-3.5-7.9-7.9-7.9h-0.7c-4.4,0-7.9,3.5-7.9,7.9v17.7h-17.7
					c-4.4,0-7.9,3.5-7.9,7.9v0.7c0,4.4,3.5,7.9,7.9,7.9h17.7v17.7c0,4.4,3.5,7.9,7.9,7.9h0.7c4.4,0,7.9-3.5,7.9-7.9v-17.7h17.7
					c4.4,0,7.9-3.5,7.9-7.9v-0.7C281.6,360.8,278,357.2,273.6,357.2z"/>
			</g>
			<g>
				<path class="st1" d="M248.1,401.8h-0.7c-5.7,0-10.3-4.6-10.3-10.3v-15.3h-15.3c-5.7,0-10.3-4.6-10.3-10.3v-0.7
					c0-5.7,4.6-10.3,10.3-10.3H237v-15.3c0-5.7,4.6-10.3,10.3-10.3h0.7c5.7,0,10.3,4.6,10.3,10.3v15.3h15.3
					c5.7,0,10.3,4.6,10.3,10.3v0.7c0,5.7-4.6,10.3-10.3,10.3h-15.3v15.3C258.4,397.1,253.8,401.8,248.1,401.8z M221.8,359.6
					c-3,0-5.5,2.5-5.5,5.5v0.7c0,3,2.5,5.5,5.5,5.5h20.1v20.1c0,3,2.5,5.5,5.5,5.5h0.7c3,0,5.5-2.5,5.5-5.5v-20.1h20.1
					c3,0,5.5-2.5,5.5-5.5v-0.7c0-3-2.5-5.5-5.5-5.5h-20.1v-20.1c0-3-2.5-5.5-5.5-5.5h-0.7c-3,0-5.5,2.5-5.5,5.5v20.1H221.8z"/>
			</g>
			<g>
				<g>
					<path class="st16" d="M336.1,408.9l-25.1-19c-0.4-0.3-0.5-1-0.2-1.4l50-66.2c0.3-0.4,1-0.5,1.4-0.2l25.1,19
						c0.4,0.3,0.5,1,0.2,1.4l-50,66.2C337.1,409.1,336.5,409.2,336.1,408.9z"/>
				</g>
				<g>
					<path class="st1" d="M335.9,410c-1.6,0-3.1-0.5-4.3-1.5l-19.1-14.4c-3.2-2.4-3.8-6.9-1.4-10.1l45.5-60.2
						c1.2-1.5,2.8-2.5,4.7-2.8c1.9-0.3,3.8,0.2,5.3,1.4l19.1,14.4c3.2,2.4,3.8,6.9,1.4,10.1l-45.5,60.2c-1.2,1.5-2.8,2.5-4.7,2.8
						C336.6,410,336.2,410,335.9,410z M362.3,325.8c-0.1,0-0.2,0-0.3,0c-0.6,0.1-1.2,0.4-1.6,0.9l-45.5,60.2c-0.8,1-0.6,2.5,0.5,3.3
						l19.1,14.4c0.5,0.4,1.1,0.5,1.8,0.5c0.6-0.1,1.2-0.4,1.6-0.9l45.5-60.2c0.8-1,0.6-2.5-0.5-3.3l-19.1-14.4
						C363.3,326,362.8,325.8,362.3,325.8z"/>
				</g>
				<g>
					<g>
						<path class="st20" d="M368.9,352.9c-2.8,3.7-8.1,4.5-11.9,1.7c-3.7-2.8-4.5-8.1-1.7-11.9c2.8-3.7,8.1-4.5,11.9-1.7
							C371,343.9,371.7,349.2,368.9,352.9z"/>
					</g>
					<g>
						<path class="st2" d="M342.4,388c-2.8,3.7-8.1,4.5-11.9,1.7c-3.7-2.8-4.5-8.1-1.7-11.9c2.8-3.7,8.1-4.5,11.9-1.7
							C344.5,378.9,345.2,384.3,342.4,388z"/>
					</g>
				</g>
				<g>
					<g>
						<path class="st1" d="M362.1,358.7c-2.3,0-4.6-0.7-6.5-2.2c-4.8-3.6-5.7-10.4-2.1-15.2c1.8-2.3,4.3-3.8,7.2-4.2
							c2.9-0.4,5.7,0.3,8.1,2.1c2.3,1.7,3.8,4.3,4.2,7.2c0.4,2.9-0.3,5.7-2.1,8.1l0,0C368.7,357.2,365.4,358.7,362.1,358.7z
							 M362.1,341.7c-0.3,0-0.6,0-0.8,0.1c-1.6,0.2-3,1.1-4,2.4c-2,2.7-1.5,6.5,1.2,8.5c2.7,2,6.5,1.5,8.5-1.2
							c1-1.3,1.4-2.9,1.2-4.5c-0.2-1.6-1.1-3-2.4-4C364.7,342.2,363.5,341.7,362.1,341.7z"/>
					</g>
					<g>
						<path class="st1" d="M335.6,393.8c-2.4,0-4.6-0.8-6.5-2.2c-2.3-1.7-3.8-4.3-4.2-7.2c-0.4-2.9,0.3-5.7,2.1-8.1
							c1.7-2.3,4.3-3.8,7.2-4.2c2.9-0.4,5.7,0.3,8.1,2.1c4.8,3.6,5.7,10.4,2.1,15.2h0c-1.7,2.3-4.3,3.8-7.2,4.2
							C336.6,393.7,336.1,393.8,335.6,393.8z M335.6,376.8c-0.3,0-0.6,0-0.8,0.1c-1.6,0.2-3,1.1-4,2.4c-1,1.3-1.4,2.9-1.2,4.5
							c0.2,1.6,1.1,3,2.4,4c1.3,1,2.9,1.4,4.5,1.2c1.6-0.2,3-1.1,4-2.4c2-2.7,1.5-6.5-1.2-8.5C338.2,377.2,336.9,376.8,335.6,376.8z
							"/>
					</g>
				</g>
			</g>
		</g>
		<g>
			<g>
				<path class="st10" d="M202.7,204.2c0,9.2,0,18.4,0,27.6c0,3.3,5.1,3.3,5.1,0c0-9.2,0-18.4,0-27.6
					C207.8,201,202.7,201,202.7,204.2L202.7,204.2z"/>
			</g>
		</g>
		<g>
			<g>
				<path class="st10" d="M202.7,183.7c0,3.2,0,6.5,0,9.7c0,3.3,5.1,3.3,5.1,0c0-3.2,0-6.5,0-9.7
					C207.8,180.5,202.7,180.5,202.7,183.7L202.7,183.7z"/>
			</g>
		</g>
	</g>
</g>
<g id="color-Sewing_1_">
</g>
<g id="color-Baking_1_">
</g>
<g id="color-Gardening_1_">
</g>
<g id="color-Hiking_1_">
</g>
<g id="color-Painting_1_">
</g>
<g id="color-Riding_1_">
</g>
<g id="color-Fishing_1_">
</g>
<g id="color-Knitting_1_">
</g>
</svg>
