<?xml version="1.0" encoding="utf-8"?>
<!-- Generator: Adobe Illustrator 22.0.0, SVG Export Plug-In . SVG Version: 6.00 Build 0)  -->
<svg version="1.1" xmlns="http://www.w3.org/2000/svg" xmlns:xlink="http://www.w3.org/1999/xlink" x="0px" y="0px"
	 viewBox="0 0 600 600" style="enable-background:new 0 0 600 600;" xml:space="preserve">
<style type="text/css">
	.st0{fill:#B74697;}
	.st1{fill:#020202;}
	.st2{fill:#D868AE;}
	.st3{fill:#C95DA5;}
	.st4{fill:#D19E20;}
	.st5{fill:#E5C53C;}
	.st6{fill:#D3A83D;}
	.st7{fill:#79CCB2;}
	.st8{fill:#ACE2D3;}
	.st9{fill:#8FCCB9;}
	.st10{fill:#FFFFFF;}
	.st11{fill:#E5BD4E;}
	.st12{fill:#AD78BA;}
	.st13{fill:#9462A0;}
	.st14{fill:#E2ABEF;}
	.st15{fill:#CD87DD;}
	.st16{fill:#BDD174;}
	.st17{fill:#7793E0;}
	.st18{fill:#A0AF61;}
	.st19{fill:#D68A56;}
	.st20{fill:#F2C577;}
	.st21{fill:#5F78CE;}
	.st22{fill:#B1C659;}
	.st23{fill:#ACBF58;}
	.st24{fill:#A3B24F;}
	.st25{fill:#F9EBD7;}
	.st26{fill:#F2DCC2;}
	.st27{fill:#EDD7BC;}
	.st28{fill:#FBFBFB;}
	.st29{fill:#546AA8;}
	.st30{fill:#E5B46C;}
	.st31{fill:#D19F5D;}
	.st32{fill:#C17B4C;}
	.st33{fill:#567CC1;}
	.st34{fill:#F7D19A;}
	.st35{fill:#DD8345;}
	.st36{fill:#DDAA5F;}
	.st37{fill:#E5B28F;}
	.st38{fill:#AF6E43;}
	.st39{fill:#DDA152;}
	.st40{fill:#895633;}
	.st41{fill:#F9D9AA;}
	.st42{fill:#CBF7E9;}
	.st43{fill:#7DB2A1;}
	.st44{fill:#6AAD97;}
	.st45{fill:#599B83;}
	.st46{fill:#89C9B7;}
</style>
<g id="outline-Toys">
</g>
<g id="outline-Cooking">
</g>
<g id="outline-Swimming">
</g>
<g id="outline-Playing_Chess">
</g>
<g id="outline-Tennis">
</g>
<g id="outline-Writing">
</g>
<g id="outline-Surfing">
</g>
<g id="outline-Skating">
</g>
<g id="outline-Movie">
</g>
<g id="outline-Photography">
</g>
<g id="outline-Work_Out">
</g>
<g id="outline-Gaming">
</g>
<g id="outline-Sewing">
</g>
<g id="outline-Baking">
</g>
<g id="outline-Gardening">
</g>
<g id="outline-Hiking">
</g>
<g id="outline-Painting">
</g>
<g id="outline-Riding">
</g>
<g id="outline-Fishing">
</g>
<g id="outline-Knitting">
</g>
<g id="color-Toys_1_">
</g>
<g id="color-Cooking_1_">
</g>
<g id="color-Swimming_1_">
</g>
<g id="color-Playing_Chess_1_">
</g>
<g id="color-Tennis_1_">
</g>
<g id="color-Writing_1_">
</g>
<g id="color-Surfing_1_">
</g>
<g id="color-Skating_1_">
</g>
<g id="color-Movie_1_">
</g>
<g id="color-Photography_1_">
</g>
<g id="color-Work_Out_1_">
</g>
<g id="color-Gaming_1_">
</g>
<g id="color-Sewing_1_">
</g>
<g id="color-Baking_1_">
</g>
<g id="color-Gardening_1_">
	<g>
		<g>
			<g>
				<path class="st20" d="M280.4,364.7c-0.5,14.8-2.3,35.7-8.2,54.2c-6.7,21.1-29.7,45.4-45.4,60.2c-2.7,2.5-5.9,4.3-9.2,5.3
					c-7.4,2.2-15.7,0.4-21.9-5.3c-15.7-14.8-38.7-39-45.4-60.2c-5.9-18.5-7.7-39.4-8.2-54.2c-0.4-10.8,7.6-19.7,17.6-19.7h103.2
					C272.7,344.9,280.7,353.9,280.4,364.7z"/>
			</g>
			<g>
				<path class="st36" d="M280.4,364.7c-0.5,14.8-2.3,35.7-8.2,54.2c-6.7,21.1-29.7,45.4-45.4,60.2c-2.7,2.5-5.9,4.3-9.2,5.3
					c32.4-31,45.7-97.2,42.3-105.7c-3.4-8.5-24.2-14.1-24.2-14.1v-19.6h27.2C272.7,344.9,280.7,353.9,280.4,364.7z"/>
			</g>
			<g>
				<path class="st1" d="M211.2,487.6c-6.1,0-12.3-2.3-17.2-6.9c-17.3-16.2-39.3-40-46.1-61.2c-6-18.9-7.9-40.2-8.3-54.8
					c-0.2-6.1,2-12,6.1-16.2c3.7-3.9,8.7-6,13.8-6h103.3c5.2,0,10.1,2.1,13.8,6c4.1,4.2,6.3,10.1,6.1,16.2l0,0
					c-0.5,14.5-2.3,35.9-8.3,54.8c-6.7,21.2-28.8,45-46.1,61.2C223.4,485.3,217.3,487.6,211.2,487.6z M159.5,347.3
					c-3.9,0-7.6,1.6-10.4,4.5c-3.2,3.3-4.9,7.9-4.8,12.7c0.5,14.2,2.3,35.1,8.1,53.5c6.8,21.2,31,46.2,44.8,59.1
					c8.1,7.6,19.8,7.6,27.8,0c13.8-13,38-37.9,44.8-59.1c5.9-18.4,7.6-39.3,8.1-53.5c0.2-4.8-1.6-9.4-4.8-12.7
					c-2.8-2.9-6.5-4.5-10.4-4.5H159.5z"/>
			</g>
			<g>
				<path class="st32" d="M221.5,381.9h-20.6c-1.3,0-2.4-1.1-2.4-2.4V139h25.3v240.5C223.8,380.8,222.8,381.9,221.5,381.9z"/>
			</g>
			<g>
				<path class="st1" d="M212.5,384.3h-2.7c-7.6,0-13.7-6.2-13.7-13.7v-234h30.2v234C226.2,378.1,220.1,384.3,212.5,384.3z
					 M200.9,141.4v229.2c0,4.9,4,8.9,8.9,8.9h2.7c4.9,0,8.9-4,8.9-8.9V141.4H200.9z"/>
			</g>
			<path class="st2" d="M229.3,114.7H193c-9.5,0-17.3,7.7-17.3,17.3v4.1c0,9.5,7.7,17.3,17.3,17.3h36.3c9.5,0,17.3-7.7,17.3-17.3
				V132C246.6,122.5,238.8,114.7,229.3,114.7z"/>
			<g>
				<path class="st1" d="M229.3,155.8H193c-10.9,0-19.7-8.8-19.7-19.7V132c0-10.9,8.8-19.7,19.7-19.7h36.3
					c10.9,0,19.7,8.8,19.7,19.7v4.1C249,147,240.1,155.8,229.3,155.8z M193,117.1c-8.2,0-14.9,6.7-14.9,14.9v4.1
					c0,8.2,6.7,14.9,14.9,14.9h36.3c8.2,0,14.9-6.7,14.9-14.9V132c0-8.2-6.7-14.9-14.9-14.9H193z"/>
			</g>
			<path class="st19" d="M228.9,331.2h-35.4c-2.9,0-5.3,2.4-5.3,5.3v41.9c0,10.7,8.6,19.3,19.3,19.3h7.4c10.7,0,19.3-8.6,19.3-19.3
				v-41.9C234.2,333.6,231.8,331.2,228.9,331.2z"/>
			<g>
				<path class="st1" d="M214.9,400.1h-7.4c-12,0-21.7-9.7-21.7-21.7v-41.9c0-4.3,3.5-7.7,7.7-7.7h35.4c4.3,0,7.7,3.5,7.7,7.7v41.9
					C236.6,390.4,226.8,400.1,214.9,400.1z M193.4,333.6c-1.6,0-2.9,1.3-2.9,2.9v41.9c0,9.3,7.6,16.9,16.9,16.9h7.4
					c9.3,0,16.9-7.6,16.9-16.9v-41.9c0-1.6-1.3-2.9-2.9-2.9H193.4z"/>
			</g>
			<g>
				<g>
					<path class="st10" d="M199.4,347.4c0,5.5,0,11,0,16.5c0,3.3,5.1,3.3,5.1,0c0-5.5,0-11,0-16.5
						C204.4,344.2,199.4,344.2,199.4,347.4L199.4,347.4z"/>
				</g>
			</g>
			<g>
				<g>
					<path class="st10" d="M199.4,372.7c0,1,0,1.9,0,2.9c0,3.3,5.1,3.3,5.1,0c0-1,0-1.9,0-2.9C204.4,369.5,199.4,369.5,199.4,372.7
						L199.4,372.7z"/>
				</g>
			</g>
		</g>
		<g>
			<g>
				<path class="st16" d="M375.6,337.5c-11.9,2.8-41.1-26-49.7-54s-1.8-44.6,4.1-43.7s30.4,27.1,41.6,46.2
					C382.7,305.1,378.7,336.7,375.6,337.5z"/>
			</g>
			<g>
				<path class="st16" d="M384.6,346c-16.6,9,9.2-37.4,23.3-53.5c14.1-16.1,20.5-18.2,22.6-15.5c2,2.7-10,30-16.2,43.1
					C408.1,333.2,389.8,343.2,384.6,346z"/>
			</g>
			<g>
				<path class="st1" d="M373.9,340.1c-14.9,0-42.4-30-50.3-55.9c-6.8-22.1-4.5-38.1,0.8-44.2c1.7-2,3.8-2.9,5.9-2.6
					c7.2,1.1,32.3,28.6,43.3,47.4c10.4,17.9,8,45.9,5.2,52.3c-0.4,1-1.2,2.4-2.7,2.8l0,0C375.5,340,374.7,340.1,373.9,340.1z
					 M329.6,242.1c-0.4,0-0.9,0.4-1.5,1c-3.6,4.1-6.5,18.1,0.1,39.7c8.4,27.3,35.6,53.8,46.2,52.5c2.1-4.3,5-31-5-48.1
					C357.9,267.3,334,242.8,329.6,242.1C329.6,242.1,329.6,242.1,329.6,242.1z"/>
			</g>
			<g>
				<path class="st1" d="M381.2,349.6c-1.6,0-2.6-0.7-3.3-1.5c-6.1-7.6,18.9-46.5,28.2-57.1c10.2-11.7,17.5-17.3,22.3-17.3
					c0.1,0,0.1,0,0.2,0c1.6,0.1,2.9,0.7,3.8,1.9c0.8,1.1,3.4,4.5-15.9,45.6c-4.3,9.2-14.6,18.3-30.7,27l0,0
					C383.9,349.2,382.4,349.6,381.2,349.6z M428.3,278.5c-1.1,0-5.9,1.2-18.6,15.7c-12.7,14.5-28.8,44.8-28.1,50.6
					c0.4-0.1,0.9-0.3,1.9-0.8l0,0c15.1-8.2,24.7-16.6,28.6-24.8C421.1,299.9,428,282.6,428.3,278.5z"/>
			</g>
			<g>
				<path class="st18" d="M382.2,255.6c-5.3,28.9-11.5,103.8-7.6,110.9c3.9,7.1,10.2-1.8,8.6-5.4c-1.6-3.5,4.7-89.2,7.9-106.4
					C393.6,241,385,240.1,382.2,255.6z"/>
			</g>
			<g>
				<path class="st1" d="M378.1,371.5c-1.9,0-4-1-5.6-3.9c-4.6-8.3,2.4-85.9,7.3-112.5c2-10.6,6.2-13.8,9.5-13.2
					c3,0.5,5.7,4.3,4.1,13.2c-3,17-9.2,99.6-8,105.2c1.6,3.4-1.3,8.8-4.7,10.5C379.9,371.3,379,371.5,378.1,371.5z M388.3,246.6
					c-0.1,0.2-2.4,2.3-3.7,9.4l0,0c-5.9,31.9-11,103.4-7.8,109.3c1,1.7,1.5,1.4,1.8,1.3c1.7-0.8,2.8-3.7,2.4-4.5
					c-2.2-4.8,5-92.7,7.7-107.8C389.6,249,388.6,246.9,388.3,246.6z"/>
			</g>
			<g>
				<g>
					<path class="st17" d="M445.8,375.1l-19.9,93.6c-1.7,7.9-7.8,14.1-15.4,15.9c-1.6,0.4-3.4,0.7-5.1,0.7h-44.1
						c-9.9,0-18.5-6.9-20.5-16.6l-13-61.2l-6.9-32.4H445.8z"/>
				</g>
				<g>
					<path class="st21" d="M445.8,375.1l-19.9,93.6c-1.7,7.9-7.8,14.1-15.4,15.9c4.3-28.6,10.5-76.2,4.8-77
						c-6.5-1-65.2-0.4-87.5-0.1l-6.9-32.4H445.8z"/>
				</g>
				<g>
					<path class="st1" d="M405.4,487.7h-44.1c-11,0-20.6-7.8-22.9-18.5l-20.5-96.5h130.9l-20.5,96.5
						C426,479.9,416.4,487.7,405.4,487.7z M323.8,377.5l19.3,90.7c1.8,8.5,9.4,14.7,18.2,14.7h44.1c8.7,0,16.4-6.2,18.2-14.7
						l19.3-90.7H323.8z"/>
				</g>
				<path class="st8" d="M445.5,358.2H321.2c-6.9,0-12.6,5.6-12.6,12.6v8.7c0,6.9,5.6,12.6,12.6,12.6h124.3
					c6.9,0,12.6-5.6,12.6-12.6v-8.7C458.1,363.8,452.4,358.2,445.5,358.2z"/>
				<g>
					<path class="st1" d="M445.5,394.4H321.2c-8.3,0-15-6.7-15-15v-8.7c0-8.2,6.7-15,15-15h124.3c8.3,0,15,6.7,15,15v8.7
						C460.5,387.7,453.7,394.4,445.5,394.4z M321.2,360.6c-5.6,0-10.1,4.6-10.1,10.1v8.7c0,5.6,4.6,10.1,10.1,10.1h124.3
						c5.6,0,10.1-4.6,10.1-10.1v-8.7c0-5.6-4.6-10.1-10.1-10.1H321.2z"/>
				</g>
				<g>
					<g>
						<path class="st10" d="M330.3,369.5c6.7,0,13.4,0,20.1,0c3.3,0,3.3-5.1,0-5.1c-6.7,0-13.4,0-20.1,0
							C327,364.5,327,369.5,330.3,369.5L330.3,369.5z"/>
					</g>
				</g>
				<g>
					<g>
						<path class="st10" d="M359.8,369.5c0.9,0,1.8,0,2.8,0c3.3,0,3.3-5.1,0-5.1c-0.9,0-1.8,0-2.8,0
							C356.5,364.5,356.5,369.5,359.8,369.5L359.8,369.5z"/>
					</g>
				</g>
			</g>
			<g>
				<path class="st16" d="M427.5,222.9c-6.2,15.1-25.2,33.6-36,40.3c-3.4,2.1-5.9,3-7,2.4c-10.5-6.5-10.9-42.5-3.2-62.9
					c7.2-19.1,26.4-46.9,33.5-51.8c0.2-0.2,0.5-0.3,0.7-0.4C421.8,147.1,438.6,195.7,427.5,222.9z"/>
			</g>
			<g>
				<path class="st18" d="M427.5,222.9c-6.2,15.1-25.2,33.6-36,40.3c0,0,23.5-31,28.6-52.2c4.2-17.6-2.8-49.7-5.3-60.1
					c0.2-0.2,0.5-0.3,0.7-0.4C421.8,147.1,438.6,195.7,427.5,222.9z"/>
			</g>
			<g>
				<path class="st1" d="M385.4,268.2c-0.8,0-1.5-0.2-2.2-0.6l0,0c-12.6-7.7-11.5-46.4-4.2-65.8c7.5-19.9,28.1-49.8,35.4-53.5
					c0.9-0.5,2.9-1,5.2,1.1c8.3,7.6,20.3,49.5,10.1,74.4c-7.6,18.7-32.8,40.9-41.9,43.9C386.9,268,386.1,268.2,385.4,268.2z
					 M416.2,152.8c-5.7,3.8-25.3,31.1-32.6,50.7c-7.7,20.3-6.5,54.1,2,59.8c4.8-0.2,31.9-22.1,39.7-41.4c7.3-17.9,1.9-46.5-4.3-61.2
					C418.7,155.5,416.9,153.4,416.2,152.8z"/>
			</g>
			<g>
				<g>
					<path class="st10" d="M393.7,205.8c0.9-3.3,2.1-6.5,3.6-9.5c1.4-2.9-2.9-5.5-4.4-2.6c-1.7,3.5-3.1,7-4.1,10.7
						C387.9,207.6,392.8,208.9,393.7,205.8L393.7,205.8z"/>
				</g>
			</g>
			<g>
				<g>
					<path class="st10" d="M401.3,186.5c0.3-0.5,0.6-1,0.9-1.5c1.7-2.8-2.7-5.4-4.4-2.6c-0.3,0.5-0.6,1-0.9,1.5
						C395.3,186.8,399.7,189.3,401.3,186.5L401.3,186.5z"/>
				</g>
			</g>
		</g>
	</g>
</g>
<g id="color-Hiking_1_">
</g>
<g id="color-Painting_1_">
</g>
<g id="color-Riding_1_">
</g>
<g id="color-Fishing_1_">
</g>
<g id="color-Knitting_1_">
</g>
</svg>
