<?xml version="1.0" encoding="utf-8"?>
<!-- Generator: Adobe Illustrator 27.1.1, SVG Export Plug-In . SVG Version: 6.00 Build 0)  -->
<svg version="1.1" id="Layer_1" xmlns="http://www.w3.org/2000/svg" xmlns:xlink="http://www.w3.org/1999/xlink" x="0px" y="0px"
	 viewBox="0 0 600 600" style="enable-background:new 0 0 600 600;" xml:space="preserve">
<style type="text/css">
	.st0{fill:#C17B4C;stroke:#000000;stroke-width:5;stroke-miterlimit:10;}
	.st1{fill:#FFFFE8;stroke:#000000;stroke-width:5;stroke-miterlimit:10;}
	.st2{fill:#FFF85F;stroke:#000000;stroke-width:5;stroke-miterlimit:10;}
	.st3{fill:#452100;stroke:#000000;stroke-width:5;stroke-miterlimit:10;}
	.st4{fill:#FF934A;stroke:#000000;stroke-width:5;stroke-miterlimit:10;}
	.st5{fill:#FFFFFF;}
</style>
<g id="outline-Toys">
</g>
<g id="outline-Cooking">
</g>
<g id="outline-Swimming">
</g>
<g id="outline-Playing_Chess">
</g>
<g id="outline-Tennis">
</g>
<g id="outline-Writing">
</g>
<g id="outline-Surfing">
</g>
<g id="outline-Skating">
</g>
<g id="outline-Movie">
</g>
<g id="outline-Photography">
</g>
<g id="outline-Work_Out">
</g>
<g id="outline-Gaming">
</g>
<g id="outline-Sewing">
</g>
<g id="outline-Baking">
</g>
<g id="outline-Gardening">
</g>
<g id="outline-Hiking">
</g>
<g id="outline-Painting">
</g>
<g id="outline-Riding">
</g>
<g id="outline-Fishing">
</g>
<g id="outline-Knitting">
</g>
<g id="color-Toys_1_">
</g>
<g id="color-Cooking_1_">
</g>
<g id="color-Swimming_1_">
</g>
<g id="color-Playing_Chess_1_">
</g>
<g id="color-Tennis_1_">
</g>
<g id="color-Writing_1_">
</g>
<g id="color-Surfing_1_">
</g>
<g id="color-Skating_1_">
</g>
<g id="color-Movie_1_">
</g>
<g id="color-Photography_1_">
</g>
<g id="color-Work_Out_1_">
</g>
<g id="color-Gaming_1_">
</g>
<g id="color-Sewing_1_">
</g>
<g id="color-Baking_1_">
</g>
<g id="color-Hiking_1_">
</g>
<g id="color-Painting_1_">
</g>
<g id="color-Riding_1_">
</g>
<g id="color-Fishing_1_">
</g>
<g id="color-Knitting_1_">
</g>
<g>
	<g>
		<rect x="281.1" y="90.3" class="st0" width="27.6" height="18.7"/>
		<g>
			<g>
				<polygon class="st0" points="217.2,367.2 155,522.8 195.5,522.8 256.6,367.2 				"/>
				<rect x="280.7" y="367.2" class="st0" width="28.3" height="102.1"/>
				<polygon class="st0" points="372.5,367.2 434.7,522.8 394.3,522.8 333.1,367.2 				"/>
			</g>
			<rect x="170.8" y="337.9" class="st0" width="248.1" height="29.3"/>
		</g>
	</g>
	<rect x="184.6" y="109.5" class="st1" width="220.5" height="228.4"/>
	<g>
		<path class="st2" d="M364.8,139.8c5.4,6.2,10.9,12.4,16.3,18.5c-12.5,10.4-24.9,20.9-37.4,31.3c-4.1-4.8-8.1-9.6-12.2-14.4
			C342.6,163.4,353.7,151.6,364.8,139.8z"/>
		<path class="st3" d="M362.8,140.9c22.7-20.8,45.4-41.5,68.1-62.3c3.7-2.4,8.7-1.8,11.6,1.4c3.1,3.3,3.3,8.6,0.3,12.2
			c-20.8,22.6-41.5,45.2-62.3,67.8C374.6,153.6,368.7,147.2,362.8,140.9z"/>
		<path class="st4" d="M330.3,232.9c0.1-0.1-0.7-0.7-1.4-1.2c-6.1-5.4-6.9-9.2-6.5-11.7c1.1-6.7,11.9-6.8,18.3-17.7
			c1.4-2.4,4-7.1,3-12.7c-1.1-5.6-5.7-11.1-11.1-12.2c-9.6-1.9-19.5,10.8-22.5,21.4c-0.6,2.1-3.8,13.1,2.2,22.3
			C318.1,230,330.1,233.3,330.3,232.9z"/>
	</g>
</g>
<g>
	<g>
		<path class="st5" d="M393.3,120.1c-6.6,6.2-13.2,12.4-19.8,18.7c-2.4,2.2,0.7,5.5,3.1,3.2c6.6-6.2,13.2-12.4,19.8-18.7
			C398.6,121.1,395.6,117.9,393.3,120.1L393.3,120.1z"/>
	</g>
</g>
<g>
	<g>
		<path class="st5" d="M408,106.2c-2.3,2.2-4.7,4.4-7,6.6c-2.4,2.2,0.7,5.5,3.1,3.2c2.3-2.2,4.7-4.4,7-6.6S410.3,104,408,106.2
			L408,106.2z"/>
	</g>
</g>
</svg>
