<?xml version="1.0" encoding="utf-8"?>
<!-- Generator: Adobe Illustrator 27.1.1, SVG Export Plug-In . SVG Version: 6.00 Build 0)  -->
<svg version="1.1" id="Layer_1" xmlns="http://www.w3.org/2000/svg" xmlns:xlink="http://www.w3.org/1999/xlink" x="0px" y="0px"
	 viewBox="0 0 600 600" style="enable-background:new 0 0 600 600;" xml:space="preserve">
<style type="text/css">
	.st0{fill:#452100;stroke:#000000;stroke-width:5;stroke-miterlimit:10;}
	.st1{fill:none;stroke:#000000;stroke-width:13;stroke-miterlimit:10;}
	.st2{fill:#DB884A;stroke:#000000;stroke-width:5;stroke-miterlimit:10;}
	.st3{fill:#D166FF;stroke:#000000;stroke-width:5;stroke-miterlimit:10;}
	.st4{fill:#0081BF;stroke:#000000;stroke-width:4.9999;stroke-miterlimit:9.9998;}
	.st5{fill:#DF9D00;stroke:#000000;stroke-width:4.9997;stroke-miterlimit:9.9995;}
	.st6{fill:#FFFFFF;}
	.st7{fill:#B46A00;}
</style>
<g id="outline-Toys">
</g>
<g id="outline-Cooking">
</g>
<g id="outline-Swimming">
</g>
<g id="outline-Playing_Chess">
</g>
<g id="outline-Tennis">
</g>
<g id="outline-Writing">
</g>
<g id="outline-Surfing">
</g>
<g id="outline-Skating">
</g>
<g id="outline-Movie">
</g>
<g id="outline-Photography">
</g>
<g id="outline-Work_Out">
</g>
<g id="outline-Gaming">
</g>
<g id="outline-Sewing">
</g>
<g id="outline-Baking">
</g>
<g id="outline-Gardening">
</g>
<g id="outline-Hiking">
</g>
<g id="outline-Painting">
</g>
<g id="outline-Riding">
</g>
<g id="outline-Fishing">
</g>
<g id="outline-Knitting">
</g>
<g id="color-Toys_1_">
</g>
<g id="color-Cooking_1_">
</g>
<g id="color-Swimming_1_">
</g>
<g id="color-Playing_Chess_1_">
</g>
<g id="color-Tennis_1_">
</g>
<g id="color-Writing_1_">
</g>
<g id="color-Surfing_1_">
</g>
<g id="color-Skating_1_">
</g>
<g id="color-Movie_1_">
</g>
<g id="color-Photography_1_">
</g>
<g id="color-Work_Out_1_">
</g>
<g id="color-Gaming_1_">
</g>
<g id="color-Sewing_1_">
</g>
<g id="color-Baking_1_">
</g>
<g id="color-Hiking_1_">
</g>
<g id="color-Painting_1_">
</g>
<g id="color-Riding_1_">
</g>
<g id="color-Fishing_1_">
</g>
<g id="color-Knitting_1_">
</g>
<rect x="163" y="215.6" class="st0" width="274" height="202.4"/>
<path class="st1" d="M233.7,238.4c0.3-19.7,0.5-39.4,0.8-59.1c1.9-3,5.3-7.4,10.6-11.4c6.5-4.8,12.9-6.8,16.7-7.6
	c26.8,0,53.6,0,80.3,0c2.4,0.2,9,0.9,15.2,6.1c6.8,5.7,8.6,13,9.1,15.2c0,19.5,0,38.9,0,58.4"/>
<path class="st2" d="M158.7,438.9c152.4,1.5,263.9,0.8,286.5-1.1c5.8-0.5,15.6-2,23.5-9.1c10.8-9.7,11.6-22.6,11.7-25
	c0-52,0-104.1,0-156.1c-1.6-5.1-5.3-14.7-14.4-22.7c-17.9-15.9-41-12.3-44.3-11.7c0,53.7,0,107.4,0,161.1c-2.5,5.2-7.6,8.7-13.3,9.1
	c-6.5,0.4-12.7-3.6-15.4-9.9c0-53.2,0-106.4,0-159.7c-64.1,0-128.2,0-192.3,0c0,53.5,0,107,0,160.4c-0.3,0.6-4.3,8.2-12.5,9.1
	c-7.2,0.7-14.4-4-17.1-11.7c0-53.2,0-106.4,0-159.5c-3-0.4-21.2-2.4-36.4,10.6c-11.5,9.9-14.4,22.5-15.2,26.5
	c0,51.5,0,103.1,0,154.6c0.9,3.9,3.9,15.1,14.4,24.3C143.9,436.6,154.6,438.4,158.7,438.9z"/>
<rect x="342.4" y="260.9" class="st3" width="108.4" height="41.4"/>
<rect x="184.4" y="255" transform="matrix(0.866 -0.5 0.5 0.866 -106.6566 148.3284)" class="st4" width="78.1" height="36.4"/>
<rect x="259.7" y="343" transform="matrix(0.7812 -0.6242 0.6242 0.7812 -169.1073 254.4629)" class="st5" width="37.6" height="51"/>
<g>
	<g>
		<path class="st6" d="M134.3,278c0,9.2,0,18.4,0,27.6c0,3.3,5.1,3.3,5.1,0c0-9.2,0-18.4,0-27.6C139.4,274.8,134.3,274.8,134.3,278
			L134.3,278z"/>
	</g>
</g>
<g>
	<g>
		<path class="st6" d="M134.3,257.5c0,3.2,0,6.5,0,9.7c0,3.3,5.1,3.3,5.1,0c0-3.2,0-6.5,0-9.7C139.4,254.3,134.3,254.3,134.3,257.5
			L134.3,257.5z"/>
	</g>
</g>
<path class="st7" d="M424,215.7c5.5,1.4,20.9,13.3,29.4,31c1.5,3.1,2.4,6.1,3,9.1c-0.3,49.3-0.7,98.7-1,148
	c-0.9,4.4-2.5,9.2-5.1,14.1c-11.8,22.8-25.9,17.1-33.5,18.5c2.1,1,33.2,0.7,41.3-3.4c18.6-9.4,19.1-26.6,19.6-29.7
	c0.3-50.7-0.3-104.4,0-155.1c0.5,2.4-1.6-11.8-17.3-24.8C447.5,212.8,426.4,214.9,424,215.7z"/>
</svg>
