<?xml version="1.0" encoding="utf-8"?>
<!-- Generator: Adobe Illustrator 22.0.0, SVG Export Plug-In . SVG Version: 6.00 Build 0)  -->
<svg version="1.1" xmlns="http://www.w3.org/2000/svg" xmlns:xlink="http://www.w3.org/1999/xlink" x="0px" y="0px"
	 viewBox="0 0 600 600" style="enable-background:new 0 0 600 600;" xml:space="preserve">
<style type="text/css">
	.st0{fill:#B74697;}
	.st1{fill:#020202;}
	.st2{fill:#D868AE;}
	.st3{fill:#C95DA5;}
	.st4{fill:#D19E20;}
	.st5{fill:#E5C53C;}
	.st6{fill:#D3A83D;}
	.st7{fill:#79CCB2;}
	.st8{fill:#ACE2D3;}
	.st9{fill:#8FCCB9;}
	.st10{fill:#FFFFFF;}
	.st11{fill:#E5BD4E;}
	.st12{fill:#AD78BA;}
	.st13{fill:#9462A0;}
	.st14{fill:#E2ABEF;}
	.st15{fill:#CD87DD;}
	.st16{fill:#BDD174;}
	.st17{fill:#7793E0;}
	.st18{fill:#A0AF61;}
	.st19{fill:#D68A56;}
	.st20{fill:#F2C577;}
	.st21{fill:#5F78CE;}
	.st22{fill:#B1C659;}
	.st23{fill:#ACBF58;}
	.st24{fill:#A3B24F;}
	.st25{fill:#F9EBD7;}
	.st26{fill:#F2DCC2;}
	.st27{fill:#EDD7BC;}
	.st28{fill:#FBFBFB;}
	.st29{fill:#546AA8;}
	.st30{fill:#E5B46C;}
	.st31{fill:#D19F5D;}
	.st32{fill:#C17B4C;}
	.st33{fill:#567CC1;}
	.st34{fill:#F7D19A;}
	.st35{fill:#DD8345;}
	.st36{fill:#DDAA5F;}
	.st37{fill:#E5B28F;}
	.st38{fill:#AF6E43;}
	.st39{fill:#DDA152;}
	.st40{fill:#895633;}
	.st41{fill:#F9D9AA;}
	.st42{fill:#CBF7E9;}
	.st43{fill:#7DB2A1;}
	.st44{fill:#6AAD97;}
	.st45{fill:#599B83;}
	.st46{fill:#89C9B7;}
</style>
<g id="outline-Toys">
</g>
<g id="outline-Cooking">
</g>
<g id="outline-Swimming">
</g>
<g id="outline-Playing_Chess">
</g>
<g id="outline-Tennis">
</g>
<g id="outline-Writing">
</g>
<g id="outline-Surfing">
</g>
<g id="outline-Skating">
</g>
<g id="outline-Movie">
</g>
<g id="outline-Photography">
</g>
<g id="outline-Work_Out">
</g>
<g id="outline-Gaming">
</g>
<g id="outline-Sewing">
</g>
<g id="outline-Baking">
</g>
<g id="outline-Gardening">
</g>
<g id="outline-Hiking">
</g>
<g id="outline-Painting">
</g>
<g id="outline-Riding">
</g>
<g id="outline-Fishing">
</g>
<g id="outline-Knitting">
</g>
<g id="color-Toys_1_">
</g>
<g id="color-Cooking_1_">
</g>
<g id="color-Swimming_1_">
</g>
<g id="color-Playing_Chess_1_">
</g>
<g id="color-Tennis_1_">
</g>
<g id="color-Writing_1_">
</g>
<g id="color-Surfing_1_">
</g>
<g id="color-Skating_1_">
</g>
<g id="color-Movie_1_">
</g>
<g id="color-Photography_1_">
</g>
<g id="color-Work_Out_1_">
	<g>
		<g>
			<path class="st8" d="M289,245.2c5.2-19.3,15.7-61.3,12.2-67.2c-4.7-7.6-44.7-9.7-59.9-9.7c-15.2,0-55.2,2.1-59.9,9.7
				c-3.6,5.9,7,47.9,12.2,67.2c-17.1,13.9-28.1,35.1-28.1,58.8c0,23.5,10.7,44.4,27.4,58.3h96.7c16.8-13.9,27.4-34.8,27.4-58.3
				C317.1,280.3,306.1,259.1,289,245.2z M204.7,237.7c-4-15-11.9-46.5-9.2-50.9c3.5-5.8,34.2-7.5,45.8-7.5c11.6,0,42.3,1.6,45.8,7.5
				c2.7,4.4-5.2,35.9-9.2,50.9c-10.9-6-23.4-9.5-36.6-9.5C228.1,228.3,215.6,231.7,204.7,237.7z"/>
		</g>
		<g>
			<path class="st9" d="M317.1,304c0,23.5-10.6,44.4-27.4,58.3h-49.4c8.9-5,18.1-11.7,26.9-20.4c42.7-41.9,21.8-96.7,21.8-96.7
				C306.1,259.1,317.1,280.3,317.1,304z"/>
		</g>
		<g>
			<path class="st1" d="M290.6,364.7h-98.5l-0.7-0.6c-17.9-14.9-28.2-36.8-28.2-60.1c0-23.1,10.1-44.8,27.8-59.7
				c-16-60.3-12.6-65.8-11.5-67.6c6.5-10.8,61.4-10.9,61.9-10.9s55.4,0.1,61.9,10.9c1.1,1.8,4.5,7.3-11.5,67.6
				c17.7,14.9,27.8,36.6,27.8,59.7c0,23.3-10.3,45.2-28.2,60.1L290.6,364.7z M193.9,359.9h95c16.4-14,25.8-34.3,25.8-55.9
				c0-22.2-9.9-42.9-27.2-57l-1.2-1l0.4-1.5c11.7-43.9,14-62.6,12.5-65.3c-3.2-5.3-35.8-8.6-57.8-8.6c-22,0-54.6,3.3-57.8,8.6
				c-1.6,2.7,0.8,21.4,12.5,65.3l0.4,1.5l-1.2,1c-17.3,14-27.2,34.8-27.2,56.9C168,325.6,177.4,345.9,193.9,359.9z M203.2,241.4
				l-0.8-3c-12.5-47-9.9-51.2-8.9-52.8c5.2-8.5,47.5-8.6,47.9-8.6c0.4,0,42.7,0.1,47.9,8.6c1,1.6,3.6,5.8-8.9,52.8l-0.8,3l-2.7-1.5
				c-21.6-12-49.3-12-70.9,0L203.2,241.4z M197.6,188.1c-1,2.3,0.7,15.7,8.7,46.2c21.7-10.9,48.5-10.9,70.2,0
				c8-30.5,9.7-43.9,8.7-46.2c-2.1-3.5-25.3-6.3-43.8-6.3C222.9,181.8,199.8,184.5,197.6,188.1z"/>
		</g>
		<g>
			<path class="st1" d="M241.4,326.3c-15.6,0-28.3-12.7-28.3-28.3c0-15.6,12.7-28.3,28.3-28.3c15.6,0,28.3,12.7,28.3,28.3
				C269.6,313.6,257,326.3,241.4,326.3z M241.4,274.6c-12.9,0-23.5,10.5-23.5,23.5c0,12.9,10.5,23.5,23.5,23.5
				c12.9,0,23.5-10.5,23.5-23.5C264.8,285.1,254.3,274.6,241.4,274.6z"/>
		</g>
		<g>
			<g>
				<g>
					<path class="st2" d="M396.8,261.6c5.3,5.9,14.5,6.3,20.4,1c5.9-5.3,6.3-14.5,1-20.4c-5.3-5.9-14.5-6.3-20.4-1
						C391.9,246.6,391.4,255.8,396.8,261.6z"/>
				</g>
				<g>
					<path class="st1" d="M407.5,268.8c-4.6,0-9.1-1.9-12.5-5.5c-3-3.3-4.6-7.6-4.3-12.1c0.2-4.5,2.2-8.6,5.5-11.6
						c3.3-3,7.7-4.6,12.1-4.3c4.5,0.2,8.6,2.2,11.6,5.5c3,3.3,4.6,7.6,4.3,12.1c-0.2,4.5-2.2,8.6-5.5,11.6
						C415.5,267.3,411.5,268.8,407.5,268.8z M407.4,240c-3,0-5.8,1.1-8.1,3.1c-2.4,2.2-3.8,5.1-3.9,8.3c-0.2,3.2,0.9,6.3,3.1,8.6
						l0,0c2.2,2.4,5.1,3.8,8.3,3.9c3.2,0.1,6.3-0.9,8.6-3.1s3.8-5.1,3.9-8.3c0.2-3.2-1-6.3-3.1-8.6c-2.2-2.4-5.1-3.8-8.3-3.9
						C407.8,240,407.6,240,407.4,240z"/>
				</g>
				<g>
					
						<ellipse transform="matrix(0.9659 -0.259 0.259 0.9659 -95.7868 76.4921)" class="st2" cx="242.4" cy="401.8" rx="14.4" ry="14.4"/>
				</g>
				<g>
					<path class="st1" d="M242.4,418.6c-0.3,0-0.6,0-0.8,0c-4.5-0.2-8.6-2.2-11.6-5.5c-6.2-6.9-5.7-17.5,1.1-23.7
						c3.3-3,7.7-4.5,12.1-4.3c4.5,0.2,8.6,2.2,11.6,5.5c3,3.3,4.6,7.6,4.3,12.1c-0.2,4.5-2.2,8.6-5.5,11.6
						C250.6,417.1,246.6,418.6,242.4,418.6z M242.4,389.8c-3,0-5.8,1.1-8.1,3.1c-2.4,2.2-3.8,5.1-3.9,8.3c-0.2,3.2,0.9,6.3,3.1,8.6
						c2.2,2.4,5.1,3.8,8.3,3.9c3.2,0.2,6.3-0.9,8.6-3.1c2.4-2.2,3.8-5.1,3.9-8.3c0.2-3.2-0.9-6.3-3.1-8.6l0,0
						c-2.2-2.4-5.1-3.8-8.3-3.9C242.8,389.8,242.6,389.8,242.4,389.8z"/>
				</g>
				<g>
					
						<rect x="265.2" y="320.5" transform="matrix(0.7404 -0.6722 0.6722 0.7404 -139.0073 301.4343)" class="st17" width="111" height="20.4"/>
				</g>
				<g>
					<path class="st1" d="M286.3,378.9l-16.9-18.7l85.8-77.9l16.9,18.6L286.3,378.9z M276.2,360.6l10.5,11.5l78.6-71.4l-10.5-11.5
						L276.2,360.6z"/>
				</g>
				<g>
					<path class="st14" d="M313.1,374.7l-49-53.9c-5-5.5-13.5-5.9-19-1L235,329c-5.5,5-5.9,13.5-0.9,19l7.1,7.8
						c-3.9-4.2-10.4-4.5-14.6-0.7l-7.7,7c-4.2,3.9-4.6,10.4-0.7,14.6l42.2,46.5l4.6,5c3.9,4.2,10.4,4.5,14.6,0.7l7.8-7
						c4.2-3.9,4.5-10.4,0.7-14.6l7.1,7.8c5,5.5,13.5,5.9,19,0.9l10.1-9.2c5.5-5,5.9-13.5,0.9-19L313.1,374.7z"/>
					<path class="st14" d="M431.7,276.9l-5.7-6.3l-41.1-45.3c-3.9-4.2-10.4-4.5-14.6-0.7l-7.7,7c-4.2,3.9-4.6,10.4-0.7,14.6
						l-7.1-7.8c-5-5.5-13.5-5.9-19-0.9l-10.1,9.1c-5.5,5-5.9,13.5-0.9,19.1l48.6,53.5l12.4,13.7c5,5.5,13.5,5.9,19,0.9l10.1-9.1
						c5.5-5,5.9-13.5,0.9-19.1l-6.3-6.9c3.9,3.4,9.9,3.4,13.8-0.2l7.8-7C435.2,287.7,435.5,281.2,431.7,276.9z"/>
				</g>
				<g>
					<path class="st15" d="M325.2,387.9c5,5.5,4.6,14-0.9,19l-10.1,9.2c-5.5,5-14,4.6-19-0.9l-7.1-7.8c3.9,4.2,3.5,10.8-0.7,14.6
						l-7.8,7c-4.2,3.9-10.8,3.6-14.6-0.7l-4.6-5l22.9-21.1l29.9-27.5L325.2,387.9z"/>
				</g>
				<g>
					<path class="st15" d="M431,291.5l-7.8,7c-3.9,3.6-9.9,3.6-13.8,0.2l6.3,6.9c5,5.5,4.6,14.1-0.9,19.1l-10.1,9.1
						c-5.5,5-14,4.6-19-0.9l-12.4-13.7l29.8-27.5l0,0l22.9-21.1l5.7,6.3C435.5,281.2,435.2,287.7,431,291.5z"/>
				</g>
				<g>
					<path class="st1" d="M305.1,422.1c-0.3,0-0.5,0-0.8,0c-4.2-0.2-8.1-2.1-11-5.2l-61-67.2c-2.9-3.1-4.3-7.2-4.1-11.4
						c0.2-4.2,2-8.1,5.2-11l10.1-9.2c6.5-5.9,16.6-5.4,22.4,1.1l61,67.2c2.9,3.1,4.3,7.2,4.1,11.4c-0.2,4.2-2.1,8.1-5.2,11
						l-10.1,9.2C312.8,420.6,309.1,422.1,305.1,422.1z M254.2,318.7c-2.7,0-5.3,0.9-7.4,2.9l-10.1,9.2c-2.2,2-3.5,4.7-3.6,7.7
						c-0.1,3,0.9,5.8,2.9,8l61,67.2c2,2.2,4.7,3.5,7.7,3.6c2.9,0.2,5.8-0.9,8-2.9l10.1-9.2c2.2-2,3.5-4.7,3.6-7.7
						c0.1-3-0.9-5.8-2.9-8l-61-67.2C260.2,320,257.2,318.7,254.2,318.7z"/>
				</g>
				<g>
					<path class="st1" d="M272.6,434.1c-0.2,0-0.4,0-0.6,0c-3.4-0.2-6.5-1.6-8.8-4.2l-46.8-51.5c-4.7-5.2-4.3-13.3,0.9-18l7.7-7
						c2.5-2.3,5.8-3.5,9.2-3.3c3.4,0.2,6.5,1.6,8.8,4.2l46.8,51.5c4.7,5.2,4.3,13.3-0.9,18l-7.7,7
						C278.8,433,275.8,434.1,272.6,434.1z M233.6,354.9c-2,0-3.9,0.7-5.3,2.1l-7.7,7c-3.2,2.9-3.5,8-0.5,11.2l46.8,51.5
						c1.4,1.6,3.4,2.5,5.5,2.6c2.2,0.2,4.2-0.6,5.7-2.1l7.7-7c3.2-2.9,3.5-8,0.5-11.2l-46.8-51.5c-1.4-1.6-3.4-2.5-5.5-2.6
						C233.8,354.9,233.7,354.9,233.6,354.9z"/>
				</g>
				<g>
					<path class="st1" d="M395.7,339.8c-0.3,0-0.5,0-0.8,0c-4.2-0.2-8.1-2.1-11-5.2l-61-67.2c-2.9-3.1-4.3-7.2-4.1-11.4
						c0.2-4.2,2-8.1,5.2-11l10.1-9.2c3.1-2.9,7.2-4.3,11.4-4.1c4.2,0.2,8.1,2,11,5.2l61,67.2c2.9,3.1,4.3,7.2,4.1,11.4
						c-0.2,4.2-2.1,8.1-5.2,11l-10.1,9.2C403.4,338.4,399.6,339.8,395.7,339.8z M344.8,236.5c-2.8,0-5.4,1-7.4,2.9l-10.1,9.2
						c-2.2,2-3.5,4.7-3.6,7.7c-0.1,3,0.9,5.8,2.9,8l61,67.2c2,2.2,4.7,3.5,7.7,3.6c2.9,0.1,5.8-0.9,8-2.9l10.1-9.2
						c2.2-2,3.5-4.7,3.6-7.7c0.1-3-0.9-5.8-2.9-8l-61-67.2c-2-2.2-4.7-3.5-7.7-3.6C345.1,236.5,344.9,236.5,344.8,236.5z"/>
				</g>
				<g>
					<path class="st1" d="M416.3,303.7c-3.5,0-6.9-1.4-9.5-4.2L360.1,248c-2.3-2.5-3.5-5.8-3.3-9.2c0.2-3.4,1.6-6.5,4.2-8.8l7.7-7
						c5.2-4.7,13.3-4.3,18,0.9l46.8,51.5c2.3,2.5,3.5,5.8,3.3,9.2c-0.2,3.4-1.6,6.5-4.2,8.8l-7.7,7
						C422.4,302.6,419.4,303.7,416.3,303.7z M377.3,224.4c-1.9,0-3.8,0.7-5.3,2.1l-7.7,7c-1.6,1.4-2.5,3.4-2.6,5.5
						c-0.1,2.1,0.6,4.1,2.1,5.7l46.8,51.5c2.9,3.2,8,3.5,11.2,0.5l7.7-7c1.6-1.4,2.5-3.4,2.6-5.5c0.1-2.1-0.6-4.1-2.1-5.7L383.1,227
						C381.6,225.3,379.4,224.4,377.3,224.4z"/>
				</g>
			</g>
			<g>
				<g>
					<path class="st10" d="M255,332.5c2.7,3,5.4,6,8.2,9c2.2,2.4,5.8-1.2,3.6-3.6c-2.7-3-5.4-6-8.2-9
						C256.4,326.5,252.9,330.1,255,332.5L255,332.5z"/>
				</g>
			</g>
			<g>
				<g>
					<path class="st10" d="M271.1,348.5c3.3,0,3.3-5.1,0-5.1C267.9,343.4,267.9,348.5,271.1,348.5L271.1,348.5z"/>
				</g>
			</g>
		</g>
		<g>
			<g>
				<path class="st10" d="M182.6,293.7c0.7-5.4,2.4-10.5,4.9-15.3c1.5-2.9-2.8-5.4-4.4-2.6c-3,5.6-4.8,11.5-5.6,17.8
					C177.1,296.9,182.2,296.9,182.6,293.7L182.6,293.7z"/>
			</g>
		</g>
		<g>
			<g>
				<path class="st10" d="M193.4,270.2c0.2-0.4,0.5-0.8,0.7-1.2c1.7-2.8-2.7-5.3-4.4-2.6c-0.2,0.4-0.5,0.8-0.7,1.2
					C187.4,270.4,191.8,273,193.4,270.2L193.4,270.2z"/>
			</g>
		</g>
	</g>
</g>
<g id="color-Gaming_1_">
</g>
<g id="color-Sewing_1_">
</g>
<g id="color-Baking_1_">
</g>
<g id="color-Gardening_1_">
</g>
<g id="color-Hiking_1_">
</g>
<g id="color-Painting_1_">
</g>
<g id="color-Riding_1_">
</g>
<g id="color-Fishing_1_">
</g>
<g id="color-Knitting_1_">
</g>
</svg>
