<?xml version="1.0" encoding="UTF-8"?>
<svg id="Layer_1" data-name="Layer 1" xmlns="http://www.w3.org/2000/svg" viewBox="0 0 2966.13 2860.34">
  <defs>
    <style>
      .cls-1 {
        fill: #c4015e;
      }

      .cls-2 {
        fill: #4fd2fe;
      }

      .cls-3 {
        fill: #fff;
      }

      .cls-4 {
        fill: #d8d8d8;
      }

      .cls-5 {
        fill: #3793d4;
      }

      .cls-6 {
        opacity: .5;
      }

      .cls-7 {
        fill: #e58025;
      }

      .cls-8 {
        fill: #ff004b;
      }

      .cls-9 {
        fill: #fbfdff;
      }

      .cls-10 {
        opacity: .2;
      }

      .cls-11 {
        fill: #1a1853;
      }

      .cls-12 {
        fill: #f79d41;
      }

      .cls-13 {
        opacity: .4;
      }

      .cls-14 {
        fill: #220f2d;
      }

      .cls-15 {
        fill: #928e8f;
      }

      .cls-16 {
        fill: #371a45;
      }

      .cls-17 {
        fill: #776f71;
      }
    </style>
  </defs>
  <g class="cls-10">
    <ellipse class="cls-16" cx="1240.92" cy="2700.29" rx="1128.25" ry="160.05"/>
  </g>
  <path class="cls-9" d="m882.25,1803.37s71.6-65.37,177.96-94.07c106.36-28.7,353.32-62.93,275.42,47.04,0,0,31.84,25.55,25.08,89.71l.94,99.6s-176.52,75.97-186.64,81.03c-10.13,5.07-197.52,40.52-197.52,40.52,0,0-109.05,87.65-166.85,66.5-57.8-21.15-80.36-238.26-56.39-257.99,23.97-19.74,30.45-31.89,128.01-72.34Z"/>
  <path class="cls-16" d="m830.59,2153.48c-9.01,0-17.65-1.29-25.64-4.22-41.96-15.35-61.31-94.26-69.11-139.93-2.14-12.55-20.14-123.34,7.87-146.41,3.01-2.48,5.73-4.83,8.4-7.13,19.37-16.74,36.12-31.22,121.24-66.65,13.39-11.65,82.81-68.92,182.55-95.83,2.55-.69,255.82-66.74,303.54,1.67,11.38,16.32,10.33,36.39-3.11,59.77,10.87,14.68,25.77,44.18,20.96,92.07l1.04,109.69-10.12,4.36c-70.78,30.46-178.67,77.08-185.79,80.63-9.92,4.97-112.11,24.99-197.85,41.22-18.85,14.7-94.62,70.76-153.98,70.76Zm-64.94-265.7c-8.63,15.76-5.76,108.22,18.13,178.28,14.52,42.6,28.59,50.64,32.55,52.09,35.63,13.02,111.4-32.25,150.79-63.86l3.22-2.59,4.07-.77c68.47-12.95,181-34.98,193.82-39.37,13.26-6.31,137.54-59.88,176.76-76.77l-.84-89.53.1-.94c5.61-53.26-18.17-74.36-19.18-75.23l-12.16-9.77,9.22-12.56c6.22-8.77,15.8-24.71,10.14-32.82-20.13-28.86-160.44-17.59-267.73,11.35-101.3,27.33-170.41,89.69-171.1,90.31l-2.14,1.96-2.69,1.11c-82.42,34.17-97.44,47.15-114.83,62.18-2.6,2.25-5.24,4.53-8.12,6.92Zm402.29,123.92l-.34.17.34-.17Zm-402.01-124.41,116.32-83.92h.05-.05Z"/>
  <g>
    <polygon class="cls-9" points="1458.97 2705.73 1325.55 2705.73 1299.27 2491.33 1465.14 2514.12 1458.97 2705.73"/>
    <path class="cls-16" d="m1461.65,2708.49h-138.54l-27.01-220.38,171.89,23.61-6.34,196.77Zm-133.66-5.52h128.31l6.01-186.46-159.85-21.96,25.54,208.42Z"/>
  </g>
  <path class="cls-11" d="m1452.45,2722.3h-141.56l-30.67-250.31,201.96,27.75-6.44,200.01c-.41,12.64-10.63,22.55-23.29,22.55Zm-112.25-33.13h102.72l5.18-160.66-129.78-17.83,21.88,178.49Z"/>
  <path class="cls-9" d="m328.96,1680.7l-158.13,36.27c-33.6,7.71-60.81,32.23-71.87,64.88-62.46,184.41-232.23,788.02,229.99,767.09,545.31-24.69,98.2-853.31,98.2-853.31l-98.2-14.93Z"/>
  <path class="cls-4" d="m367.45,1732.1l-95.92,37.93c-45.86,18.13-80.53,56.83-93.34,104.45-51.65,192.02-151.6,663.54,152.14,658.63l62.8-744.92,11.65-32.01-37.33-24.08Z"/>
  <path class="cls-16" d="m306.06,2566.03c-107.03,0-187.3-34.67-238.86-103.23-134.63-179.05-33.61-539.58,16.08-686.26,12.99-38.34,44.34-66.65,83.86-75.71l161.2-36.97,109.48,16.64,3.93,7.27c11.15,20.66,271.51,508.86,135.25,749.42-45.18,79.76-128.37,122.92-247.29,128.31-8.02.37-15.91.55-23.65.55Zm23.53-868.48l-155.05,35.57c-28.22,6.47-50.61,26.67-59.88,54.04-21.38,63.12-59.53,188.32-74.83,317.55-18.09,152.8.03,266.58,53.86,338.17,48.32,64.25,127.18,94.36,234.54,89.5,106.75-4.83,180.75-42.35,219.94-111.52,118.76-209.62-99.82-648.33-131.78-710.13l-86.79-13.19Z"/>
  <path class="cls-9" d="m1094.34,2174.79s17.96-8.44,46.66-8.44,65.84,52.33,65.84,52.33c0,0,5.06,70.9-22.79,77.66-27.86,6.75-80.19,8.44-117.33-6.75-37.14-15.2-43.89-45.58-32.08-70.9s59.69-43.89,59.69-43.89Z"/>
  <path class="cls-16" d="m1135.93,2317.88c-24.58,0-51.99-3.36-75.47-12.96-27.1-11.08-38.58-28.24-43.45-40.67-6.44-16.46-5.51-35.14,2.63-52.57,13.89-29.77,60.92-49.27,68.26-52.16,4.07-1.81,23.55-9.74,53.11-9.74,35.46,0,72.32,49.41,79.35,59.31l2.68,3.78.33,4.62c1.42,19.91,3.07,85.61-35.42,94.94-12.6,3.06-31.3,5.44-52.03,5.44Zm-35.6-127.65c-17.33,6.77-44.5,22.24-50.67,35.46-4.26,9.14-4.9,18.55-1.8,26.49,3.59,9.18,12.29,16.82,25.14,22.08,33.84,13.84,83.03,11.83,107.15,5.99,5.31-1.29,11.69-26.26,10.43-55.71-14.04-18.54-37.34-41.61-49.58-41.61-24.17,0-39.57,6.84-39.73,6.91l-.93.4s0,0-.01,0h0Zm-5.99-15.44h.05-.05Z"/>
  <path class="cls-9" d="m1338.52,2265.95s48.96-38.83,139.28-11.82l-27.88,433.89c-.69,10.72-13.29,16.09-21.5,9.16l-102.88-86.84,12.98-344.39Z"/>
  <path class="cls-16" d="m1436.82,2716.86c-6.86,0-13.61-2.4-19.08-7.02l-109.05-92.05,13.57-360.08,5.97-4.74c2.27-1.81,56.83-43.88,154.32-14.71l12.63,3.77-28.73,447.05c-.72,11.24-7.61,20.96-17.97,25.37-3.77,1.61-7.74,2.4-11.67,2.4Zm-94.41-113.96l91.43,77.18,26.57-413.48c-56.45-13.5-92.15,1.12-105.64,8.61l-12.35,327.69Z"/>
  <path class="cls-9" d="m1592.4,2479.93c0,124.71-59.74,225.8-133.43,225.8s-133.42-101.1-133.42-225.8,59.74-225.8,133.42-225.8,133.43,101.1,133.43,225.8Z"/>
  <path class="cls-4" d="m1581.87,2479.93c0,106.99-40.34,193.72-90.1,193.72s-90.1-86.74-90.1-193.72,40.34-193.72,90.1-193.72,90.1,86.74,90.1,193.72Z"/>
  <path class="cls-16" d="m1462.7,2722.3c-82.02,0-146.26-106.46-146.26-242.37s64.25-242.36,146.26-242.36,146.26,106.46,146.26,242.36-64.25,242.37-146.26,242.37Zm0-451.6c-61.32,0-113.13,95.82-113.13,209.23s51.81,209.23,113.13,209.23,113.13-95.82,113.13-209.23-51.81-209.23-113.13-209.23Z"/>
  <path class="cls-9" d="m1055.75,2033.83s61.86,82.37,31.06,198.65c-30.81,116.28-68.49,193.1-88.79,197.44-20.29,4.35-152.19-1.45-185.53-27.54-33.34-26.09-89.86-68.12-62.33-166.69,27.54-98.56,60.88-159.86,59.43-169.8-1.45-9.93,59.43-33.12,75.37-36.02,15.95-2.9,101.46,26.09,101.46,26.09l69.33-22.14Z"/>
  <path class="cls-16" d="m973.86,2447.74c-48.73,0-140.97-8.35-171.58-32.32l-1.77-1.38c-33.67-26.31-96.34-75.29-66.3-182.81,16.85-60.3,35.49-106.04,47.83-136.29,4.89-11.99,9.94-24.38,10.95-28.68-.79-14.91,14.62-24.68,41.16-36.21,17.54-7.62,38.11-14.71,47.85-16.48,16.66-3.02,70.54,13.57,104.56,24.96l75.37-24.07,7.07,9.41c2.72,3.62,66.31,90.2,33.82,212.84-8.8,33.23-55.07,199.49-101.33,209.39-4.84,1.04-14.71,1.63-27.62,1.63Zm-148.12-376.27c-1.29,7.21-5.36,17.19-13.02,35.99-12.05,29.56-30.26,74.23-46.61,132.7-24.07,86.15,21.51,121.78,54.79,147.79l1.79,1.39c26.5,20.75,149.92,28.32,171.16,24.52,11.69-6.94,45.63-67.48,76.94-185.62,22.43-84.68-8.29-150.77-22.15-174.75l-62.37,19.92-5.17-1.75c-37.43-12.69-83.78-25.79-93.5-25.42-13.47,2.58-50.98,17.65-61.86,25.23Zm167.75,342.59h0Z"/>
  <polygon class="cls-9" points="913.34 2330.88 913.34 2254.13 857.39 2218.68 857.39 2065.9 783.95 2065.9 791.55 2316.05 864.98 2350.36 913.34 2330.88"/>
  <path class="cls-16" d="m864.49,2368.42l-89.19-41.67-8.42-277.41h107.08v160.23l31.21,19.77c15.49,9.81,24.75,26.63,24.75,44.98v67.75l-65.42,26.35Zm-56.69-63.06l57.67,26.94,31.3-12.61v-45.38c0-6.93-3.49-13.28-9.34-16.99l-46.61-29.53v-145.33h-39.79l6.77,222.89Zm105.54,25.52h.05-.05Z"/>
  <path class="cls-9" d="m299.35,2065.9s-102.87,374.17,52.22,506.07c155.09,131.9,505.82,115.95,505.82,115.95h283.62v-449.19s-144.9-37.82-167.13,114.37c0,0-80.21-43.48-197.62-34.79,0,0-57.98-317.99-65.23-322.06s-115.95,29.27-136.24,32.17c-20.29,2.9-278.38,28.56-275.44,37.47Z"/>
  <path class="cls-4" d="m857.39,2592.69h84.42c40.35,0,73.28-32.42,73.69-72.77.99-95.24,18.99-251.78,125.34-265.79,0,0-39,48.58-44.76,61.92-5.76,13.34-29.67,132.21-29.67,132.21l18.62,133.38,55.81,82.72.16,21.95-283.62,1.61v-95.23Z"/>
  <path class="cls-4" d="m338.85,2102.66s-57.15,482.37,321.01,463.8v113.06s-334.94.93-379.22-231.3c-44.28-232.23,14.75-366.64,14.75-366.64l43.46,21.08Z"/>
  <path class="cls-9" d="m1053.22,2471.03s-3.6,124.49,24.25,185.26c0,0-589.8,49.44-734.14-140.9-100.39-132.39-53.18-362.12-53.18-362.12,0,0-53.55,206.38-24.24,282.35,29.31,75.97,161.48,282.97,647.44,252.91l227.61-9.01-13.88-29.92-73.86-178.57Z"/>
  <path class="cls-16" d="m818.75,2705.19c-97.47,0-349.25-11.18-477.91-120.61-153.25-130.33-71.04-471.13-58.77-518.17l-.93-2.82,4.36-7.13c6.34-9.86,8.97-13.94,246.66-39.89,20.23-2.21,36.22-3.95,40.29-4.53,7.04-1.01,29.86-7.18,51.93-13.14,78.22-21.15,86.03-21.96,94.77-17.08,8.86,4.97,11.24,6.31,43.49,173.87,11.39,59.19,22.4,118.68,27.29,145.26,80.05-3.13,142,16.53,171.67,28.45,9.81-40.34,29.68-70.34,59.19-89.28,54.63-35.07,121.59-18.15,124.41-17.42l12.38,3.23v478.55h-299.82c-3.5.15-17.5.69-39,.7Zm-505.38-627.34c-13.17,52.93-84.59,367.94,48.93,481.5,148.4,126.21,490.89,112.19,494.33,112.03l.75-.02h267.05v-418.78c-18.87-2.47-55.82-3.91-85.95,15.55-24.67,15.92-40.56,43.27-47.24,81.26-1.18,6.7-5.3,12.32-11.3,15.45-5.95,3.1-12.87,3.23-18.95.39-19.04-8.91-88.54-37.4-183.52-30.39l-14.85,1.1-2.67-14.65c-18.69-102.49-49.38-264.24-60.39-307.38-16.02,3.3-46.59,11.56-66.55,16.96-29.05,7.86-47.29,12.73-55.89,13.96-4.61.66-19.24,2.26-41.38,4.67-53.58,5.85-189.62,20.7-222.37,28.35Z"/>
  <ellipse class="cls-9" cx="1199.58" cy="2462.57" rx="133.42" ry="232.12"/>
  <ellipse class="cls-4" cx="1221.35" cy="2462.57" rx="111.65" ry="232.12"/>
  <path class="cls-16" d="m1199.57,2711.26c-84.11,0-149.99-109.24-149.99-248.69s65.88-248.68,149.99-248.68,150,109.23,150,248.68-65.89,248.69-150,248.69Zm0-464.23c-63.34,0-116.86,98.71-116.86,215.55s53.51,215.55,116.86,215.55,116.86-98.71,116.86-215.55-53.52-215.55-116.86-215.55Z"/>
  <polygon class="cls-9" points="558.06 2115.09 558.06 2333.33 659.87 2320.44 659.87 2065.9 573.77 2092.49 558.06 2115.09"/>
  <polygon class="cls-4" points="596.22 2115.09 596.22 2333.33 659.87 2320.44 659.87 2065.9 606.04 2092.49 596.22 2115.09"/>
  <path class="cls-16" d="m541.49,2352.13v-242.23l21.93-31.56,113.01-34.89v291.59l-134.94,17.09Zm33.13-231.85v194.26l68.67-8.7v-217.49l-59.19,18.28-9.48,13.65Z"/>
  <path class="cls-16" d="m513.09,2369.39c28.57-36.82,82.51-52.62,126.19-62.19,45.33-9.03,92.51-9.59,138.4-5.38,21.25,2.14,19.53,33.35-1.9,33.05-37.95-2.25-76.76-2.72-114.55,2.24-36.76,5.3-73.51,14.58-106.18,32.22-8.86,4.31-19.91,10.53-28.6,15.25-9.54,5.31-19.83-6.46-13.37-15.18h0Z"/>
  <path class="cls-9" d="m418.82,1736.86s-172.52,99.8-137.28,281.66c35.24,181.86,303.11,73.31,303.11,73.31l16.92-354.97h-182.75Z"/>
  <path class="cls-4" d="m277.31,1985.79s137.77,160.3,382.56-32.15v101.29l-79.01,50.21-60.27,19.58-52-9.64s-183.86,46.36-191.28-129.3Z"/>
  <path class="cls-9" d="m302.18,1989.93s-1.45,125.82,166.41,105.64v29.15s-95.02-6.28-104.36-9.64c-9.34-3.36-70.91-49.19-72.17-52.35-1.27-3.17-15.25-58.24-15.25-58.24l25.38-14.56Z"/>
  <path class="cls-16" d="m427.62,2140.54c-33.09,0-66.3-5.43-94.37-20.66-36.29-19.69-59.16-52.73-67.97-98.21-37.06-191.24,143.42-298.1,145.24-299.16l3.85-2.23h204.57l-18.25,382.91-9.82,3.98c-4.64,1.88-83.58,33.35-163.25,33.35Zm-4.15-387.11c-24.52,15.45-155.82,106.31-125.66,261.95,6.93,35.76,23.68,60.41,51.2,75.36,69.52,37.76,185.36,1.53,219.61-10.61l15.57-326.7h-160.73Z"/>
  <g>
    <path class="cls-3" d="m1284.06,1015.27l12.38,445.2,96.65-4.81c43.87,4.49,87.18-83.91,96.79-197.28,9.56-113.45-18.14-209.03-62.02-213.46l-143.8-29.64Z"/>
    <path class="cls-4" d="m1284.07,1015.27l12.37,445.21,96.67-4.81c40.11,4.09,79.85-69.69,93.69-169.24-9.58,7.87-19.61,11.68-29.62,10.68l-96.67,4.81-7.56-272.48-68.87-14.17Z"/>
    <path class="cls-16" d="m1296.44,1481.99c-5.41,0-10.63-2.04-14.62-5.72-4.25-3.94-6.74-9.41-6.9-15.2l-12.38-445.2c-.18-6.57,2.65-12.87,7.69-17.09,5.04-4.22,11.72-5.91,18.17-4.59l142.85,29.45c64.99,7.97,89.51,124.66,80.08,236.55-7.72,91.03-37.04,170-74.7,201.2-17.08,14.16-33.04,16.56-43.89,15.84l-95.24,4.74c-.36.02-.71.02-1.07.02Zm9.89-440.15l11.02,396.04,74.68-3.72c1.09-.06,2.18-.02,3.26.08,4.91.54,10.24-2.99,13.88-6,23.16-19.19,51.58-81.11,59.27-171.68,9.34-110.82-19.54-187.89-42.73-190.23-.74-.07-1.46-.19-2.19-.33l-117.19-24.16Z"/>
    <circle class="cls-3" cx="767.42" cy="1190.56" r="649.65"/>
    <path class="cls-4" d="m125.27,1289.7c42.48,276.24,261.42,503.74,552.45,544.3,355.35,49.53,683.59-198.41,733.12-553.76,19.34-138.77-6.65-273.41-66.7-388.87-99.56,312.85-541.19,505.01-1034.99,436.18-63.45-8.84-124.95-21.62-183.87-37.85Z"/>
    <path class="cls-16" d="m768.82,1860.84c-31.16,0-62.5-2.16-93.91-6.54-365.99-51.02-622.24-390.27-571.24-756.25,51.01-365.99,390.28-622.23,756.25-571.24,177.29,24.71,334.35,116.98,442.25,259.82,107.89,142.84,153.7,319.14,128.99,496.43-24.71,177.29-116.98,334.35-259.82,442.24-117.53,88.78-257.76,135.53-402.52,135.53Zm-2.71-1299.54c-135.91,0-267.53,43.88-377.89,127.24-134.1,101.29-220.72,248.74-243.92,415.18-47.89,343.59,192.69,662.08,536.27,709.97,166.44,23.22,331.95-19.81,466.04-121.1,134.1-101.29,220.72-248.74,243.92-415.18,23.2-166.44-19.8-331.96-121.09-466.05-101.29-134.1-248.74-220.72-415.18-243.92-29.47-4.11-58.92-6.14-88.16-6.14Z"/>
    <path class="cls-16" d="m768.38,1856.9c-30.9,0-61.9-2.16-92.92-6.48-176.24-24.56-332.37-116.29-439.64-258.3-107.27-142.01-152.81-317.28-128.25-493.52,24.57-176.26,116.3-332.4,258.31-439.66,142-107.26,317.27-152.8,493.51-128.23,163.37,22.77,311.75,104.77,417.81,230.91,121.4,144.32,176.1,334.18,150.08,520.9-.49,3.54-1.04,7.12-1.59,10.64-7.51,48.27-20.25,95.53-37.85,140.51-78.37,200.52-250.15,351.39-459.51,403.57-52.55,13.09-106.08,19.65-159.95,19.65ZM140.38,1103.18c-23.34,167.47,19.94,334.02,121.87,468.97,101.93,134.95,250.3,222.12,417.77,245.46,80.87,11.26,161.72,7.06,240.29-12.51,198.96-49.58,362.2-192.94,436.67-383.49,16.72-42.73,28.82-87.65,35.97-133.52.52-3.35,1.04-6.77,1.51-10.14,24.73-177.43-27.26-357.85-142.62-494.99-100.79-119.87-241.79-197.79-397.03-219.43-167.49-23.34-334.03,19.93-468.97,121.85-134.95,101.93-222.12,250.3-245.46,417.8h0Z"/>
    <path class="cls-16" d="m836.61,1843.32c-33.13,0-66.37-2.31-99.47-6.92-177.07-24.68-334.59-112.34-443.58-246.86-109.26-134.84-156.67-300.59-133.52-466.7,47.72-342.43,384.28-579.51,750.21-528.51,137.27,19.13,263.55,76.36,365.19,165.51.63.55,1.22,1.15,1.75,1.79,121.41,144.32,176.11,334.18,150.08,520.91-.47,3.38-.99,6.79-1.51,10.15-.21,2.13-.49,4.21-.78,6.33-6.5,46.65-19.05,92.06-37.32,135.1-78.19,200.09-249.98,350.96-459.34,403.13-.62.16-1.25.27-1.89.36-29.72,3.81-59.72,5.72-89.82,5.72Zm-25.5-1222.76c-309.51,0-577.19,212.18-618.26,506.86h0c-21.87,156.92,23.04,313.63,126.45,441.27,103.68,127.96,253.69,211.38,422.41,234.9,59.95,8.36,120.34,8.78,179.54,1.28,198.53-49.8,361.38-193.01,435.73-383.25,17.31-40.81,29.08-83.4,35.17-127.05.26-1.88.51-3.62.67-5.42.03-.34.07-.69.13-1.03.52-3.37,1.04-6.79,1.52-10.16,24.67-177.01-27.01-357-141.82-494.03-96.6-84.4-216.54-138.6-346.96-156.77-31.81-4.43-63.42-6.58-94.57-6.58Zm-634.66,504.57h.05-.05Z"/>
    <path class="cls-16" d="m240.44,1135.79c-41.92,300.77,185.13,581.03,507.11,625.91,272.93,38.04,526.51-105.26,622.9-333.01,17.37-40.93,29.64-84.57,36.03-130.38.29-2.08.57-4.1.76-6.19,38.03-298.43-188.12-575.1-507.88-619.67-321.98-44.88-617,162.57-658.92,463.34Z"/>
    <path class="cls-14" d="m240.44,1135.79c-41.92,300.77,185.13,581.03,507.11,625.91,242.16,33.75,469.07-75.24,584.47-259.37-132.55,106.19-312.32,159.78-500.62,133.54-333.47-46.48-572.85-326.39-552.64-635.76-18.61,42.45-31.65,87.9-38.31,135.69Z"/>
    <g>
      <path class="cls-3" d="m99.63,1075.39l-2.57,237.69-1.6,148.05,92.01,16.33,8.7,1.53c41.06.5,75.36-93.08,76.6-208.84.04-2.6.04-5.28.02-7.89-.23-112.08-32.01-202.01-72.12-202.45l-8.72,1.33-92.33,14.25Z"/>
      <path class="cls-4" d="m97.06,1313.08l-1.6,148.05,92.01,16.33,8.7,1.53c41.06.5,75.36-93.08,76.6-208.84.04-2.6.04-5.28.02-7.89l-4.19-14.27s-16.67,47.91-43.8,52.09c-28.7,4.47-41.12-56.73-41.12-56.73l-86.63,69.74Z"/>
    </g>
    <path class="cls-16" d="m196.48,1499.52h-.54c-1.13-.01-2.26-.12-3.37-.32l-100.69-17.86c-9.88-1.75-17.04-10.39-16.93-20.41l4.16-385.75c.11-10.03,7.46-18.51,17.38-20.04l101.04-15.62c1.12-.17,2.23-.25,3.37-.24,62.27.67,93.59,116.77,92.36,231.11-1.23,114.03-34.87,229.13-96.79,229.13Zm-80.33-55.53l81.4,14.44c19.23-2.63,53.46-73.53,54.7-188.49,1.25-114.92-31.45-186.52-50.62-189.56l-81.69,12.63-3.78,350.98Z"/>
    <g class="cls-6">
      <path class="cls-3" d="m607.67,874.75s279.41-45.99,467.62,75.36c.2.13.4.26.59.38,39.59,25.57,71.43,61.27,92.45,103.07,27.79,55.29,38.72,97.41,46.89,134.86,24.8,113.91,14.79,171.88,14.79,171.88,52.65-74.17,74.83-150.37,55.14-245.45-1.97-9.37-4.35-18.96-7.1-28.72-.63-2.25-1.3-4.47-2.01-6.7.05-.03.01-.08-.06-.13-7-19.39-17.17-44.53-31.05-71.93-41.81-82.68-117.09-186.11-240.04-215.39-229.89-54.75-409.33,72.89-397.22,82.76Z"/>
    </g>
    <g class="cls-6">
      <ellipse class="cls-3" cx="444.72" cy="1179.41" rx="102.22" ry="88.99" transform="translate(-781.32 1471.99) rotate(-82.76)"/>
    </g>
    <g class="cls-6">
      <ellipse class="cls-3" cx="422.89" cy="1363.85" rx="42.23" ry="36.73" transform="translate(-1000.3 1479.79) rotate(-77.43)"/>
    </g>
    <path class="cls-3" d="m30.1,1239.83s.05.07.05.13c-.62,9.02-.95,18.2-1.05,27.61-1.15,106.48,28.53,193.19,66.36,193.56,36.68.4,67.6-80.79,70.36-183.23.09-2.92.12-5.9.16-8.89,1.15-106.48-28.59-193.2-66.35-193.62-34.46-.35-63.7,71.09-69.52,164.44Z"/>
    <path class="cls-4" d="m30.15,1239.96c-.62,9.02-.95,18.2-1.05,27.61-1.15,106.48,28.53,193.19,66.36,193.56,36.68.4,67.6-80.79,70.36-183.23-18.89,35.95-57.59,98.93-88.41,77.51-17.98-12.57-35.43-68.73-47.26-115.45Z"/>
    <path class="cls-16" d="m95.73,1481.66h-.51c-58.38-.63-87.78-108.3-86.64-214.33.58-53.79,8.67-104.58,22.77-143.01,21.01-57.25,48.45-69.41,67.96-69.41.17,0,.34,0,.51,0,58.39.63,87.78,108.3,86.64,214.33-1.15,105.72-32.68,212.42-90.73,212.42Zm3.61-385.73c-5.6,0-18.02,11.3-29.48,42.53-12.53,34.15-19.73,80.08-20.25,129.31-1.23,113.72,31.73,172.72,46.06,172.88h.05c14.36,0,48.5-58.27,49.73-171.84,1.23-113.72-31.73-172.72-46.06-172.87h-.04Z"/>
  </g>
  <path class="cls-9" d="m564.63,1791.1s71.6-65.37,177.96-94.07c106.36-28.7,353.32-62.93,275.42,47.04,0,0,31.83,25.55,25.08,89.71l.94,99.6s-176.52,75.97-186.64,81.03c-10.13,5.07-197.52,40.52-197.52,40.52,0,0-109.05,87.65-166.85,66.5-57.8-21.15-80.36-238.26-56.39-257.99,23.97-19.74,30.45-31.89,128.01-72.34Z"/>
  <path class="cls-4" d="m659.87,1953.63c-84.01,66.05-155.41,90.55-212.97,94.24,9.93,33.06,23.47,60.29,40.3,70.66l31.94,5.92c1-.07,2.01-.14,3.02-.24l58.69-19.07s0,0,0,0l79.01-50.21v-101.29Z"/>
  <path class="cls-9" d="m653.11,2029.68s-97.9,66.19-143.31,64.2c-1.9-.08-3.73-.36-5.59-.8-12.06-2.81-49.75-16.67-57.31-80.99l10.24,64.48s25.49,50.73,49.96,47.88c24.47-2.84,92.59-25.63,92.59-25.63l53.43-47.06v-22.09Z"/>
  <path class="cls-16" d="m512.96,2141.21c-9.01,0-17.64-1.29-25.64-4.22-41.97-15.36-61.31-94.3-69.11-139.99-2.14-12.55-20.12-123.3,7.88-146.35,3-2.47,5.72-4.82,8.38-7.13,19.37-16.74,36.12-31.22,121.24-66.66,13.39-11.65,82.81-68.92,182.55-95.83,2.55-.68,255.82-66.76,303.53,1.67,11.39,16.32,10.33,36.39-3.1,59.77,10.87,14.68,25.76,44.18,20.96,92.06l1.04,109.69-10.12,4.36c-70.78,30.46-178.66,77.07-185.78,80.63-9.92,4.97-112.11,24.99-197.85,41.22-18.85,14.7-94.62,70.77-153.98,70.77Zm-64.94-265.71c-8.63,15.75-5.76,108.2,18.12,178.26,14.53,42.62,28.59,50.67,32.56,52.12,35.64,13.03,111.4-32.26,150.79-63.87l3.22-2.59,4.07-.77c68.47-12.95,181-34.98,193.82-39.37,13.26-6.31,137.54-59.88,176.75-76.77l-.84-89.54.1-.94c5.6-53.26-18.17-74.35-19.18-75.22l-12.16-9.77,9.22-12.56c6.22-8.77,15.8-24.71,10.14-32.82-20.13-28.86-160.44-17.6-267.72,11.35-100.92,27.23-170.43,89.69-171.12,90.32l-2.13,1.94-2.68,1.12c-82.42,34.17-97.44,47.16-114.83,62.19-2.6,2.24-5.24,4.53-8.12,6.91Zm402.29,123.92c-.13.06-.24.12-.35.17.1-.05.21-.11.35-.17Zm-285.69-208.33h.05-.05Z"/>
  <path class="cls-15" d="m2187.04,1734.15c-1.67,11.65-11.64,20.28-23.41,20.28h-1076.78c-11.84,0-21.85-8.72-23.43-20.45-4.43-32.81-10.19-118.27-10.19-340.82,0-361.28,15.19-361.28,15.19-361.28,0,0,0-30.39,556.69-30.39s556.68,30.39,556.68,30.39c0,0,16.04,0,16.04,361.28,0,222.94-6.11,308.31-10.78,340.99Z"/>
  <g class="cls-13">
    <path class="cls-3" d="m2181.78,1031.87s0-30.39-556.68-30.39-556.69,30.39-556.69,30.39c0,0-2.33,0-5.17,21.71,52.09-8.8,184.8-20.02,523.02-20.02,556.68,0,556.68,30.39,556.68,30.39,0,0,16.04,0,16.04,361.28,0,200.17-4.92,289.39-9.31,329.2h13.95c11.77,0,21.74-8.63,23.41-20.28,4.68-32.69,10.78-118.05,10.78-340.99,0-361.28-16.04-361.28-16.04-361.28Z"/>
  </g>
  <path class="cls-17" d="m1086.98,1401.59c0,217.36,5.59,300.81,9.89,332.86,1.54,11.45,11.25,19.98,22.73,19.98h1028.65l29.88-4.93s.02-.01.02-.02c-860.62,2.43-1076.43-700.72-1076.43-700.72,0,0-14.74,0-14.74,352.84Z"/>
  <path class="cls-16" d="m2163.62,1770.99h-1076.78c-20.04,0-37.17-14.96-39.85-34.8-4.72-34.97-10.35-122.86-10.35-343.04,0-150.29,2.58-257.11,7.66-317.5,2.16-25.62,4.09-41.92,8.8-51.03,4.54-11.04,23.07-17.85,83.09-24.4,92.94-10.15,257.43-15.29,488.9-15.29s395.96,5.14,488.9,15.29c60.01,6.55,78.54,13.36,83.09,24.4,4.91,9.22,6.98,25.66,9.22,50.95,5.37,60.42,8.09,167.27,8.09,317.58,0,220.51-5.96,308.42-10.96,343.34h0c-2.82,19.67-19.93,34.5-39.81,34.5Zm-1082.93-722.55c-3.63,22.08-10.91,97.23-10.91,344.71,0,218.34,5.46,304.65,10.04,338.61.47,3.48,3.49,6.1,7.02,6.1h1076.78c3.56,0,6.51-2.54,7.02-6.06h0c4.84-33.85,10.62-120.09,10.62-338.65,0-248.24-7.72-322.98-11.53-344.71h-4.51v-6.49c-22.83-6.55-122.71-23.89-540.12-23.89s-517.29,17.34-540.12,23.89v6.49h-4.29Zm1106.34,685.71h.05-.05Z"/>
  <path class="cls-15" d="m2109.47,1737.01c-1.39,10.01-9.71,17.42-19.54,17.42h-898.91c-9.88,0-18.24-7.49-19.56-17.56-3.7-28.18-8.51-101.57-8.51-292.68,0-310.24,12.68-310.24,12.68-310.24,0,0,0-26.1,464.73-26.1s464.72,26.1,464.72,26.1c0,0,13.39,0,13.39,310.24,0,191.45-5.1,264.76-9,292.83Z"/>
  <path class="cls-17" d="m2012.12,1716.12c-461.56-21.93-701.22-295.04-813.2-486.31-1.56,43.13-2.71,106.89-2.71,201.26,0,179.43,4.17,248.33,7.37,274.79,1.14,9.46,8.39,16.49,16.95,16.49h779.01c4.96,0,9.44-2.41,12.58-6.23Z"/>
  <path class="cls-16" d="m2089.93,1770.99h-898.91c-18.12,0-33.59-13.75-35.99-31.97-3.95-30.1-8.65-105.68-8.65-294.84,0-129.11,2.15-220.9,6.4-272.81,1.67-20.36,2.93-35.84,7.75-44.9,5.07-11.27,24.25-16.75,71.34-22.04,77.71-8.73,215.14-13.15,408.49-13.15s330.78,4.42,408.48,13.15c46.92,5.27,66.13,10.73,71.29,21.92,4.73,8.76,6.33,23.85,8.15,44.95,4.48,51.94,6.76,143.75,6.76,272.89,0,189.43-4.99,265.04-9.17,295.11h0c-2.51,18.07-17.96,31.7-35.95,31.7Zm-901.65-620.49c-3.06,21-8.77,87.76-8.77,293.68,0,187.38,4.55,261.42,8.37,290.53.23,1.79,1.59,3.14,3.14,3.14h898.91c1.56,0,2.88-1.31,3.13-3.13,3.3-23.77,8.84-93.12,8.84-290.55s-6.06-272.98-9.27-293.68h-4.12v-6.22c-21.48-5.74-108.86-19.88-448.15-19.88s-426.67,14.14-448.16,19.88v6.22h-3.92Zm921.19,586.5h.05-.05Z"/>
  <rect class="cls-12" x="659.87" y="1926.63" width="612.82" height="139.28"/>
  <g class="cls-13">
    <path class="cls-3" d="m727.89,1957.93h553.45v-26.59h-612.82v139.28h14.35v-67.67c0-24.86,20.15-45.02,45.02-45.02Z"/>
  </g>
  <path class="cls-16" d="m1289.25,2082.47h-645.95v-146.35c0-14.37,11.69-26.06,26.06-26.06h619.89v172.41Zm-612.82-33.13h579.68v-106.14h-579.68v106.14Z"/>
  <rect class="cls-15" x="972.02" y="1833.77" width="422.21" height="92.85"/>
  <path class="cls-16" d="m1410.8,1943.19h-455.34v-97.1c0-15.93,12.96-28.89,28.89-28.89h426.46v125.99Zm-422.21-33.13h389.07v-59.72h-389.07v59.72Z"/>
  <rect class="cls-17" x="972.02" y="1833.77" width="275.34" height="92.85"/>
  <path class="cls-16" d="m1263.93,1943.19h-308.47v-97.94c0-15.46,12.58-28.04,28.04-28.04h280.43v125.99Zm-275.34-33.13h242.2v-59.72h-242.2v59.72Z"/>
  <rect class="cls-15" x="1394.23" y="1833.77" width="496.33" height="92.85"/>
  <path class="cls-16" d="m1907.13,1943.19h-529.47v-125.99h529.47v125.99Zm-496.33-33.13h463.2v-59.72h-463.2v59.72Z"/>
  <rect class="cls-15" x="1890.57" y="1833.77" width="214.4" height="92.85"/>
  <path class="cls-16" d="m2121.54,1943.19h-247.54v-125.99h212.4c19.38,0,35.14,15.76,35.14,35.14v90.85Zm-214.4-33.13h181.27v-57.71c0-1.1-.9-2-2-2h-179.27v59.72Z"/>
  <rect class="cls-12" x="1272.68" y="1926.63" width="915.01" height="139.28"/>
  <g class="cls-13">
    <path class="cls-3" d="m1279.01,1926.63v31.02h863.52c12.59,0,22.79,10.2,22.79,22.79v85.46h28.7v-139.28h-915.01Z"/>
  </g>
  <path class="cls-7" d="m1301.38,2033.26h857.61c0-17.83-14.46-32.29-32.29-32.29h-825.32v32.29Z"/>
  <path class="cls-7" d="m689.47,2033.26h547.76v-32.29h-515.48c-17.83,0-32.29,14.46-32.29,32.29h0Z"/>
  <path class="cls-16" d="m2180.94,2082.47h-924.82v-172.41h924.82c12.86,0,23.32,10.46,23.32,23.32v125.77c0,12.86-10.46,23.32-23.32,23.32Zm-891.68-33.13h881.87v-106.14h-881.87v106.14Z"/>
  <rect class="cls-15" x="1642.4" y="1577.16" width="153.62" height="256.61"/>
  <path class="cls-16" d="m1812.59,1850.34h-186.76v-289.74h186.76v289.74Zm-153.62-33.13h120.49v-223.47h-120.49v223.47Z"/>
  <rect class="cls-15" x="1477.8" y="1289.75" width="419.1" height="287.42" rx="15.83" ry="15.83"/>
  <path class="cls-16" d="m1881.07,1593.73h-387.44c-17.86,0-32.39-14.54-32.39-32.4v-255.76c0-17.86,14.53-32.39,32.39-32.39h387.44c17.86,0,32.4,14.53,32.4,32.39v255.76c0,17.86-14.54,32.4-32.4,32.4Zm-386.7-33.13h385.96v-254.28h-385.96v254.28Zm386.7-254.28h.05-.05Z"/>
  <rect class="cls-17" x="1586.69" y="1577.16" width="76.81" height="256.61"/>
  <path class="cls-16" d="m1680.07,1850.34h-109.95v-289.74h109.95v289.74Zm-76.81-33.13h43.68v-223.47h-43.68v223.47Z"/>
  <path class="cls-17" d="m1477.8,1289.75h0v287.42c41.96,0,75.97-34.01,75.97-75.97v-135.48c0-41.96-34.01-75.97-75.97-75.97Z"/>
  <path class="cls-16" d="m1477.8,1593.73h-16.57v-320.55h16.57c51.02,0,92.53,41.51,92.53,92.53v135.48c0,51.03-41.51,92.54-92.53,92.54Zm16.57-285.07v249.58c24.72-7.19,42.83-30.05,42.83-57.06v-135.48c0-27.01-18.12-49.86-42.83-57.05Z"/>
  <polygon class="cls-12" points="791.55 2713.92 659.87 2686.31 659.87 2065.9 791.55 2065.9 791.55 2713.92"/>
  <polygon class="cls-7" points="791.55 2713.92 694.05 2686.31 694.05 2065.9 791.55 2065.9 791.55 2713.92"/>
  <path class="cls-16" d="m789.41,2729.99c-1.29,0-2.58-.13-3.87-.41l-122.42-25.67c-11.48-2.4-19.82-12.66-19.82-24.4v-630.18h164.81v661.92c0,5.67-2.53,10.98-6.93,14.55-3.37,2.73-7.52,4.18-11.77,4.18Zm2.94-32.83h.05-.05Zm-115.92-24.31l98.54,20.66v-611.05h-98.54v590.39Z"/>
  <rect class="cls-12" x="791.55" y="2065.9" width="65.84" height="648.02"/>
  <path class="cls-16" d="m848.65,2730.49h-55.12c-10.23,0-18.55-8.33-18.55-18.55v-662.6h98.97v655.85c0,13.96-11.35,25.31-25.31,25.31Zm-40.53-33.13h32.7v-614.89h-32.7v614.89Z"/>
  <rect class="cls-12" x="1706.55" y="2065.9" width="65.84" height="648.02"/>
  <path class="cls-16" d="m1762.27,2730.49h-53.52c-10.35,0-18.76-8.42-18.76-18.76v-662.39h98.97v654.47c0,14.72-11.97,26.69-26.69,26.69Zm-39.15-33.13h32.7v-614.89h-32.7v614.89Z"/>
  <rect class="cls-12" x="1272.68" y="2065.9" width="87.93" height="648.02"/>
  <path class="cls-16" d="m1345.29,2730.49h-69.99c-10.58,0-19.18-8.61-19.18-19.19v-661.97h121.06v649.27c0,17.58-14.31,31.89-31.89,31.89Zm-56.04-33.13h54.79v-614.89h-54.79v614.89Z"/>
  <polygon class="cls-12" points="1272.68 2713.92 1141 2686.31 1141 2065.9 1272.68 2065.9 1272.68 2713.92"/>
  <polygon class="cls-7" points="1272.68 2713.92 1175.63 2686.31 1175.63 2065.9 1272.68 2065.9 1272.68 2713.92"/>
  <path class="cls-16" d="m1267.72,2729.34c-1.48,0-2.97-.15-4.45-.46h0s-113.49-23.8-113.49-23.8c-14.68-3.07-25.34-16.19-25.34-31.2v-624.54h164.81v658.45c0,6.52-2.91,12.62-7.97,16.73-3.89,3.16-8.66,4.83-13.56,4.83Zm2.33-32.89h0,0Zm-112.49-23.59l98.54,20.67v-611.06h-98.54v590.39Z"/>
  <polygon class="cls-12" points="1706.55 2713.92 1574.87 2686.31 1574.87 2065.9 1706.55 2065.9 1706.55 2713.92"/>
  <polygon class="cls-7" points="1706.55 2713.92 1609.48 2686.31 1609.48 2065.9 1706.55 2065.9 1706.55 2713.92"/>
  <path class="cls-16" d="m1704.58,2730.03c-1.27,0-2.55-.13-3.82-.4h-.01s-121.23-25.42-121.23-25.42c-12.29-2.57-21.22-13.55-21.22-26.12v-628.76h164.81v662.13c0,5.61-2.5,10.86-6.86,14.4-3.35,2.72-7.47,4.17-11.68,4.17Zm-113.14-57.17l98.54,20.67v-611.06h-98.54v590.39Z"/>
  <polygon class="cls-12" points="2096.81 2713.92 1986.79 2686.31 1986.79 2065.9 2096.81 2065.9 2096.81 2713.92"/>
  <polygon class="cls-7" points="2096.81 2713.92 2020.56 2686.31 2020.56 2065.9 2096.81 2065.9 2096.81 2713.92"/>
  <path class="cls-16" d="m2091.77,2727.96c-2.18,0-4.37-.33-6.48-1l-94.02-20.81-1.38-.58c-11.94-5.01-19.66-16.62-19.66-29.57v-626.67h143.15v657.01c0,7.25-3.61,13.97-9.64,17.99-3.61,2.4-7.77,3.62-11.96,3.62Zm4.45-32.24h.05-.05Zm-92.86-20.82l76.88,17.02v-609.44h-76.88v592.43Z"/>
  <rect class="cls-12" x="2096.81" y="2065.9" width="87.51" height="648.02"/>
  <path class="cls-16" d="m2168.81,2730.49h-63.27c-13.95,0-25.3-11.35-25.3-25.31v-655.85h120.64v649.09c0,17.68-14.39,32.07-32.07,32.07Zm-55.43-33.13h54.37v-614.89h-54.37v614.89Z"/>
  <path class="cls-9" d="m275.44,2131.62c44.54,19.95,173.25,68.31,313.95,86.21,8.88,1.13,15.4,8.9,15.14,17.85l-2.43,88.3c-.3,10.13-9.08,12.96-19.16,11.99-43.93-4.22-162.96-16.65-329.03-87-7.45-3.15-12.88-9.71-14.72-17.58-4.51-19.33-9.64-57.14,7.86-90.12,5.4-10.18,17.88-14.35,28.39-9.64Z"/>
  <path class="cls-16" d="m586.49,2352.71c-1.67,0-3.38-.08-5.14-.25-40.19-3.86-162.48-15.62-333.9-88.24-12.23-5.18-21.34-16.04-24.38-29.06-5.09-21.81-10.63-64,9.36-101.66,9.45-17.8,31.34-25.28,49.79-16.99h0c52.75,23.63,177.26,68.1,309.27,84.9,17.4,2.22,30.12,17.17,29.6,34.77l-2.43,88.26c-.31,10.54-5.21,17.01-9.26,20.59-5.75,5.07-13.6,7.69-22.91,7.69Zm-320.04-206.44c-1.95,0-3.84,1.02-4.77,2.76-14.92,28.12-10.39,61.31-6.36,78.59.64,2.74,2.53,5.02,5.04,6.09,166.74,70.63,285.22,82.02,324.16,85.77.41.04.78.06,1.13.08l2.32-84.33c.01-.49-.3-.92-.67-.97-135.85-17.29-264.2-63.15-318.63-87.52-.71-.32-1.47-.47-2.23-.47Z"/>
  <path class="cls-5" d="m1035.1,2162.97c0,30.76-24.94,55.71-55.71,55.71s-55.71-24.95-55.71-55.71,24.94-55.71,55.71-55.71,55.71,24.95,55.71,55.71Z"/>
  <path class="cls-2" d="m1030.34,2162.38c0,19.79-16.04,35.83-35.83,35.83s-35.83-16.04-35.83-35.83,16.04-35.84,35.83-35.84,35.83,16.04,35.83,35.84Z"/>
  <path class="cls-16" d="m979.39,2229.73c-36.81,0-66.75-29.95-66.75-66.75s29.95-66.76,66.75-66.76,66.76,29.95,66.76,66.76-29.95,66.75-66.76,66.75Zm0-111.43c-24.63,0-44.66,20.04-44.66,44.67s20.03,44.66,44.66,44.66,44.67-20.03,44.67-44.66-20.04-44.67-44.67-44.67Z"/>
  <path class="cls-16" d="m1014.13,1760.17c-60.98-15.24-126.09-15.44-187.79-3.41-4.2.93-8.38-1.81-9.16-6.05-.73-3.9,1.68-7.67,5.42-8.74,15.93-4.52,32.04-8.73,48.44-11.52,41.13-7.53,83.29-9.43,125-5.85,8.56.84,16.59,1.69,25.84,3.37,9.01,1.64,14.99,10.28,13.35,19.29-1.7,9.68-11.72,15.79-21.11,12.92h0Z"/>
  <path class="cls-9" d="m2241.05,441.46c40.14-60.78,210.82-308.08,403.06-422.88,6.67-3.98,14.91-4.33,21.95-1.04,43.66,20.39,200.92,104.49,282.78,290.28,3.26,7.4,2.38,15.94-2.17,22.63-30.64,45.13-160.39,222.79-407.56,389.25-7.66,5.16-17.61,5.37-25.5.59-40.57-24.57-167.38-108.28-272.05-251.96-5.78-7.94-5.92-18.67-.51-26.87Z"/>
  <g class="cls-10">
    <path class="cls-16" d="m2239.17,450.01s371.62,232.61,647.59-40.89l-347.64,310.58-25.5.59-241.64-212.55-32.8-57.72Z"/>
  </g>
  <path class="cls-16" d="m2525.92,738.99c-7,0-14.01-1.87-20.22-5.63-37.77-22.88-169.34-108.94-276.49-256.03-9.46-13-9.83-30.8-.91-44.3,47.05-71.25,215.51-312.64,407.98-427.58,11.01-6.57,24.56-7.24,36.27-1.77,46.97,21.94,206.72,108.26,290.31,297.97,5.39,12.25,4.08,26.23-3.52,37.4-34.07,50.18-164.45,226.85-411.67,393.33-6.53,4.4-14.13,6.61-21.75,6.61ZM2656.03,30.6c-1.43,0-2.84.37-4.08,1.11-191.72,114.49-365.29,368.43-398.14,418.17h0c-1.92,2.91-1.88,6.7.11,9.43,103.8,142.48,231.07,225.75,267.61,247.88,2.8,1.69,6.34,1.62,9.03-.19,242.68-163.43,370.17-336.12,403.46-385.15,1.64-2.4,1.94-5.34.83-7.88-79.28-179.94-230.73-261.78-275.26-282.58-1.14-.53-2.35-.8-3.56-.8Zm-414.98,410.86h.05-.05Z"/>
  <path class="cls-16" d="m2220.66,561.45l-199.17,201.74c-7.44,7.36-18.95-3.23-11.99-11.26,0,0,188.86-211.42,188.86-211.42,14.14-14.98,36.43,5.76,22.3,20.94h0Z"/>
  <path class="cls-16" d="m2366.44,607.55l-324.54,348.84c-7.25,7.63-19.34-2.79-12.29-11.11,0,0,314.14-358.24,314.14-358.24,13.78-14.95,36.29,5.05,22.7,20.51h0Z"/>
  <path class="cls-16" d="m2421.66,767.39l-168.26,188.19c-2.72,3.04-7.38,3.3-10.42.58-2.91-2.61-3.26-7.02-.88-10.06l156.13-198.38c13.29-15.93,36.86,3.7,23.43,19.67h0Z"/>
  <path class="cls-9" d="m2644.11,18.58c-192.24,114.8-362.92,362.1-403.06,422.88-1.75,2.66-1.88,8.55-1.88,8.55l331.1-11.23c51.08-1.74,91.75-43.36,92.3-94.47l3.5-326.77c-7.04-3.29-15.28-2.94-21.95,1.04Z"/>
  <path class="cls-16" d="m2223.53,465.84l.35-16.16c.08-3.85.77-11.13,4.41-16.64,47.05-71.25,215.51-312.65,407.98-427.59h0c11.01-6.57,24.56-7.24,36.27-1.77l8.93,4.17-3.6,336.62c-.63,59.44-47.67,107.58-107.08,109.59l-347.26,11.78Zm427.08-433.32c-175.58,105.49-335.66,327.35-386.03,401.32l305.17-10.35c43.01-1.46,77.06-36.31,77.52-79.35l3.33-311.62Z"/>
  <path class="cls-16" d="m2527.94,629.06c-.08,0-.17,0-.25,0-8.45-.14-15.18-7.1-15.04-15.54l2.05-125.38c.14-8.44,7.06-15.28,15.54-15.04,8.45.14,15.18,7.1,15.04,15.54l-2.05,125.38c-.14,8.36-6.96,15.05-15.29,15.05Z"/>
  <path class="cls-16" d="m2858,325.49h-134.05c-8.45,0-15.29-6.85-15.29-15.3s6.85-15.3,15.29-15.3h134.05c8.45,0,15.29,6.85,15.29,15.3s-6.85,15.3-15.29,15.3Z"/>
  <path class="cls-8" d="m2508.35,379.69c-11.63,0-22.86-2.89-33.18-8.77-25.96-14.79-39.02-45.05-32.52-75.3,8.84-41.12,43.01-68.62,71.01-76.78,20.92-6.09,40.14-2.29,52.71,10.44,16.74,16.96,20.14,42.34,9.57,71.46-2.51,6.93-8.26,12.23-15.38,14.19-7.19,1.98-14.91.34-20.67-4.36l-3.07-2.51c-2.01,6.89-7.64,21.93-19.63,27.6-4.59,2.16-11.95,3.81-20.95-.65-5.62-2.78-9.46-7.41-11.12-13.38-3.05-11.01,1.69-26.41,14.11-45.77,2.65-4.13,6.95-6.94,11.8-7.71,4.87-.78,9.85.57,13.68,3.7l28.08,22.94c.93.75,1.88.63,2.35.5.56-.15,1.28-.53,1.63-1.48,5.47-15.08,9.06-36.02-4.92-50.18-9.77-9.9-24.55-7.5-32.49-5.19-23.09,6.72-50,30-56.77,61.48-4.63,21.52,4.48,42.93,22.67,53.3,21.67,12.34,50.03,5.41,75.88-18.54,4.13-3.82,10.59-3.58,14.41.55,3.83,4.13,3.58,10.58-.55,14.41-21.38,19.8-44.73,30.06-66.65,30.06Zm6.17-89.83c-10.01,16.47-10.63,25.25-9.63,26.64,2.43,1.25,3.18.92,3.58.73,3.86-1.81,7.85-10.85,9.25-16.68.52-2.18,1.7-4.03,3.29-5.39l-6.49-5.3Z"/>
  <path class="cls-16" d="m137.59,1733.71c25.22,28.98,59.4,48.71,94.2,64.38,5.48,2.51,11.14,4.64,16.68,7.33,7.64,3.65,4.44,15.38-3.94,14.69-44.4-3.37-89-20.03-121.21-51.71-5.13-5.37-9.47-10.21-13.59-16.76-10.86-18.82,15.02-35.29,27.86-17.93h0Z"/>
  <path class="cls-16" d="m436.15,1890.72c-17.33,6.21-35.65,9.35-53.83,12.48-12.19,1.9-17.76-14.84-7.08-20.69,16.29-8.67,32.68-17.42,50.18-23.14,20.44-5.79,30.35,23.41,10.73,31.34h0Z"/>
  <path class="cls-16" d="m991.19,2349.69c-6.4,25.98-7.46,53.44-6.44,80.29.28,5.5-3.96,10.18-9.46,10.43-4.95.22-9.22-3.22-10.18-7.92-2.93-14.29-5.04-28.81-6.31-43.53-1.12-15.49-1.76-30.31-.08-46.02,3.83-23.58,38.36-16.44,32.47,6.75h0Z"/>
  <path class="cls-16" d="m1896.91,1306.32c-5.04,0-10.02-2.29-13.28-6.64-5.48-7.33-3.99-17.71,3.33-23.19l208.18-155.81c7.33-5.49,17.71-3.98,23.19,3.34,5.48,7.33,3.99,17.71-3.33,23.19l-208.18,155.81c-2.98,2.23-6.46,3.31-9.91,3.31Z"/>
  <path class="cls-16" d="m2104.96,1763.84c-3.66,0-7.34-1.21-10.41-3.69l-214.4-173.34c-7.11-5.75-8.22-16.18-2.47-23.3,5.75-7.11,16.18-8.23,23.3-2.47l214.4,173.34c7.11,5.75,8.22,16.18,2.47,23.3-3.27,4.05-8.06,6.15-12.89,6.15Z"/>
  <path class="cls-16" d="m1477.79,1306.32c-2.55,0-5.15-.59-7.58-1.85l-302.17-155.81c-8.13-4.19-11.32-14.18-7.13-22.32,4.19-8.13,14.17-11.33,22.31-7.13l302.17,155.81c8.13,4.19,11.32,14.18,7.13,22.32-2.94,5.7-8.73,8.98-14.74,8.98Z"/>
  <path class="cls-16" d="m1175.65,1770.99c-5.68,0-11.22-2.93-14.3-8.18-4.63-7.89-1.99-18.04,5.9-22.67l302.17-177.26c7.91-4.63,18.05-1.98,22.67,5.9,4.63,7.89,1.99,18.04-5.9,22.67l-302.17,177.26c-2.64,1.55-5.52,2.28-8.37,2.28Z"/>
  <path class="cls-1" d="m1029.58,1926.63h-263.25c0-51.28,43.65-92.85,97.5-92.85h68.25c53.85,0,97.5,41.57,97.5,92.85h0Z"/>
  <path class="cls-8" d="m1029.58,1926.63h-157.97c0-41.49,26.19-75.13,58.51-75.13h40.95c32.31,0,58.51,33.64,58.51,75.13h0Z"/>
  <path class="cls-16" d="m1046.15,1943.19h-296.39v-16.57c0-60.33,51.17-109.42,114.07-109.42h68.25c62.9,0,114.07,49.09,114.07,109.42v16.57Zm-261.34-33.13h226.28c-8.05-34.13-40.42-59.72-79.02-59.72h-68.25c-38.6,0-70.97,25.59-79.02,59.72Z"/>
  <path class="cls-16" d="m947.92,1836.4c10.73,9.18,13.04,24.24,13.32,37.38-.55,6.07,1.57,17.32-7.39,17.03-2.92-.29-5.16-2.55-5.52-5.34-1.21-10.26-5.19-26.27-12.66-30.7-11.91-8.38-.07-26.15,12.25-18.38h0Z"/>
  <path class="cls-4" d="m269.89,2159.6s-11.4,28.49-3.8,65.21c0,0,41.78,20.89,112.69,41.15,0,0-48.75-22.16-40.52-79.77l-68.37-26.59Z"/>
</svg>