<svg xmlns="http://www.w3.org/2000/svg" viewBox="0 0 2040.74 2016.42"><defs><style>.cls-1{fill:#8282a3;}.cls-2{fill:#f3f3f3;}.cls-3{fill:#371a45;}.cls-4{opacity:0.2;}.cls-5{fill:#fff;}.cls-6{fill:#220f2d;}.cls-7{opacity:0.5;}.cls-8{fill:#02daff;}.cls-9{fill:#feda24;}.cls-10{fill:#371b45;}</style></defs><g id="Layer_2" data-name="Layer 2"><g id="Layer_1-2" data-name="Layer 1"><path class="cls-1" d="M1137.51,1889.85c-32.79,53-94.73,89-174.46,101.56-36.84,5.8-73.39,10.38-109.6,10.38-67.34,0-133.67-15.89-198.58-69.54a418.43,418.43,0,0,1-55.41-55.9c-26.21-31.52-62.47-55.11-101.16-67.78-31.53-10.33-64.72-13.4-95.28-7.65-61.59,11.6-107.11,56.72-131.62,130.5L202,1908.37c32.94-99,99.51-162.71,187.47-179.28,39.42-7.41,81-4.73,120.85,6.67,55.51,15.79,107.55,48.44,145.32,93.81,26.32,31.68,52.29,54,78.56,69.4,0,0,0,0,.09,0,66.57,38.89,135.24,33.09,217.4,20.18,58.38-9.16,102.24-33.24,123.63-67.79,15.89-25.68,18.76-56.72,8.33-89.76-5.7-17.93-19.05-36.45-36.4-54.34-47.71-49.12-125.53-93.56-157.45-108.91l31.77-65.89c18.23,8.82,166.13,82.36,218.95,177.78a161,161,0,0,1,12.82,29.33C1170.16,1792.78,1164.56,1846.14,1137.51,1889.85Z"/><path class="cls-2" d="M636,1808.32c-63.84-50.68-148.29-74.31-224.55-59.89-84.7,15.94-149.61,75.64-183.67,168.47L202,1908.37c32.94-99,99.51-162.71,187.47-179.28C474.86,1713,570.52,1744.49,636,1808.32Z"/><path class="cls-2" d="M1097.26,1870.75c-21.39,34.55-65.25,58.62-123.63,67.79-103.07,16.22-184.89,21.19-267.88-59.16,75.68,60,152,54.58,246,39.81,58.38-9.16,102.24-33.24,123.63-67.79,15.89-25.68,18.76-56.72,8.33-89.76-6.53-20.61-23.19-42-44.44-62.33,31.29,25.73,57.7,54.34,66.37,81.68C1116,1814,1113.15,1845.07,1097.26,1870.75Z"/><path class="cls-3" d="M853.44,2016.42c-106.74,0-191-41.54-265.21-130.73-44.38-53.34-119.42-82.28-182.48-70.41-56.07,10.58-97.74,52.34-120.5,120.77a14.6,14.6,0,0,1-18.48,9.26l-69.37-23.06a14.61,14.61,0,0,1-9.26-18.49c34.68-104.28,105.23-171.43,198.65-189,99.44-18.78,212,23.66,280.11,105.53,88.25,106.09,169.17,102.34,282.53,84.51,54.07-8.5,94.37-30.18,113.47-61,13.59-22,15.94-48.8,6.81-77.64-18.28-57.74-133.37-129-186.24-154.53a14.63,14.63,0,0,1-6.82-19.52l31.75-65.84a14.61,14.61,0,0,1,19.51-6.83c20.66,10,202.87,100.61,239.36,215.82,18.15,57.32,12,115-17.35,162.38-35,56.63-100.59,95.09-184.59,108.3C932.08,2011.07,892.79,2016.42,853.44,2016.42Zm-419.16-233c64.46,0,133.28,31.67,176.43,83.54,69.15,83.12,144,120.19,242.73,120.19,37.33,0,75.22-5.16,107.35-10.22,75.45-11.86,133.79-45.53,164.27-94.79,24.78-40,29.87-89.11,14.34-138.17-25.06-79.11-138.82-154.73-211.1-191.79l-19.14,39.71c40.91,21.79,165.6,93.25,188.42,165.33,11.78,37.2,8.39,72.41-9.81,101.84-23.66,38.22-71.17,64.7-133.8,74.55-115.62,18.17-211.84,22.75-309.55-94.7-61.52-74-162.86-112.34-252.21-95.5-78.41,14.8-138.85,69.88-171.43,155.77l41.65,13.85c27.31-71,74.76-114.6,137.9-126.51A182.86,182.86,0,0,1,434.28,1783.45Z"/><path class="cls-3" d="M1139,1712.46c-31.58-11.35-64.77-9.45-93.27-3-47.71-49.12-125.54-93.57-157.46-108.92l31.78-65.88C938.28,1543.51,1086.18,1617.05,1139,1712.46Z"/><path class="cls-2" d="M1019.39,1515.1s-25.34,24.27-60.53,52c-51.22,40.35-123.24,88-168.51,78.9-21-4.19-41.28-20.66-59.75-42.3C681.92,1546.49,646.2,1453,646.2,1453L622,1441.13a55.32,55.32,0,0,1-24.08-23.29c-8.62-16.09-22.36-44.45-37-85.82-24.37-68.91-23.15-126.41-23.15-126.41l30.07-155.12s65-50.33,90.93-61.3,162.47,32.07,170.56,44.54S1019.39,1515.1,1019.39,1515.1Z"/><path class="cls-3" d="M801.92,1661.66a73,73,0,0,1-14.43-1.36c-76.64-15.37-139.2-162.34-152.84-196.66l-19.11-9.42a69.22,69.22,0,0,1-30.49-29.46c-9.12-16.94-23.1-45.94-37.92-87.85-25-70.64-24-129.18-24-131.63A14.62,14.62,0,0,1,537.76,1191h.31a14.61,14.61,0,0,1,14.31,14.91h0c0,.55-.78,55.94,22.32,121.28,14.19,40.15,27.47,67.71,36.1,83.75A40.14,40.14,0,0,0,628.46,1428l24.2,11.93a14.64,14.64,0,0,1,7.2,7.89c18.08,47.32,77.3,172.57,133.38,183.82,53.43,10.72,162.78-77.77,209-120.44-69.86-180-172.5-442.51-184.72-468.57-19.56-13.82-135.28-46.59-153.06-39.95-19.82,8.37-70,45.71-87.65,59.4A14.62,14.62,0,1,1,558.87,1039c6.8-5.27,67.26-51.85,94.23-63.23,15.13-6.38,49.32-2,101.68,12.9,28.72,8.19,78.19,23.91,86.81,37.11,8.31,12.74,148.63,373.73,191.44,484.07a14.61,14.61,0,0,1-3.52,15.85C1014.24,1540.27,884.92,1661.65,801.92,1661.66Z"/><path class="cls-2" d="M2014.25,1527.78c-5.56,5.45-12.72,12.28-21,20-45,41.66-125.88,109.45-192.11,127.23a39,39,0,0,1-33.86-6.77c-31.14-23.78-106.09-87.23-157.31-181.14-1.27-2.29-2.49-4.58-3.7-6.92,0,0-70.71,7.85-150.73,9.56-3.32.09-6.73.14-10.09.19l7.51-316.56s4.62.19,12.71.78c45.47,3.07,200.1,17.69,253.9,74.56,63.35,67,136.45,175,136.45,175s147.31-98.24,169.83,70.76A39.46,39.46,0,0,1,2014.25,1527.78Z"/><path class="cls-2" d="M1750,694.36S1534.38,975,1306.12,989.19c-218.12,13.6-45.36-217.2-29.67-237.71l1.17-1.47,126.85-42.25s128.65-36.89,184.69-163.44c-13.4-70.62,29.82-98.3,86.5-54.63,20.22-18.13,43.81-22.47,65.45-16.57C1804.6,490.22,1851.68,594.46,1750,694.36Z"/><g class="cls-4"><path class="cls-3" d="M1750,694.36S1534.38,975,1306.12,989.19c-218.12,13.6-45.36-217.2-29.67-237.71,24.46,9.06,49.85,28,73.39,59.84,104.53,141.27,307.54-179.09,307.54-179.09,110-21.78,89.33-135.28,83.73-159.11C1804.6,490.22,1851.68,594.46,1750,694.36Z"/></g><path class="cls-3" d="M1288.7,1004.37c-50.16,0-83.1-14.39-98-42.87-38.19-72.86,63.71-205.65,75.46-220.55a14.62,14.62,0,1,1,23,18.1c-28.64,36.38-97.51,141.23-72.52,188.88,10.85,20.68,40.6,29.63,88.65,26.67,218.9-13.63,431-286.39,433.16-289.15a17.66,17.66,0,0,1,1.35-1.52c70-68.74,64.71-139.65,30.19-176.45-21-22.34-55.22-33.15-84.51-6.9a14.62,14.62,0,0,1-18.67.69c-21.34-16.44-41-22-52.54-14.91s-15.78,28.35-10.68,55.25a14.56,14.56,0,0,1-1,8.64c-58.14,131.27-188.51,170-194,171.57a14.62,14.62,0,0,1-8.08-28.11h0c1.21-.35,120.15-36,173.56-151.3-6.13-38,2.84-67.4,24.91-81,20.44-12.57,47.85-8.85,76.35,10,36.07-24.87,83.19-18.92,116,16.05,43.82,46.7,52.93,134.31-30.3,216.6-15.54,20-225.6,285.49-453.9,299.7Q1297.52,1004.37,1288.7,1004.37Z"/><path class="cls-3" d="M1615.72,838.46c-27.33,0-51.42-8.71-71.77-26-56.94-48.35-63.29-147.25-63.53-151.43a14.62,14.62,0,1,1,29.19-1.69c.09,1.41,6.06,90.83,53.33,130.88,17.75,15,38.73,21.07,64.12,18.37a14.62,14.62,0,1,1,3.07,29.08A139,139,0,0,1,1615.72,838.46Z"/><path class="cls-2" d="M1442.67,1489.08c-1.85,4.29-3.8,8.63-5.8,13l-42.25,138.06c-17.64,65.35-95.56,122.12-183.13,57-5-3.7-10-7.8-15-12.28l-66.62-91.37s-178.7,17.44-269.63-107.6c-89-122.42-132.94-296.2-153.07-393.37-.44-2.09-.83-4.19-1.27-6.24,0,0-75.53,18.67-115.73,43s-109.65,207.12-109.65,207.12q46.13,95.61-58.09,75.53c-58.67,73.44-135,41.28-168.56-17.69-12.72-22.27-19.3-48.39-16.52-74.07,0-.59.14-1.17.19-1.76a106.3,106.3,0,0,1,3-14.91s80.41-210.76,203.85-345.61S720.51,811.32,720.51,811.32l579.18,30.07s-13.25,47.9,43.67,144.15C1399.35,1080.17,1551.05,1236.07,1442.67,1489.08Z"/><path class="cls-3" d="M1004.94,1338.13c-59.55,0-104.09-129.47-131.4-241a48.53,48.53,0,0,1,28-56.21c56.83-24.61,208.43-85.5,388.19-119.29a44.86,44.86,0,0,1,49.76,26.43c17.9,41.61,49.76,121.33,62,187.72a56,56,0,0,1-21.75,54.7c-30.21,22.47-99.56,64.34-224.56,92.39a14.62,14.62,0,1,1-6.41-28.52c119.73-26.87,185.17-66.25,213.52-87.34a26.6,26.6,0,0,0,10.45-25.93c-11.72-63.58-42.68-141-60.1-181.46a15.76,15.76,0,0,0-17.5-9.25c-176.86,33.24-326,93.16-382,117.38a19.36,19.36,0,0,0-11.18,22.42c38.45,157,81.72,223.29,105.58,218.42a14.62,14.62,0,1,1,5.8,28.66A42.25,42.25,0,0,1,1004.94,1338.13Z"/><path class="cls-3" d="M1289.52,1740.53c-34.36,0-69.91-15.32-102.81-44.8a14.35,14.35,0,0,1-2.06-2.28l-61.84-84.85c-37.94,1.93-190.07,1.82-274.42-114.15-65.55-90.13-118.56-224.77-153.66-390.07-23.46,6.59-69.54,20.78-97,37.42-25.44,15.42-74.61,124.73-101.35,194,15.62,34.57,17,59.5,4.23,76.1-12.51,16.28-36.25,21.49-72.41,15.84-36.88,41.47-85,52.55-130.22,29.46-55.66-28.42-87.76-99.14-71.57-157.63.13-.45.27-.88.44-1.31,3.32-8.71,82.82-214.92,206.74-350.25,125.9-137.51,279.33-150.8,285.8-151.29a14.75,14.75,0,0,1,1.88,0l579.16,30.06a14.61,14.61,0,0,1,13.39,18.28c-.27,1.21-9.52,45.72,42.14,133,7.79,13.18,17.82,28,28.43,43.8,68.32,101.34,171.51,254.43,66.18,485.4l-42,137.16c-11.69,43.2-45.85,79.27-86.91,91.43A113.26,113.26,0,0,1,1289.52,1740.53ZM1207.35,1675c35.65,31.5,72.29,42.87,106.06,32.88,31.54-9.34,57.89-37.4,67.12-71.49l42.36-138.53a15.44,15.44,0,0,1,.69-1.82c99.17-216.55,1.32-361.71-63.44-457.77-10.85-16.11-21.11-31.33-29.35-45.25-40.7-68.78-47.37-114.5-47.16-137.79L720.82,826c-12,1.23-152.45,18.15-265.67,141.8-116.76,127.52-195.73,327.42-200.74,340.29-13.74,51.12,18.71,103.63,56.87,123.12,20.44,10.45,60.57,20.62,99.73-28.39a14.64,14.64,0,0,1,14.18-5.23c39,7.48,49.53.08,52.23-3.46s7.17-15.6-10.08-51.36a14.68,14.68,0,0,1-.5-11.55c11.9-31.3,73.38-188.75,115.74-214.42,41.63-25.23,116.63-44,119.8-44.73a14.62,14.62,0,0,1,17.84,11.27c34.21,168.18,86.71,304.4,151.81,393.92,85.07,117,254.71,101.84,256.41,101.66a14.76,14.76,0,0,1,13.24,5.94Z"/><path class="cls-5" d="M553.14,608.21a467,467,0,0,0,120,205.45,478.29,478.29,0,0,0,38,34.11c6.5,5.28,13.24,10.4,20.12,15.44a481.3,481.3,0,0,0,196.91,83.85q13.55,2.4,27.15,4.07c165.92,20.12,337.6-46.26,443.43-188.46,156-209.44,109.9-504-102.76-657.94a479.86,479.86,0,0,0-130.91-67c-5.33-1.82-10.74-3.48-16.17-5Q1127.18,26.31,1105.1,22a487.12,487.12,0,0,0-204.2,4.49q-15.84,3.75-31.43,8.59a477.29,477.29,0,0,0-241,170.15C538.79,325.74,515.94,474.37,553.14,608.21Z"/><path class="cls-3" d="M1013.7,956a484.92,484.92,0,0,1-58.55-3.54c-9-1.11-18.2-2.49-27.21-4.08A483.59,483.59,0,0,1,730.48,864.3c-7.5-5.49-14.1-10.55-20.18-15.48a483.36,483.36,0,0,1-38.07-34.21,470,470,0,0,1-120.38-206c-38.93-140-11.38-287.33,75.57-404.1A478.71,478.71,0,0,1,869.07,33.84c10.24-3.19,20.85-6.09,31.53-8.62a488.17,488.17,0,0,1,204.75-4.5c14.66,2.83,29.45,6.42,43.94,10.67,5.82,1.66,11.13,3.31,16.22,5a481,481,0,0,1,131.27,67.22c103.56,75,171.16,185.18,190.35,310.35,19,124.19-12,248.3-87.3,349.48C1309.19,885.26,1165,956,1013.7,956Zm0-941.32c-3.75,0-7.49,0-11.24.13a484.4,484.4,0,0,0-101.21,13c-10.62,2.52-21.17,5.4-31.35,8.57A476.19,476.19,0,0,0,629.58,206.07c-86.46,116.11-113.85,262.55-75.14,401.78A467.35,467.35,0,0,0,674.12,812.71a481.92,481.92,0,0,0,37.87,34c6,4.91,12.61,9.94,20.06,15.39a479.73,479.73,0,0,0,196.36,83.62c9,1.58,18.07,3,27.07,4.06,171,20.75,340.48-51.27,442.19-187.93,74.91-100.6,105.74-224,86.81-347.46-19.08-124.46-86.3-234-189.28-308.59A478.3,478.3,0,0,0,1164.66,39c-5.06-1.72-10.33-3.36-16.12-5-14.42-4.22-29.12-7.79-43.7-10.6A482,482,0,0,0,1013.67,14.68Z"/><g class="cls-4"><path class="cls-3" d="M1398.75,762.66c-105.82,142.22-277.52,208.61-443.44,188.46q-13.6-1.67-27.13-4.07a482.15,482.15,0,0,1-196.93-83.83c-6.86-5.06-13.6-10.17-20.12-15.43a486,486,0,0,1-38-34.14A467.43,467.43,0,0,1,536,480.06a467,467,0,0,0,117,195,476.68,476.68,0,0,0,38,34.14c6.48,5.27,13.23,10.37,20.12,15.42A480.67,480.67,0,0,0,908,808.48q13.58,2.4,27.15,4.06c165.92,20.14,337.59-46.24,443.45-188.46A463.39,463.39,0,0,0,1471,349.21C1512.47,485.75,1490.81,639.05,1398.75,762.66Z"/></g><path class="cls-3" d="M1013.69,965a496.51,496.51,0,0,1-59.62-3.6c-9.22-1.14-18.53-2.54-27.7-4.16A492.63,492.63,0,0,1,725.2,871.58c-7.65-5.59-14.37-10.75-20.57-15.77A494.92,494.92,0,0,1,665.87,821,479.26,479.26,0,0,1,543.18,611h0c-39.68-142.73-11.6-292.86,77-411.88A484.87,484.87,0,0,1,819.42,42.51a491.75,491.75,0,0,1,47-17.26c10.45-3.25,21.25-6.2,32.13-8.78a497.2,497.2,0,0,1,208.53-4.58c15,2.88,30,6.54,44.77,10.86,5.91,1.69,11.35,3.39,16.59,5.17A489.54,489.54,0,0,1,1302,96.36c105.54,76.38,174.43,188.71,194,316.28,19.41,126.58-12.19,253.08-89,356.21C1314.69,892.93,1167.85,965,1013.69,965Zm0-941.33c-3.68,0-7.35,0-11,.13A475.28,475.28,0,0,0,903.3,36.58c-10.43,2.48-20.77,5.3-30.76,8.41a469.31,469.31,0,0,0-45,16.54A464.21,464.21,0,0,0,636.79,211.44C552,325.3,525.15,468.91,563.1,605.44h0A458.24,458.24,0,0,0,680.49,806.35a473.34,473.34,0,0,0,37.14,33.38c6,4.82,12.4,9.77,19.74,15.13a470.4,470.4,0,0,0,192.64,82c8.78,1.56,17.73,2.9,26.57,4,167.9,20.36,334.09-50.29,433.88-184.37,73.45-98.65,103.69-219.66,85.13-340.72-18.72-122.07-84.65-229.56-185.66-302.67a469.16,469.16,0,0,0-128.09-65.59c-5-1.7-10.13-3.29-15.77-4.9-14.21-4.17-28.63-7.67-42.93-10.43A473.21,473.21,0,0,0,1013.67,23.67Z"/><path class="cls-3" d="M1013.69,968a498.39,498.39,0,0,1-60-3.63c-9.28-1.14-18.64-2.55-27.86-4.18A495.37,495.37,0,0,1,723.45,874c-7.71-5.64-14.47-10.81-20.71-15.87a498.76,498.76,0,0,1-39-35A482,482,0,0,1,540.3,611.78h0c-39.94-143.63-11.68-294.7,77.5-414.48A491,491,0,0,1,865.51,22.38c10.5-3.26,21.38-6.23,32.32-8.83a500.27,500.27,0,0,1,209.79-4.61c15,2.9,30.19,6.59,45,10.94,5.94,1.7,11.43,3.41,16.71,5.2A492.82,492.82,0,0,1,1303.8,93.92C1410,170.79,1479.3,283.81,1499,412.19c19.52,127.37-12.27,254.67-89.54,358.45C1316.53,895.48,1168.79,968,1013.69,968Zm0-941.33q-5.48,0-11,.13A471.93,471.93,0,0,0,904,39.5c-10.37,2.46-20.65,5.26-30.57,8.35a467,467,0,0,0-44.72,16.44A461.23,461.23,0,0,0,639.2,213.23C555,326.35,528.28,469,566,604.63h0A455.3,455.3,0,0,0,682.61,804.23a470.9,470.9,0,0,0,36.9,33.17c5.92,4.8,12.33,9.71,19.62,15A470.06,470.06,0,0,0,802,890.79a467.09,467.09,0,0,0,128.53,43.14c8.72,1.55,17.62,2.88,26.41,4,166.79,20.26,332-50,431.1-183.18,73-98,103-218.21,84.58-338.48-18.6-121.27-84.1-228-184.46-300.69A466.54,466.54,0,0,0,1160.9,50.37c-5-1.69-10.06-3.27-15.65-4.87-14.14-4.14-28.47-7.63-42.68-10.36A469.66,469.66,0,0,0,1013.67,26.67Z"/><path class="cls-3" d="M600.35,719.53c228.11,250.47,630.39,202.27,726.52-117,65.4-217.22-100-448.29-315.78-497.08C854,69.91,685,102.94,562.75,328c0,0-38.5,107.9-25.47,188.66s39.53,157.16,39.53,157.16Z"/><path class="cls-6" d="M1326.85,602.51c-96.12,319.28-498.4,367.48-726.51,117l-4.76-9.26c287.34,121.91,627.91,14,731.2-307C1345.26,467.13,1347,535.47,1326.85,602.51Z"/><path class="cls-3" d="M952.4,940a522.17,522.17,0,0,1-160.24-25.42l-1.81-.74a493.57,493.57,0,0,1-66.42-40.51c-7.69-5.62-14.43-10.79-20.66-15.84a497.35,497.35,0,0,1-38.93-35A481.2,481.2,0,0,1,541.1,611.56c-39.86-143.39-11.66-294.19,77.37-413.76A487.17,487.17,0,0,1,818.57,40.52l1.18-.5,1.26-.25c61.82-12.35,129.74-10.34,201.86,6,129.79,29.35,248.82,118.08,318.38,237.36,62.64,107.41,78.89,227.16,45.76,337.18C1350.94,740,1276.24,832.5,1171,887.7,1104.85,922.39,1029.54,940,952.4,940ZM800.76,891.09C923,930.29,1053.67,921,1159.37,865.57c99.18-52,169.62-139.33,203.7-252.5,31.11-103.31,15.69-216-43.42-317.38C1253.52,182.29,1140.51,98,1017.35,70.12,949.16,54.71,885.18,52.66,827.17,64a462.07,462.07,0,0,0-188.64,148.7C554.14,326.05,527.41,469,565.18,604.86h0A456.34,456.34,0,0,0,682,804.82a472.78,472.78,0,0,0,37,33.23c5.93,4.8,12.35,9.73,19.65,15.07A469.54,469.54,0,0,0,800.76,891.09Z"/><path class="cls-3" d="M950.55,884.28c-129.91,0-259.45-57.67-353.9-161.39l-.74-1.07-23.82-46.33c-.27-.77-26.8-77.74-39.75-158C519.26,436.4,556.45,330.8,558,326.35l.31-.71C663.56,132,816.25,56.25,1012.2,100.55c113.84,25.74,218.26,103.6,279.31,208.27,54.87,94.08,69.12,198.89,40.15,295.13-42.08,139.74-146.26,238-285.84,269.72A430.43,430.43,0,0,1,950.55,884.28ZM604.49,716.65C719.7,842.83,887.88,899.23,1043.61,863.91c136-30.84,237.47-126.65,278.47-262.84,28.17-93.56,14.24-195.55-39.22-287.21C1223.19,211.54,1121.18,135.44,1010,110.3,819.06,67.13,670.13,141.07,567.33,330.07c-2.39,6.85-37.42,109.56-25.12,185.83,12.38,76.71,37.31,150.43,39.21,156Z"/><path class="cls-5" d="M1537.88,630c-15.73,91.51-83.75,159-151.94,150.76s-110.72-89.14-95-180.66c.09-.57.21-1.18.33-1.75,16.27-90.63,83.89-157.22,151.6-149,52.68,6.37,90,56.1,97.07,120.57A217.51,217.51,0,0,1,1537.88,630Z"/><g class="cls-4"><path class="cls-3" d="M1537.88,630c-15.73,91.51-83.75,159-151.94,150.76s-110.72-89.14-95-180.66c.09-.57.21-1.18.33-1.75,5.88,10.3,16,21,32.3,19.76,28.63-2.12,88.43-54.95,88.43-54.95s55.51,2.56,127.94,6.75A217.51,217.51,0,0,1,1537.88,630Z"/></g><path class="cls-3" d="M1397.11,794.71a105.32,105.32,0,0,1-12.77-.77c-30.35-3.67-56.93-19.77-76.87-46.55-28.59-38.4-39.4-92.92-29.66-149.61,16.89-98.26,91.56-170.86,166.7-161.73,30.34,3.68,56.92,19.77,76.87,46.56C1550,521,1560.77,575.53,1551,632.21,1535.11,724.9,1467.67,794.71,1397.11,794.71Zm34.32-332.77c-57.76,0-113.6,60.43-127.33,140.36-8.38,48.79.87,97.07,24.76,129.16,15.47,20.78,35.77,33.23,58.69,36a81.71,81.71,0,0,0,9.87.6c57.75,0,113.59-60.43,127.32-140.37,8.39-48.79-.86-97.07-24.76-129.16-15.47-20.77-35.76-33.22-58.68-36A81.81,81.81,0,0,0,1431.43,461.94Z"/><ellipse class="cls-5" cx="1452.59" cy="632.11" rx="137.31" ry="93.6" transform="translate(508.75 1904.41) rotate(-76.95)"/><g class="cls-4"><path class="cls-3" d="M1428.82,767.12c51.57,5.84,104-49.87,117.1-124.45a196.94,196.94,0,0,0,2.73-23.89c-22.45,49.05-63,81-103.09,76.47-45.26-5.18-75.07-55.35-73.38-117.43a200.42,200.42,0,0,0-12.94,43.71C1346.12,696.12,1377.28,761.28,1428.82,767.12Z"/></g><path class="cls-3" d="M1436.5,780.89a80.49,80.49,0,0,1-9.16-.52c-22.67-2.56-42.63-14.59-57.73-34.79-23.18-31-32-78.22-23.49-126.34,14.53-82.64,72.49-142.12,131.72-135.39,22.67,2.56,42.64,14.59,57.73,34.79,23.17,31,32,78.23,23.49,126.34h0C1545.27,723.35,1492.52,780.89,1436.5,780.89ZM1469,510c-42.09,0-85.43,50.29-96.61,113.84-7.22,41-.27,80.54,18.58,105.76,10.58,14.15,24.19,22.53,39.37,24.25,43.7,4.94,90.75-47,102.45-113.5h0c7.21-41,.27-80.55-18.58-105.76-10.58-14.15-24.19-22.54-39.37-24.26A51.83,51.83,0,0,0,1469,510Z"/><g class="cls-7"><path class="cls-5" d="M1093.62,227.31s-181-56.71-315.71,30.83l-.43.27C749.15,276.86,706.85,327,691.88,357c-19.79,39.73-27.53,70-33.29,96.86-17.5,81.78-10.17,123.34-10.17,123.34-38-53.07-54.07-107.68-40.18-175.94,1.39-6.72,3.07-13.61,5-20.62.45-1.62.92-3.21,1.43-4.81,0,0,0-.05,0-.09a462,462,0,0,1,22.09-51.68C666.6,264.67,720.34,190.28,808.46,169,973.23,129.09,1102.28,220.19,1093.62,227.31Z"/></g><g class="cls-7"><ellipse class="cls-5" cx="1186.61" cy="470.8" rx="60.75" ry="69.79" transform="translate(-27.27 75.58) rotate(-3.61)"/></g><g class="cls-7"><ellipse class="cls-5" cx="1197.15" cy="607.13" rx="26.35" ry="30.29" transform="translate(-79.8 193.4) rotate(-8.94)"/></g><path class="cls-3" d="M701.5,1072.3l67.07-10.93c5.51-.95,8,7,2.93,9.3l-61.21,29.52c-20.62,8.66-30.68-23.13-8.79-27.89Z"/><path class="cls-3" d="M537.79,1210.93a14.22,14.22,0,0,1-2.25-.18c-139.74-21.6-189-113.86-191.06-117.77a14.62,14.62,0,0,1,25.93-13.5h0c1.79,3.38,45.19,83.15,169.59,102.37a14.63,14.63,0,0,1-2.21,29.08Z"/><path class="cls-3" d="M961.39,1365.1a188,188,0,0,1,64.65-73,361.2,361.2,0,0,1,43.83-23.56c49.31-23.42,105.35-21.52,148,14.5a192.11,192.11,0,0,1,18.09,17.78l48.29,51.61s-18.93-2.08-18.93-2.07c33.61-22.77,77.75-29.26,115.94-14.59,53,19.62,76.17,78.16,73.54,131.12-.11,12.75-1.76,25.21-3.54,37.6a14.63,14.63,0,1,1-28.86-4.73c11.77-63.89-5.49-139.74-81.7-142.56a101.44,101.44,0,0,0-58.86,17.29,14.63,14.63,0,0,1-18.93-2.08l-32.2-34.41-20.13-21.51c-34.95-38.57-83.4-42.86-129-21.18-13.53,5.84-26.25,13.65-38.36,22.29-21.73,14.77-52.64,37.63-74.18,53.49-3.83,3.39-10.11-1.29-7.71-6Z"/><path class="cls-3" d="M1129.87,1608.09a14.63,14.63,0,0,1-13.17-8.26l-54.82-113.3a14.62,14.62,0,0,1,26.32-12.73L1143,1587.1a14.63,14.63,0,0,1-13.15,21Z"/><path class="cls-3" d="M1235.85,1724.54a12.12,12.12,0,0,1-7.73-2.77c-61.95-50.93-35.07-149.76-11.36-237,2.52-9.25,5-18.36,7.31-27.2,32.83-125.74,107.31-127.19,110.47-127.19a12.19,12.19,0,0,1,.12,24.37c-2.74.08-59.35,3-87,109-2.33,8.93-4.82,18.11-7.37,27.45-21.78,80.07-46.46,170.83,3.32,211.74a12.18,12.18,0,0,1-7.74,21.6Z"/><path class="cls-3" d="M1294,1740.45a14.46,14.46,0,0,1-6.57-1.57c-23.17-11.66-38.92-32.39-46.82-61.63-23.92-88.58,32.71-240.25,62.14-285.47,31.71-48.72,91.32-38.9,118.41-26.89a14.62,14.62,0,0,1-11.8,26.75c-2.29-1-56.09-23.86-82.11,16.09-26.48,40.7-79.75,182.88-58.41,261.9,5.72,21.16,16.1,35.26,31.74,43.14a14.62,14.62,0,0,1-6.58,27.68Z"/><path class="cls-3" d="M1288.24,1467.32a12.18,12.18,0,0,1-.36-24.36l142.95-4.21h.36a12.18,12.18,0,0,1,.35,24.36l-142.94,4.21Z"/><path class="cls-3" d="M1268.47,1553.27a12.19,12.19,0,0,1-5.09-23.26c2.46-1.13,5.52-2.54,166.89-14.68a12.18,12.18,0,1,1,1.83,24.29c-57.38,4.32-150.86,11.67-160.5,13.23A12,12,0,0,1,1268.47,1553.27Zm5.06-1.11h0Zm0,0h0Z"/><path class="cls-3" d="M1274,1620.16c-9.22,0-15.89-.36-18.64-1.24a12.18,12.18,0,0,1,7-23.34c9.48,1.65,76.58-2,136.32-6.55a12.18,12.18,0,0,1,1.84,24.3C1362.74,1616.18,1304.4,1620.16,1274,1620.16Zm-11.52-24.54.26.08Z"/><path class="cls-3" d="M1373.52,1684.84H1259a12.19,12.19,0,0,1,0-24.37h114.52a12.19,12.19,0,0,1,0,24.37Z"/><path class="cls-3" d="M1097.94,1539.66l-.72,0a12.18,12.18,0,0,1-11.46-12.87c9.37-160.76,162.76-198.11,164.31-198.48a12.19,12.19,0,0,1,5.51,23.74c-5.67,1.33-137.21,33.92-145.49,176.15A12.19,12.19,0,0,1,1097.94,1539.66Z"/><path class="cls-3" d="M1278,1373.78c-31.11,11.77-55.33,38-70.73,67.08-1.28,2.75-4.82,10.14-6.07,12.83a277.54,277.54,0,0,0-10.42,31.77c-.6,3-5.31,2.29-4.8-.85a282.4,282.4,0,0,1,6.6-33.94c8.08-27.66,21.85-53.52,42.38-74.13,10.2-10.24,21.48-19.35,34.7-25.68,16.05-6.63,25,17.65,8.34,22.92Z"/><path class="cls-2" d="M723.19,1225.77c26.09-14.44,115.11-61.92,192.83-82a12.34,12.34,0,0,1,14.27,6.86c11.57,25.1,42.36,92.27,40.38,91.61-2.32-.77-121.38,50.34-200.73,94.1a12.41,12.41,0,0,1-17.15-5.39c-10.07-20.45-30-63.22-35.78-91.8A12.4,12.4,0,0,1,723.19,1225.77Z"/><path class="cls-3" d="M763.89,1352.45a26.86,26.86,0,0,1-8.08-1.24,27.18,27.18,0,0,1-16.14-13.86c-11.25-22.85-31-65.63-37-95.37a27,27,0,0,1,13.44-29h0c26-14.36,116.85-62.83,196.25-83.4a26.94,26.94,0,0,1,31.21,14.89c45.62,99,45.62,99,38.06,107.47a14.75,14.75,0,0,1-8.29,4.64c-12.67,4.22-122,51.5-196.34,92.52A27.24,27.24,0,0,1,763.89,1352.45Zm-32.23-114.67c5.74,26.48,24.35,66.42,33.24,84.6,45.24-24.81,99.61-50.14,128.25-63.15,29.07-13.2,47.07-21.11,58.56-25.72-5.62-13-16.34-37-33.92-75.14C843.5,1178,758.36,1223.08,731.66,1237.78Zm234.4,18.28a14.67,14.67,0,0,0,1.56.43A15.1,15.1,0,0,1,966.06,1256.06Z"/><path class="cls-3" d="M1059.76,1299.86a14.56,14.56,0,0,1-9.21-3.27c-57.72-46.91-102.51-238-107.43-259.63a14.62,14.62,0,0,1,28.52-6.48c12.74,56.06,55.09,209.06,97.35,243.41a14.62,14.62,0,0,1-9.23,26Z"/><path class="cls-3" d="M1292.65,1237.89a14.62,14.62,0,0,1-12.79-7.52l-51.33-92.43a21.54,21.54,0,0,0-18.82-11.08h-52.53a50.55,50.55,0,0,1-47.06-31.72l-40.67-100.47a14.62,14.62,0,0,1,27.1-11l40.67,100.46a21.45,21.45,0,0,0,20,13.45h52.53a50.81,50.81,0,0,1,44.38,26.12l51.33,92.43a14.62,14.62,0,0,1-12.77,21.72Z"/><ellipse class="cls-8" cx="1267.22" cy="1020.26" rx="50.86" ry="53.61"/><path class="cls-3" d="M1267.22,1086.36c-34.94,0-63.36-29.65-63.36-66.1s28.42-66.11,63.36-66.11,63.37,29.66,63.37,66.11S1302.17,1086.36,1267.22,1086.36Zm0-107.21c-21.15,0-38.36,18.44-38.36,41.11s17.21,41.1,38.36,41.1,38.37-18.44,38.37-41.1S1288.38,979.15,1267.22,979.15Z"/><path class="cls-3" d="M1259.52,967.33c-3.59,20.78-5.37,40.65,2.69,59.45,7.8,17.36,22.33,32.49,43.92,28-3.61,4.55-9.36,7.56-15.65,8.65-19.57,2.83-37.72-12.46-44.73-29.61-9.73-22.49-3.74-50.22,13.77-66.48Z"/><path class="cls-3" d="M1791.13,1690.91a54.2,54.2,0,0,1-32.79-11.05c-31.13-23.79-107.69-88.42-160.37-184.15-23.54,2.31-86,7.85-152.36,8.82h-.22a14.62,14.62,0,0,1-.2-29.24c82.4-1.19,158.65-9.57,159.41-9.66a14.63,14.63,0,0,1,14.56,7.75c50,95.38,126.41,159.92,156.94,183.24a24.22,24.22,0,0,0,21.19,4.24c76.49-20.53,177.59-115.06,206.75-143.55a24.76,24.76,0,0,0,7.25-20.89c-5.77-43.4-20.47-70.74-43.67-81.25-35.41-16-86.75,9.51-103.54,20.71a14.63,14.63,0,0,1-20.22-4c-.73-1.07-73.18-107.83-135-173.18-58.53-61.9-254.63-70.71-256.6-70.79a14.62,14.62,0,0,1,.59-29.23h.61c8.54.36,210,9.41,276.65,79.92,52.07,55.07,109.55,135.89,130.15,165.56,23.46-12.71,75.6-35.49,119.39-15.66,33,15,53.4,50,60.6,104a54.22,54.22,0,0,1-15.8,45.66c-39,38.12-138.55,129.11-219.6,150.88A53,53,0,0,1,1791.13,1690.91Z"/><path class="cls-3" d="M1870.59,1423.72l-12.19,50.35a2.52,2.52,0,0,1-4.87,0l-12.18-50.35a15,15,0,0,1,11.08-18.16c10.65-2.86,21,7.6,18.16,18.16Z"/><path class="cls-3" d="M1740,1658.15a12.18,12.18,0,0,1-2.31-24.14c184.73-36,261.15-197.49,261.9-199.12a12.19,12.19,0,0,1,22.15,10.17c-3.26,7.1-82.07,174.46-279.39,212.86A11.77,11.77,0,0,1,1740,1658.15Z"/><path class="cls-3" d="M1598,1468.1l43.43-15a2.54,2.54,0,0,1,2.75,4l-29.66,35.08a15.17,15.17,0,0,1-21.37,1.78c-9-7.18-6-22.47,4.85-25.91Z"/><path class="cls-3" d="M1624.48,1519.15a12.18,12.18,0,0,1-2.71-24.06C1775,1459.9,1777.21,1333.27,1777.21,1332a12.18,12.18,0,0,1,12.18-12.15h0a12.2,12.2,0,0,1,12.15,12.22c0,1.47-2.46,147.29-174.37,186.77A12.16,12.16,0,0,1,1624.48,1519.15Z"/><path class="cls-3" d="M538.39,1237.87A14.61,14.61,0,0,1,529,1212c2.94-2.46,73.48-60.24,185.58-76.89a14.62,14.62,0,1,1,4.3,28.92c-103.63,15.4-170.54,69.91-171.21,70.46A14.52,14.52,0,0,1,538.39,1237.87Z"/><path class="cls-3" d="M646.18,1467.66a14.62,14.62,0,0,1-3.06-28.92c1-.23,104.56-22.94,147.45-64.53a14.62,14.62,0,0,1,20.36,21c-48.92,47.43-157.07,71.13-161.65,72.11A14.29,14.29,0,0,1,646.18,1467.66Z"/><path class="cls-3" d="M657.44,1168.65l18.65,71.15a2.05,2.05,0,0,1-3.75,1.57L635,1178c-8.6-16.42,16.87-27.06,22.49-9.37Z"/><path class="cls-3" d="M712.73,1337.33c9.37,23.78,22.9,59.67,33.17,82.61,6.76,16.74-18.71,25.1-23.16,7.56-2.74-13.23-5.34-31.4-7.46-44.76l-6.48-44.39a2,2,0,0,1,3.93-1Z"/><path class="cls-3" d="M901.32,1517.54c-10.53,41.58-62.94,69.68-99.15,86.2-3.21,1.5-5.84-3.17-2.84-5.12,16.4-11.51,33-24.39,46.61-39,11.54-12.6,24.41-28.78,26.25-44.53,2.1-19.14,30.29-16.78,29.13,2.49Z"/><g class="cls-4"><path class="cls-3" d="M746,1072.05l-11.65,1.79-27.14,18.66c-.44-2.09-.83-4.19-1.27-6.24,0,0-75.53,18.67-115.73,43s-109.65,207.12-109.65,207.12q46.13,95.61-58.09,75.53c-58.67,73.44-135,41.28-168.56-17.69l-16.52-74.07-.64-2.93c.05,0,.34.44.83,1.17,7.6,11.36,66.13,99.95,119.93,28.95,0,0,79.19,48.2,70.66-30.12-5.44-49.92,35.18-130.08,65.34-181.62,29.79-50.93,79.39-87.71,137.2-99.47a272.21,272.21,0,0,1,92.83-2.43L750,1047.65C761.15,1053.49,758.37,1070.14,746,1072.05Z"/></g><g class="cls-4"><path class="cls-3" d="M958.86,1567.05c-51.22,40.35-123.24,88-168.51,78.9-21-4.19-41.28-20.66-59.75-42.3,96.49-40.5-8-221.29-8-221.29L660.18,1196.3,649,1180l-99,27s13.89-47.61,31.53-70.51,134.79-50.2,134.79-50.2l18,128.32L716.76,1230l32.46,93.47,20.8,19.1L787.13,1332s26,77.29,73.1,153.85C889.56,1533.57,931.43,1556.53,958.86,1567.05Z"/></g><g class="cls-4"><path class="cls-3" d="M820.41,1173.33s96.39,21.75,51.24,111.91l93.6-44.65L924,1141.27l-21.93,6.3"/></g><g class="cls-4"><path class="cls-3" d="M1081.74,941.71s74-7.63,106.08,25.62l130-31.83-25.14-76.67-70.19,36.55"/></g><g class="cls-4"><path class="cls-3" d="M1282.9,1071.25s35,123-255.7,169.34l32.57,38.56,95.94-15.84L1326,1207s74.63-35.61,61.75-77.45-70-194-70-194l-68.36,16.74S1323,981.55,1282.9,1071.25Z"/></g><g class="cls-4"><path class="cls-3" d="M1083,1278.84s91.63,51.88,116.76,165.59c0,0,44.62-81.63,78.73-82C1278.49,1362.4,1184,1226.14,1083,1278.84Z"/></g><g class="cls-4"><path class="cls-3" d="M849.43,1467.65s204.74,148.15,228,17.39l44.28,109S932.05,1611.08,849.43,1467.65Z"/></g><g class="cls-4"><path class="cls-3" d="M1449,1495.89c-1.85,4.29-3.8,8.63-5.8,13L1400.94,1647c-17.64,65.35-95.56,122.12-183.13,57a564.36,564.36,0,0,1-8.29-89c10,37.77,50-26.85,50-26.85,110.28,15,186.45-101.12,186.45-101.12Z"/></g><g class="cls-4"><path class="cls-3" d="M1343.37,1207s104.87-19.33,87.82,199.63l14.21,48.55s97.81-188.58-65-403l7.1,97.93-14.08,26.74"/></g><g class="cls-4"><path class="cls-3" d="M2014.25,1536.54c-5.56,5.45-12.72,12.28-21,20-11.41-159-184-20.28-184-20.28s-33.62-66.81-114-160.81-214.71-65.16-214.71-65.16l-14.82-127.38c45.47,3.07,200.1,17.69,253.9,74.56,53.41,56.49,113.75,142.15,131.37,167.64a9.51,9.51,0,0,0,12.58,2.86c30.29-17.25,142.88-70.7,162.33,75.3A39.46,39.46,0,0,1,2014.25,1536.54Z"/></g><g class="cls-4"><path class="cls-3" d="M1637.58,1460.47l-25,26.61c-1.26-2.29-2.48-4.58-3.7-6.92,0,0-70.71,7.85-150.73,9.55l-9.11-9.55,34.36-162.91S1487.49,1434.4,1637.58,1460.47Z"/></g><path class="cls-3" d="M294.11,1876.72a7.3,7.3,0,0,1-6.39-3.76c-13.77-24.78-48.66-38.13-49-38.26a7.31,7.31,0,0,1,5.15-13.69c1.64.62,40.3,15.43,56.65,44.85a7.31,7.31,0,0,1-6.39,10.86Z"/><path class="cls-3" d="M343.46,1816.41H343a7.33,7.33,0,0,1-6.89-7.72c1.37-24.21-22.61-39-27.54-41.14a7.32,7.32,0,0,1-2.57-13.33c3.95-2.56,7.92-.62,12.67,2.15,16.4,9.57,33.43,28.56,32,53.15A7.31,7.31,0,0,1,343.46,1816.41Zm-29.56-49.86h0Zm0,0h0Zm0,0h0Zm0,0h0Z"/><path class="cls-3" d="M410.46,1800.58a7.08,7.08,0,0,1-2.21-.35,7.3,7.3,0,0,1-4.76-9.17c6.19-19.54,4.42-37.57-5.25-53.62a13.14,13.14,0,0,1-1.42-2.79,7.31,7.31,0,0,1,13.57-5.38l.37.62c14.86,24.66,11.83,49.28,6.66,65.58A7.3,7.3,0,0,1,410.46,1800.58Z"/><path class="cls-3" d="M475,1806.06a7.32,7.32,0,0,1-5.44-12.2c11.22-12.47,12.76-31.75,4.55-57.31-.44-1.39-.71-2.34-.8-2.77a7.31,7.31,0,0,1,14.3-3c.08.29.23.75.42,1.34,12.34,38.45,2.68,60.14-7.6,71.56A7.3,7.3,0,0,1,475,1806.06Z"/><path class="cls-3" d="M531.42,1829.74a7.31,7.31,0,0,1-3.51-13.72c26.6-14.56,31.19-49.4,31.23-49.75a7.31,7.31,0,0,1,14.52,1.79c-.22,1.73-5.63,42.68-38.74,60.78A7.24,7.24,0,0,1,531.42,1829.74Z"/><path class="cls-3" d="M590.77,1867a7.31,7.31,0,0,1-3.33-13.82c11.22-5.72,26-18.07,33-44.45a9.28,9.28,0,0,1,2.33-4.77,7.31,7.31,0,0,1,12,7.83l-.17.65c-8.31,31.62-26.6,46.69-40.47,53.77A7.33,7.33,0,0,1,590.77,1867Z"/><path class="cls-3" d="M634.15,1921a7.3,7.3,0,0,1-3-14c30.55-13.49,35.74-48,35.79-48.36a7.31,7.31,0,0,1,14.48,2c-.24,1.75-6.2,42.92-44.36,59.76A7.37,7.37,0,0,1,634.15,1921Z"/><path class="cls-3" d="M688.25,1963.81a7.31,7.31,0,0,1-3.77-13.57c32.83-19.72,37.27-54.88,37.31-55.23a7.31,7.31,0,0,1,14.53,1.61c-.19,1.73-5.1,42.61-44.31,66.15A7.29,7.29,0,0,1,688.25,1963.81Z"/><path class="cls-3" d="M746.78,1992.26a7.31,7.31,0,0,1-3.3-13.83c31.75-16,30.13-52.83,30-54.38a7.31,7.31,0,0,1,14.59-.86c.12,2,2.4,47.89-38,68.29A7.2,7.2,0,0,1,746.78,1992.26Z"/><path class="cls-3" d="M830.7,2008.47h-.39a7.48,7.48,0,0,1-5.27-2.63c-2.49-2.94-3.63-4.28,4.56-75.13a7.31,7.31,0,0,1,14.52,1.68c-3.3,28.55-6.49,60.44-6.41,66.73a7.32,7.32,0,0,1-7,9.36Zm7-8.72h0Zm-6.67-5.89a7.17,7.17,0,0,1,1.93.36A6.89,6.89,0,0,0,831.07,1993.86Z"/><path class="cls-3" d="M913.77,2005.47a7.22,7.22,0,0,1-3-.66c-27.91-12.71-19.41-68.2-18.35-74.48a7.31,7.31,0,1,1,14.41,2.42c-2.19,13.07-5,51.9,10,58.76a7.31,7.31,0,0,1-3,14Z"/><path class="cls-3" d="M986.72,1987a7.29,7.29,0,0,1-1.78-.22c-28.1-7-29.47-48.58-30-64.23-.05-1.8-.08-3.13-.17-3.84a7.17,7.17,0,0,1,5.56-8.58,7.44,7.44,0,0,1,8.76,5.68,36.34,36.34,0,0,1,.47,6.25c.37,11.43,1.53,46.19,18.92,50.54a7.31,7.31,0,0,1-1.76,14.4Z"/><path class="cls-3" d="M1067.12,1961.6H1067c-8.9-.13-21.45-4.46-30.65-24.39-5.46-11.84-11.91-38.1-6.73-44.37a7.7,7.7,0,0,1,7.59-2.5,7.31,7.31,0,0,1,5.31,8.87,6.32,6.32,0,0,1-.31,1c0,5.89,3.42,29.24,13.6,40.84,3.48,4,7.21,5.91,11.4,6a7.31,7.31,0,0,1-.1,14.62Z"/><path class="cls-3" d="M1120,1909.17c-25.26,0-48-39.24-50.69-44.11a7.31,7.31,0,0,1,12.76-7.14c7.62,13.61,27.64,40.39,40.76,36.2a7.31,7.31,0,1,1,4.4,13.94A24,24,0,0,1,1120,1909.17Z"/><path class="cls-3" d="M1153,1845.65a7.3,7.3,0,0,1-5-1.94c-9.15-8.44-26.75-18.69-58.61-19.56l-1.52-.05a7.3,7.3,0,0,1-6.85-7.74,7.18,7.18,0,0,1,7.73-6.85l1,0c28.81.78,52.37,8.88,68.13,23.43a7.31,7.31,0,0,1-5,12.68Z"/><path class="cls-3" d="M1081.74,1780a7.31,7.31,0,0,1-3.91-13.48c.56-.45,1.44-1.29,2.63-2.39,10.93-10.07,40-36.88,71.16-33.45a7.31,7.31,0,0,1,6.48,8,7.39,7.39,0,0,1-8,6.48c-24.63-2.71-50.09,20.83-59.69,29.68-2.85,2.62-3.91,3.61-5.3,4.31A7.19,7.19,0,0,1,1081.74,1780Zm-3.33-13.81a2.72,2.72,0,0,0-.45.25A4,4,0,0,1,1078.41,1766.18Z"/><path class="cls-3" d="M1059.88,1728.65a7.56,7.56,0,0,1-1.33-.12,7.31,7.31,0,0,1-5.88-8.5c8.11-44.29,54.83-57.29,56.82-57.82a7.31,7.31,0,0,1,3.79,14.11c-.54.15-39.82,11.31-46.22,46.34A7.31,7.31,0,0,1,1059.88,1728.65Z"/><path class="cls-3" d="M1014.73,1680a7.29,7.29,0,0,1-7.14-5.79c-7.83-36.87,23.26-57.52,40.8-63.28a7.31,7.31,0,1,1,4.57,13.88c-1.68.57-38.11,13.23-31.08,46.37a7.29,7.29,0,0,1-5.63,8.66A6.6,6.6,0,0,1,1014.73,1680Z"/><path class="cls-3" d="M954.56,1642.32a7.31,7.31,0,0,1-6.62-10.4c14.62-31.32,40.69-55.07,41.79-56.06a7.31,7.31,0,0,1,9.8,10.85c-.24.22-25,22.83-38.34,51.39A7.3,7.3,0,0,1,954.56,1642.32Z"/><path class="cls-3" d="M732.76,1899.34c-62.13-22.61-76.31,20.18-79.33,33.29a417.24,417.24,0,0,1-55.41-55.9c-26.22-31.53-62.47-55.11-101.17-67.78,64.09-23.35,12-72.81,12-72.81,55.51,15.79,107.55,48.44,145.32,93.81C680.52,1861.63,706.5,1883.94,732.76,1899.34Z"/><path class="cls-5" d="M321.53,463.34A165.86,165.86,0,1,0,266,518.83l76.88,17.24Z"/><g class="cls-7"><path class="cls-5" d="M166,243.34A166.15,166.15,0,0,1,345.46,374a168,168,0,0,0-.84-17.72A166.13,166.13,0,1,0,14.1,390.16a169.09,169.09,0,0,0,2.77,17.61A166.15,166.15,0,0,1,166,243.34Z"/></g><path class="cls-3" d="M179.4,556.55A179.72,179.72,0,1,1,358.5,358.47a177.9,177.9,0,0,1-22.29,106.69l19.68,67.09a13.57,13.57,0,0,1-16,17.07l-71.65-16.07a177.91,177.91,0,0,1-70.16,22.34A183.46,183.46,0,0,1,179.4,556.55ZM180,224.26a156.72,156.72,0,0,0-15.86.81,152.55,152.55,0,1,0,94.77,282.15,13.54,13.54,0,0,1,10-1.64l54.39,12.19-14.85-50.61a13.63,13.63,0,0,1,1.45-10.91A152.55,152.55,0,0,0,180,224.26Z"/><g class="cls-4"><path class="cls-3" d="M322.46,461.74A191.91,191.91,0,0,1,13.82,368a166.21,166.21,0,0,0,182.88,174A165.59,165.59,0,0,0,266,518.83l76.88,17.24-21.33-72.73C321.85,462.81,322.14,462.27,322.46,461.74Z"/></g><path class="cls-9" d="M133.68,320.64h18a13,13,0,0,0,12.58-9.05c5.86-19.95,30.94-25.38,42.69-6.88a31.64,31.64,0,0,1-4.53,39,58.93,58.93,0,0,1-12.1,9.12c-23.83,13.88-22.08,32.23-22.08,32.23v23.67a7.56,7.56,0,0,0,7.56,7.56h27.31a7.56,7.56,0,0,0,7.57-7.56V396.09a15.82,15.82,0,0,1,7.36-13.53c48.3-29.6,49.39-99-3.94-125.11a69.35,69.35,0,0,0-42.73-6.32c-30.69,5.61-46.09,29.6-50.6,53.88A13.14,13.14,0,0,0,133.68,320.64Z"/><rect class="cls-9" x="168.27" y="444.58" width="42.69" height="41.4" rx="16.37"/><path class="cls-10" d="M203.14,422.91H175.83a14.16,14.16,0,0,1-14.16-14.15V385.28c-.17-3.29,0-23.31,25.36-38.11a52.71,52.71,0,0,0,10.75-8.09,25,25,0,0,0,3.63-30.84c-3.86-6.07-9.74-9-16.17-8.13-6.88,1-12.48,6.08-14.62,13.34a19.64,19.64,0,0,1-18.91,13.78h-18a19.74,19.74,0,0,1-19.37-23.43c5.89-31.72,26.79-53.83,55.91-59.15A76.23,76.23,0,0,1,217,251.53c26.05,12.74,42.38,36.87,43.7,64.55,1.37,28.8-13.65,56.43-39.21,72.09a9.26,9.26,0,0,0-4.21,7.92v12.67A14.17,14.17,0,0,1,203.14,422.91Zm-15.6-136.14c10,0,19.16,5.19,25,14.41a38.24,38.24,0,0,1-5.44,47.22,65.94,65.94,0,0,1-13.44,10.16c-19.54,11.37-18.87,25.41-18.83,26,0,.14,0,.39,0,.53v23.67a1,1,0,0,0,1,1h27.31a1,1,0,0,0,1-1V396.09a22.48,22.48,0,0,1,10.51-19.15c21.45-13.15,34.07-36.23,32.93-60.24-1.11-23.14-14.34-42.58-36.33-53.33a62.89,62.89,0,0,0-38.63-5.75c-33.89,6.19-43,36-45.3,48.59a6.66,6.66,0,0,0,1.42,5.51,6.37,6.37,0,0,0,5,2.33h18a6.4,6.4,0,0,0,6.25-4.31c3.6-12.29,13.36-21,25.44-22.68A29,29,0,0,1,187.54,286.77Z"/><path class="cls-10" d="M202.76,492.56h-26.3a14.79,14.79,0,0,1-14.79-14.77v-25A14.79,14.79,0,0,1,176.46,438h26.3a14.8,14.8,0,0,1,14.8,14.77v25A14.8,14.8,0,0,1,202.76,492.56Zm-26.3-41.39a1.59,1.59,0,0,0-1.59,1.59v25a1.59,1.59,0,0,0,1.59,1.59h26.3a1.6,1.6,0,0,0,1.6-1.59v-25a1.6,1.6,0,0,0-1.6-1.59Z"/></g></g></svg>