<?xml version="1.0" encoding="utf-8"?>
<!-- Generator: Adobe Illustrator 27.1.1, SVG Export Plug-In . SVG Version: 6.00 Build 0)  -->
<svg version="1.1" id="Layer_1" xmlns="http://www.w3.org/2000/svg" xmlns:xlink="http://www.w3.org/1999/xlink" x="0px" y="0px"
	 viewBox="0 0 3170 2318" style="enable-background:new 0 0 3170 2318;" xml:space="preserve">
<style type="text/css">
	.st0{opacity:0.55;}
	.st1{opacity:0.55;fill:#FFFFFF;enable-background:new    ;}
	.st2{fill:#E0E0E0;}
	.st3{fill:#1E2128;}
	.st4{opacity:0.316;fill:#14E956;enable-background:new    ;}
	.st5{opacity:0.684;fill:#F75C4C;enable-background:new    ;}
	.st6{opacity:0.316;fill:#EEF7FB;enable-background:new    ;}
	.st7{opacity:0.684;fill:#14E956;enable-background:new    ;}
	.st8{opacity:0.316;fill:#FFEB3B;enable-background:new    ;}
	.st9{opacity:0.684;fill:#B84C4C;enable-background:new    ;}
	.st10{opacity:0.316;fill:#655231;enable-background:new    ;}
	.st11{opacity:0.684;fill:#099542;enable-background:new    ;}
	.st12{opacity:0.5;}
	.st13{opacity:0.5;fill:#FFFFFF;enable-background:new    ;}
	.st14{fill:none;stroke:#000000;stroke-width:29.9112;stroke-linecap:round;stroke-linejoin:round;stroke-miterlimit:10;}
	.st15{fill:#351000;}
	.st16{fill:#552300;stroke:#000000;stroke-width:29.9112;stroke-linecap:round;stroke-linejoin:round;stroke-miterlimit:10;}
	.st17{fill:#6A2C00;}
	.st18{fill:#3F1700;}
	.st19{fill:#972F38;}
	.st20{fill:#0A7518;}
	.st21{fill:#FFEEDC;stroke:#000000;stroke-width:25.6382;stroke-linecap:round;stroke-linejoin:round;stroke-miterlimit:10;}
	.st22{opacity:0.3;}
	.st23{opacity:0.3;fill:#1E2128;stroke:#1E2128;enable-background:new    ;}
	.st24{fill:#D0D0D0;}
	.st25{fill:#B8C5D3;}
	.st26{opacity:0.55;fill:#1E2128;enable-background:new    ;}
	.st27{opacity:0.6;}
	.st28{opacity:0.6;fill:#FFFFFF;enable-background:new    ;}
	.st29{opacity:0.3;fill:#1E2128;enable-background:new    ;}
	.st30{opacity:0.32;}
	.st31{opacity:0.32;fill:#FFFFFF;enable-background:new    ;}
	.st32{fill:#666666;}
	.st33{fill:#34A958;}
	.st34{fill:#FFFFFF;}
	.st35{fill:#FFEB3B;}
	.st36{opacity:0.2;}
	.st37{opacity:0.2;fill:#1E2128;enable-background:new    ;}
	.st38{fill:#3C4A59;}
	.st39{opacity:0.4;}
	.st40{opacity:0.4;fill:#FFFFFF;enable-background:new    ;}
	.st41{opacity:0.684;fill:#EEF7FB;enable-background:new    ;}
	.st42{opacity:0.316;fill:#BA68C8;enable-background:new    ;}
	.st43{fill:#FEF5E7;}
	.st44{fill:#BE8C6B;}
	.st45{fill:#707070;}
	.st46{fill:#FFEEDC;stroke:#000000;stroke-width:17.0921;stroke-miterlimit:10;}
	.st47{fill:#EEC0B3;}
	.st48{fill:none;stroke:#000000;stroke-width:29.9112;stroke-linecap:round;stroke-miterlimit:10;}
	.st49{fill:none;stroke:#000000;stroke-width:21.3652;stroke-linecap:round;stroke-miterlimit:10;}
	.st50{fill:#FDDBCE;}
	.st51{fill:#EEC0B0;}
	.st52{fill:#FFFFFF;stroke:#FFFFFF;stroke-width:1.0822;stroke-miterlimit:10;}
	.st53{stroke:#000000;stroke-width:1.0341;stroke-miterlimit:10;}
	.st54{fill:#FFFFFF;stroke:#FFFFFF;stroke-width:1.0341;stroke-miterlimit:10;}
	.st55{fill:#DB6978;}
	.st56{fill:#00ABEB;}
</style>
<g class="st0">
	<g class="st0">
		<g class="st0">
			<g class="st0">
				<g class="st0">
					<g class="st0">
						<path class="st1" d="M2202.8,200.1c-27.9-5.6-59.9,6.3-94.5,29.1c-18.1,10.9-32.5-2.3-17.3-25.2c0,0,0.7-0.6,2.1-2
							c0.7-0.7,1.7-1.4,2.8-2.5c0.8-0.6,1.7-1.5,2.8-2.4C2152.2,151.6,2198.2,169.7,2202.8,200.1z"/>
					</g>
				</g>
			</g>
		</g>
	</g>
</g>
<path class="st2" d="M3037.8,129.6c0-12.6-10.8-22.8-24.1-22.8h-470.8c-13.3,0-24.1,10.2-24.1,22.8v37.8h519L3037.8,129.6
	L3037.8,129.6z"/>
<path class="st3" d="M3037.8,176.8h-519c-5.3,0-9.5-4.3-9.5-9.5v-37.8c0-17.8,15.1-32.3,33.6-32.3h470.8c18.5,0,33.6,14.5,33.6,32.3
	v37.8C3047.3,172.6,3043.1,176.8,3037.8,176.8z M2528.3,157.8h499.9v-28.2c0-7.3-6.6-13.3-14.6-13.3h-470.8c-8,0-14.6,5.9-14.6,13.3
	v28.2H2528.3z"/>
<path class="st4" d="M2760.2,220.4H2573c-4.1,0-7.5-3.4-7.5-7.5s3.4-7.5,7.5-7.5h187.2c4.1,0,7.5,3.4,7.5,7.5
	S2764.4,220.4,2760.2,220.4z"/>
<path class="st5" d="M2686.3,267.3H2573c-4.1,0-7.5-3.4-7.5-7.5s3.4-7.5,7.5-7.5h113.3c4.1,0,7.5,3.4,7.5,7.5
	C2693.8,264,2690.5,267.3,2686.3,267.3z"/>
<path class="st6" d="M2957.3,267.3h-229.9c-4.1,0-7.5-3.4-7.5-7.5s3.4-7.5,7.5-7.5h229.9c4.1,0,7.5,3.4,7.5,7.5
	C2964.8,264,2961.4,267.3,2957.3,267.3z"/>
<path class="st7" d="M2799.6,311.9H2573c-4.1,0-7.5-3.4-7.5-7.5s3.4-7.5,7.5-7.5h226.6c4.1,0,7.5,3.4,7.5,7.5
	C2807.1,308.6,2803.8,311.9,2799.6,311.9z"/>
<path class="st8" d="M2911.3,311.9H2839c-4.1,0-7.5-3.4-7.5-7.5s3.4-7.5,7.5-7.5h72.3c4.1,0,7.5,3.4,7.5,7.5
	C2918.8,308.6,2915.5,311.9,2911.3,311.9z"/>
<path class="st9" d="M2571.3,142.6c4.9,0,8.9-4,8.9-8.9s-4-8.9-8.9-8.9s-8.9,4-8.9,8.9C2562.4,138.6,2566.4,142.6,2571.3,142.6z"/>
<path class="st10" d="M2599.9,140.8c3.9,0,7.2-3.2,7.2-7.2s-3.2-7.2-7.2-7.2s-7.2,3.2-7.2,7.2S2596,140.8,2599.9,140.8z"/>
<path class="st11" d="M2628.5,142.6c4.9,0,8.9-4,8.9-8.9s-4-8.9-8.9-8.9s-8.9,4-8.9,8.9S2623.6,142.6,2628.5,142.6z"/>
<g class="st12">
	<g class="st12">
		<g class="st12">
			<g class="st12">
				<g class="st12">
					<g class="st12">
						<path class="st13" d="M2873.8,49.5l-61.5-49.1L2669.7,179l61.5,49.1L2873.8,49.5z"/>
					</g>
				</g>
			</g>
		</g>
	</g>
</g>
<g class="st12">
	<g class="st12">
		<g class="st12">
			<g class="st12">
				<g class="st12">
					<g class="st12">
						<path class="st13" d="M2987,30.5l-31.9-25.4l-142.6,178.6l31.8,25.4L2987,30.5z"/>
					</g>
				</g>
			</g>
		</g>
	</g>
</g>
<path class="st14" d="M1311.2,625c10.9,0.9,39.5,2.6,74.9-5.8"/>
<path class="st14" d="M1386.6,613.6c-0.2,1.9-0.4,3.7-0.5,5.6"/>
<path class="st15" d="M2035.7,1280.8c-25.1,107.4,8.8,190.6,44.9,262.7c-0.5-0.1-1-0.2-1.5-0.4c-176.6-40-337-18.8-435.3-5.8
	c-9.9,1.3-19.8,2.5-29.8,3.7c38.4-104.6,27.3-183.7,21.3-223.9c-15.9-108-69.9-192.2-138.6-287.6c-22.2-30.8-77.9-97.9-89.9-131.6
	c-38.9-109.5-24.1-177.2-15.3-268c25.2-5.9,53.7-17,81.8-37c71.2-50.7,89.4-123.8,93.3-141.2c39.1,47,152.5,170.5,345.9,221.5
	c155.4,41,285.4,15,345.9-1.3c-9.6,182-59.6,307-104.9,388.6C2102.9,1151.8,2056.5,1191.7,2035.7,1280.8z"/>
<path class="st16" d="M2462.1,1443c-9.9,16.8-60.2,98.1-165.2,126.3c-73.9,19.9-113.6-11.8-221.9-36.6
	c-36.1-72.1-70.1-155.3-44.9-262.7c20.9-89.2,67.2-129,117.9-220.2c45.4-81.7,95.4-206.6,104.9-388.6
	c-60.5,16.3-190.5,42.3-345.9,1.3c-193.4-51-306.7-174.5-345.9-221.5c-3.9,17.4-22.1,90.5-93.3,141.2c-28.1,20-56.7,31-81.8,37
	c-8.8,90.8-23.7,158.5,15.3,268c12,33.7,67.7,100.8,89.9,131.6c68.7,95.4,122.7,179.6,138.6,287.6c5.9,40.2,17.1,119.3-21.3,223.9
	c-72.3,8.4-145,13.4-217,23.5c-68.3,9.6-115.4,18-155.5-9.7c-43.7-30.2-54.9-86.7-58.3-118.5c27.9,33.9,70.5,50.8,110.8,42.7
	c55-11,86.3-64.7,89.4-110.8c2.9-43.5-19.6-75.5-27.2-85.5c-48.3-76.5-126.4-226.1-128.2-423.6c-2.8-303.9,177.1-499.1,211.8-528.5
	c32.5-27.5,68-42.7,68-42.7c29.1-12.5,55.3-17.4,73.8-19.4c29-38.4,79.5-83.7,147.7-103c219.6-62.2,438.7,75,553.8,246.8
	c145.7,217.6,116.6,493.8,31.1,820c-3.3,12.7-42.2,79.1-29.2,157.4c7,41.8,23.3,58.4,27.2,62.2
	C2339.2,1472.4,2400.3,1472.8,2462.1,1443z"/>
<path class="st14" d="M2057.3,1508.6"/>
<path class="st14" d="M1590.7,1506.1"/>
<path class="st17" d="M1868.8,198.1c-25.9,0-35.8,6.8-36.9,19.4c-1.1,12.4,11.8,18.8,22.4,21c22,4.6,48.9,13.8,49.2,13.9
	c24.9,7.8,128.6,51.5,178.4,86.8c119.4,84.4,180.4,216.1,193.7,246.1c3.1,6.4,9.5,10,14.9,9.1c7.2-1.3,13.2-10.8,9.7-20.7
	c-4.8-33.1-28.8-172.1-154.8-275.9C2030.9,203.5,1905.2,198.3,1868.8,198.1z"/>
<path class="st17" d="M2139.2,489.3c10.5,37,15.6,48.3,23.1,58.1c3.2,4.1,11.1,16.3,19.9,13.5c9.8-3.1,8.3-29.2,8-32.8
	c-1.3-16.3-11.2-44-25.5-65c-9.5-13.9-20.1-22-26.5-18C2129.6,450.4,2133.8,470,2139.2,489.3z"/>
<path class="st17" d="M1339.4,610.7c32.2-20.5,75.1-42.3,112.9-77.4c35.3-32.7,73.1-67.6,94.3-95.8c-9.9,47.5-23,76-56.5,109.9
	C1426.4,612,1348.5,610.3,1339.4,610.7z"/>
<path class="st17" d="M1694.6,455.9c36,43.3,141.3,123.6,243.9,182.7c109.8,63.2,294,12,348.8-1c-74-11.7-151.8-14.4-239-39.8
	C1908.8,557,1790.4,505.6,1694.6,455.9z"/>
<path class="st18" d="M1329.9,642.5c13.2-1.1,26.3-2.2,39.5-3.2c-3.2,28.3-5,60-3.9,94.6c2.5,80,12.6,132.5,35.6,180.1
	c19.5,40.3,28.3,46.6,47.3,70c53.2,65.4,111.7,138.5,146.4,244.2c8.8,26.7,21,64.8,24.6,117.2c5.1,74.2-10.1,134.6-22.7,171.6
	c-88.3,10.1-176.6,20.3-264.9,30.4c-10,2.9-32.1,7.8-57.6,0c-12.4-3.8-21.9-9.5-28.5-14.2c14.3-0.1,34-1.1,57-5.2
	c15.2-2.7,53.5-9.6,88.1-29.1c59.9-33.8,88.3-91.9,93.9-112.7c24.2-88.7,9.5-124.9-7.8-162.6c-25.7-56.1-46.4-90.9-84.2-161.3
	c-54.2-101-64.3-195.6-68.7-240.9C1319.9,777.6,1318.1,715.7,1329.9,642.5z"/>
<path class="st18" d="M2356.7,1527.4c-31.5,3.9-97.6,3.4-137.4-24.1c-85.2-58.9-77.9-206.3-51.8-295.4
	c33.6-114.7,92.7-141.6,119.8-255.8c33.7-141.8,22.5-207.6,20.4-237.3c-1.6-22.9-13.9-79.4-13.9-79.4c-14.8-3.9-28.2,1.9-29,2.2
	c-6,2.7-10.1,6.2-12.6,8.7c0,0,0.9,6.3,1.9,9.1c12.2,47.4-8.1,140.2-35.1,250.3c-38.5,157.2-108.8,221.8-132.9,258.6
	c-52.7,80.8-52,158.8-50.3,197.3c2.5,56.7,47.8,159,47.8,159s37.9,12.3,75.5,23.1c40.5,10.3,39.5,10.9,84.6,17.2
	c37.1,5.1,66.8-11.7,85.1-18.6C2332.1,1540.8,2351.7,1531.5,2356.7,1527.4z"/>
<path class="st19" d="M2706.7,956.4"/>
<path class="st20" d="M2258.6,1777.4c3.3,70.4-52.9,129.4-123.4,129.4v131.7l-264.1-6.7l-134.9-3.5l-540.8-13.7l41.5-233.4h101.9
	l135.1-286.7c22.8-50.5,63.8-90.6,114.8-112.2l177.7-75.4c9.8,13.1,23.1,23.6,38.5,30c2.7,1.2,5.4,2.2,8.3,3.1
	c4.2,1.3,8.6,2.3,13.1,3.1h0.1c3,0.5,6,0.8,9,1c2,0.1,4,0.2,6,0.2c1.1,0.1,2.2,0.1,3.3,0.1c6.3,0.2,12.7,0.2,19,0
	c3-0.1,6-0.1,9.1-0.4c3.1-0.2,6.1-0.5,9.1-1c4.5-0.7,8.8-1.7,13.1-3.1c2.8-0.9,5.6-1.9,8.3-3.1c25.2-10.5,44.8-31.8,52.9-58
	l207.5,118.4c49.3,28.2,80.7,79.4,83.4,136.1L2258.6,1777.4z"/>
<g class="st0">
	<g class="st0">
		<g class="st0">
			<g class="st0">
				<g class="st0">
					<g class="st0">
						<path class="st1" d="M1813.2,1340l-194.5,78.1c-51,21.6-92.1,61.7-114.8,112.2l-123.4,261.9c-7.1,15.1-22.3,24.8-39.1,24.8
							h-110.9l6.4-35.8h101.9l135.1-286.7c22.8-50.5,63.8-90.6,114.8-112.2l177.7-75.4c9.8,13.1,23.1,23.6,38.5,30
							C1807.6,1338.1,1810.4,1339.1,1813.2,1340z"/>
					</g>
				</g>
			</g>
		</g>
	</g>
</g>
<path class="st21" d="M1960.3,1170.1v81.2c0,9.7-1.5,18.9-4.3,27.7c-8.1,26.2-27.6,47.5-52.9,58c-2.7,1.2-5.4,2.2-8.3,3.1
	c-4.2,1.3-8.6,2.3-13.1,3.1c-3,0.5-6,0.8-9.1,1c-3,0.2-6,0.3-9.1,0.4c-6.3,0.2-12.7,0.2-19,0c-1.1,0-2.2-0.1-3.3-0.2
	c-2,0-4-0.1-6-0.2c-3-0.2-6-0.5-9-1c-0.1-0.1-0.1,0-0.1,0c-4.5-0.7-8.8-1.7-13.1-3.1c-2.8-0.9-5.5-1.9-8.3-3
	c-15.4-6.5-28.7-16.9-38.5-30c-11.7-15.5-18.6-34.8-18.6-55.6c45.6,6.2,91.3-2.9,136.9-27.1c2.1-1.1,4.1-2.2,6.2-3.5
	c2-1.1,3.8-2.2,5.8-3.3c2.8-1.6,5.4-3.2,8.1-4.9c2.1-1.4,4.2-2.8,6.3-4.1C1927.6,1197.5,1943.9,1184.8,1960.3,1170.1z"/>
<path d="M1956,1296.5c-1.8,0-3.6-0.3-5.4-0.8c-9.2-3-14.2-12.8-11.3-22c2.3-7.1,3.4-14.6,3.4-22.3v-81.2c0-9.7,7.8-17.5,17.5-17.5
	s17.5,7.8,17.5,17.5v81.2c0,11.4-1.7,22.5-5.1,33.1C1970.2,1291.8,1963.4,1296.5,1956,1296.5z"/>
<path d="M1766.4,1324.4c-5.3,0-10.6-2.4-14-7c-14.4-19.2-22.1-42.1-22.1-66.1c0-9.7,7.8-17.5,17.5-17.5s17.5,7.8,17.5,17.5
	c0,16.4,5.2,32,15.1,45.1c5.8,7.7,4.3,18.7-3.5,24.5C1773.8,1323.3,1770.1,1324.4,1766.4,1324.4z"/>
<path class="st21" d="M1783.7,1779l-159.1-40.8c-20.7-5.3-42.6-3.3-62,5.7l-65.2,30.2c-21,9.8-37.7,27.1-46.6,48.5l-15.6,37.4
	c-10.4,25,8,52.5,35,52.5h102.3c4.9,0,9.8-0.9,14.5-2.6l52.9-19.7c8.7-2.5,17.9-2.1,26.3,1.2l23.7,9c11.8,4.5,24.4,6.5,37.1,6
	l56.6-2.5L1783.7,1779L1783.7,1779z"/>
<g class="st0">
	<g class="st0">
		<g class="st0">
			<g class="st0">
				<g class="st0">
					<g class="st0">
						<path class="st1" d="M1783.7,1789.6v33.6l-148.6-38.1c-20.6-5.3-42.5-3.3-62,5.7L1508,1821c-21.1,9.8-37.7,27.1-46.6,48.5
							l-15.5,37.5c-0.7,1.9-1.4,3.7-1.8,5.6c-10.7-10.2-15.3-26.6-8.9-41.9l15.6-37.4c8.9-21.5,25.5-38.7,46.5-48.5l65.2-30.2
							c19.4-8.9,41.3-11,62-5.7L1783.7,1789.6z"/>
					</g>
				</g>
			</g>
		</g>
	</g>
</g>
<path d="M1572.7,1930h-102.3c-18.6,0-35.8-9.2-46.1-24.7c-10.3-15.4-12.2-34.9-5.1-52l15.5-37.4c10.6-25.5,30.3-46,55.4-57.6
	l65.2-30.2c23-10.7,49.2-13.1,73.7-6.8l159.1,40.8c7.7,2,13.2,9,13.2,17v124.8c0,9.4-7.4,17.1-16.7,17.5l-56.6,2.5
	c-15.1,0.7-29.9-1.7-44.1-7.1l-23.7-9c-4.7-1.8-9.9-2.1-14.8-0.8l-52.1,19.4C1586.7,1928.7,1579.8,1930,1572.7,1930z M1783.7,1903.8
	L1783.7,1903.8L1783.7,1903.8z M1601.6,1752.8c-10.9,0-21.7,2.3-31.6,7l-65.2,30.2c-17.1,7.9-30.5,21.9-37.8,39.3l-15.5,37.4
	c-2.7,6.4-2,13.4,1.9,19.2c3.8,5.8,10,9.1,17,9.1h102.3c2.9,0,5.7-0.5,8.4-1.5l52.9-19.7c0.4-0.2,0.9-0.3,1.3-0.4
	c12.2-3.5,25.5-2.9,37.3,1.6l23.7,9c9.6,3.7,19.8,5.3,30.1,4.8l39.8-1.8v-94.4l-146-37.4C1614.1,1753.6,1607.9,1752.8,1601.6,1752.8
	z"/>
<path d="M2135.2,2056c-0.1,0-0.3,0-0.4,0l-939.8-23.9c-5.1-0.1-9.9-2.5-13.1-6.4c-3.2-4-4.6-9.1-3.7-14.1l41.5-233.4
	c1.5-8.3,8.8-14.4,17.2-14.4h90.8l130.3-276.7c24.6-54.4,68.6-97.5,123.8-120.9l177.7-75.4c7.4-3.2,16-0.8,20.9,5.6
	c8,10.7,18.8,19.1,31.3,24.4c2.3,1,4.4,1.8,6.6,2.5c3.2,1,6.5,1.8,9.9,2.4c0.5,0.1,1,0.1,1.5,0.2c1.9,0.3,4,0.5,6.8,0.7
	c2.4,0.2,4.7,0,7.1,0.3c0.2,0,0.6,0,1,0c0.2,0,0.4,0,0.6,0c5.9,0.2,11.9,0.2,17.8,0c3-0.1,5.7-0.1,8.4-0.3c3.1-0.2,5.4-0.5,7.4-0.8
	c3.8-0.6,7.4-1.5,10.8-2.5c2.2-0.7,4.4-1.5,6.5-2.4c20.9-8.7,36.5-25.8,43.1-47.1c1.6-5.1,5.4-9.2,10.3-11.1s10.5-1.5,15.1,1.1
	l207.5,118.4c54.8,31.3,89.2,87.6,92.2,150.5l11.7,244l0,0c1.8,38.9-11.9,75.8-38.8,104c-22.8,23.9-52.4,38.7-84.6,42.6v115.2
	c0,4.7-1.9,9.2-5.3,12.5C2144.1,2054.2,2139.7,2056,2135.2,2056z M1216.2,1997.6l901.5,22.9v-113.7c0-9.7,7.8-17.5,17.5-17.5
	c29.3,0,56.5-11.7,76.8-32.9c20.2-21.2,30.6-48.9,29.2-78.2l-11.7-244c-2.4-50.9-30.3-96.4-74.6-121.7l-190.4-108.6
	c-11.9,21.9-31,39.4-54.6,49.2c-3,1.3-6.4,2.6-9.9,3.6c-4.9,1.5-10.1,2.7-15.4,3.6c-3,0.5-6.3,0.9-10.6,1.2
	c-3.3,0.2-6.5,0.3-9.8,0.4c-6.5,0.2-13.2,0.2-19.8,0c-1.1,0-2.4,0-3.9-0.2c-2.1,0-4.2-0.1-6.3-0.3c-3.9-0.3-7-0.6-10-1.1
	c-0.2,0-0.4-0.1-0.6-0.1c-5.3-0.9-10.5-2.1-15.5-3.6c-3.4-1-6.8-2.3-10-3.7c-13.7-5.8-26.2-14.3-36.5-25l-165.9,70.4
	c-47.1,20-84.7,56.7-105.7,103.3l-135.2,287c-2.9,6.1-9.1,10-15.8,10h-87.3L1216.2,1997.6z"/>
<path d="M2040.7,1592.9c7.2,34.9,10.8,69.9,13.9,104.8c0.7,8.7,1.4,17.5,1.9,26.2l0.4,6.5l0.1,1.6c0,0.6,0,1.7,0,2.5
	c0,1.8-0.2,3.6-0.4,5.3c-1.1,7.1-4,14-8.4,19.7c-4.4,5.8-10.4,10.4-17.2,13.2c-3.4,1.5-7,2.4-10.6,3l-2.7,0.3l-1.8,0.2l-3.3,0.3
	c-8.7,0.8-17.4,1.6-26.1,2.2c-34.8,2.7-69.8,4.3-104.7,5.6c-34.9,1.3-69.8,2.6-104.7,4.5l16.6-17.5v135.4l-17.5-17.5h359.2
	c9.7,0,17.5,7.8,17.5,17.5s-7.8,17.5-17.5,17.5h-359.2c-9.7,0-17.5-7.8-17.5-17.5v-135.4c0-9.3,7.4-17,16.6-17.5
	c34.9-2,69.7-4.5,104.6-7c34.8-2.5,69.7-4.8,104.6-5.9c8.7-0.4,17.5-0.5,26.2-0.7l5.2-0.1c0.7,0,1.4-0.1,2-0.3
	c1.3-0.4,2.6-1.1,3.7-2.1s1.9-2.3,2.4-3.8c0.1-0.4,0.3-0.8,0.3-1.2c0-0.3,0.1-0.3,0.1-0.8l0.1-1.6l0.4-6.5
	c0.5-8.7,1.2-17.5,1.9-26.2C2029.8,1662.8,2033.4,1627.8,2040.7,1592.9z"/>
<path d="M1608.1,1567l-17.1,171.2c-1,9.7-9.6,16.7-19.3,15.8c-9.7-1-16.7-9.6-15.8-19.3c0.1-1.2,0.4-2.4,0.7-3.5L1608.1,1567z"/>
<g class="st22">
	<g class="st22">
		<g class="st22">
			<g class="st22">
				<g class="st22">
					<g class="st22">
						<path class="st23" d="M2135.2,1906.3h-0.5v0.5V2019l-263.7,12.3l-142.8,6.6l8.3-9.3l21-23.4l0.2-0.2l-0.1-0.2l-21-92l47.2-8.6
							l0.4-0.1v-0.4l1.8-60.4l305.9-21.5c34.6-2.4,60.7-32.2,58.7-66.8l-11.3-193.7c-2.3-40.4-24.8-76.8-59.7-97.2l-205.4-119.8
							c2.5-0.2,5-0.5,7.5-0.9c4.5-0.7,8.9-1.8,13.1-3.1c2.8-0.9,5.6-1.9,8.3-3.1c25.2-10.5,44.7-31.6,53-57.7l206.9,118.1
							c49.1,28.1,80.5,79.2,83.2,135.7l11.7,244C2261.4,1847.6,2205.4,1906.3,2135.2,1906.3z"/>
					</g>
				</g>
			</g>
		</g>
	</g>
</g>
<path class="st24" d="M1757,1962.3c0,16.4-6.7,31.3-17.4,42.1c-10.8,10.8-25.6,17.4-42.1,17.4h-385.7c-32.9,0-59.5-26.7-59.5-59.5
	c0-16.4,6.7-31.3,17.4-42.1c10.8-10.8,25.6-17.4,42.1-17.4h385.7C1730.4,1902.8,1757,1929.5,1757,1962.3z"/>
<path class="st3" d="M1697.5,2039.3h-385.7c-42.5,0-77-34.5-77-77c0-20.5,8-39.9,22.5-54.5c14.6-14.6,33.9-22.6,54.5-22.6h385.7
	c42.5,0,77,34.6,77,77c0,20.6-8,39.9-22.6,54.5C1737.4,2031.3,1718.1,2039.3,1697.5,2039.3z M1311.8,1920.3
	c-11.2,0-21.8,4.4-29.7,12.3c-7.9,8-12.3,18.5-12.3,29.7c0,23.2,18.8,42,42,42h385.7c11.2,0,21.8-4.4,29.7-12.3
	c7.9-7.9,12.3-18.5,12.3-29.7c0-23.2-18.8-42-42-42H1311.8z"/>
<path class="st24" d="M1311.8,2021.8H472.4c-32.9,0-59.5-26.7-59.5-59.5c0-16.4,6.7-31.3,17.5-42.1c10.8-10.8,25.6-17.4,42.1-17.4
	h839.4c-16.4,0-31.3,6.7-42.1,17.4c-10.8,10.8-17.4,25.7-17.4,42.1C1252.3,1995.2,1279,2021.8,1311.8,2021.8z"/>
<g class="st0">
	<g class="st0">
		<g class="st0">
			<g class="st0">
				<g class="st0">
					<g class="st0">
						<path class="st1" d="M511.6,2021.8h-34.2c-32.9,0-59.5-26.7-59.5-59.5c0-16.4,6.7-31.3,17.5-42.1
							c10.8-10.8,25.6-17.4,42.1-17.4h34.2c-16.4,0-31.3,6.7-42.1,17.4c-10.8,10.8-17.5,25.7-17.5,42.1
							C452.1,1995.2,478.8,2021.8,511.6,2021.8z"/>
					</g>
				</g>
			</g>
		</g>
	</g>
</g>
<path class="st3" d="M1697.5,2039.3h-385.7c-42.5,0-77-34.5-77-77c0-20.5,8-39.9,22.5-54.5c14.6-14.6,33.9-22.6,54.5-22.6h385.7
	c42.5,0,77,34.6,77,77c0,20.6-8,39.9-22.6,54.5C1737.4,2031.3,1718.1,2039.3,1697.5,2039.3z M1311.8,1920.3
	c-11.2,0-21.8,4.4-29.7,12.3c-7.9,8-12.3,18.5-12.3,29.7c0,23.2,18.8,42,42,42h385.7c11.2,0,21.8-4.4,29.7-12.3
	c7.9-7.9,12.3-18.5,12.3-29.7c0-23.2-18.8-42-42-42H1311.8z"/>
<path class="st3" d="M1311.8,2039.3H472.4c-42.5,0-77-34.5-77-77c0-20.6,8-39.9,22.6-54.5c14.5-14.5,33.9-22.5,54.4-22.5h839.4
	c9.7,0,17.5,7.8,17.5,17.5s-7.8,17.5-17.5,17.5c-11.2,0-21.8,4.4-29.7,12.3c-7.9,8-12.3,18.5-12.3,29.7c0,23.2,18.8,42,42,42
	c9.7,0,17.5,7.8,17.5,17.5S1321.5,2039.3,1311.8,2039.3z M472.4,1920.3c-11.2,0-21.8,4.4-29.7,12.3c-8,8-12.3,18.5-12.3,29.7
	c0,23.2,18.9,42,42,42h774.9c-7.9-12.1-12.5-26.5-12.5-42c0-15.1,4.4-29.6,12.5-42H472.4z"/>
<path class="st25" d="M1228.5,1952.3c-4.6,1.2-9.2,1.9-13.7,1.9H412.2c-1.6,0.1-3.2,0-4.8,0c-23.5-1.2-44.7-17.2-51.1-41.2
	l-186.2-686c-8.1-29.8,9.5-60.4,39.3-68.6c4.9-1.3,9.8-2,14.7-2c0.8,0,1.5,0,2.3,0.1l799.4-0.1c0.6,0,1.2,0,1.8,0
	c24.7,0,47.2,16.4,53.9,41.3l186.2,685.9C1275.8,1913.5,1258.3,1944.2,1228.5,1952.3z"/>
<g class="st0">
	<g class="st0">
		<g class="st0">
			<g class="st0">
				<g class="st0">
					<g class="st0">
						<path class="st1" d="M251,1156.6h-5.7c1.2-0.1,2.4-0.1,3.5-0.1C249.6,1156.5,250.2,1156.5,251,1156.6z"/>
					</g>
				</g>
			</g>
		</g>
	</g>
	<g class="st0">
		<g class="st0">
			<g class="st0">
				<g class="st0">
					<g class="st0">
						<path class="st26" d="M251,1174.1h-5.7l-1.1-35c1.6-0.1,3.1-0.2,4.6-0.2c1.1,0,2.8,0,4.8,0.3L251,1174.1z"/>
					</g>
				</g>
			</g>
		</g>
	</g>
</g>
<g class="st27">
	<g class="st27">
		<g class="st27">
			<g class="st27">
				<g class="st27">
					<g class="st27">
						<path class="st28" d="M1002.4,1156.5l-16.4,30.4h-3l-11.2,29.2H210.4c-5.7,0-10,5.3-8.5,10.8v0.1L388,1912.9
							c6.5,24.1,28,40.2,51.6,41.2h-20.4c-25.3,0.9-49-15.7-55.9-41.2l-186-685.2l-0.2-0.7c-8.1-29.8,9.5-60.4,39.3-68.6
							c4.9-1.3,9.8-2,14.7-2c0.8,0,1.5,0,2.3,0.1H258H1002.4z"/>
					</g>
				</g>
			</g>
		</g>
	</g>
</g>
<path class="st3" d="M1213.7,1971.7c-33.1,0-62-22-70.7-54.2l-186.2-685.9c-10.6-39,12.6-79.4,51.6-90c7.6-2.1,15.2-3.2,22.8-2.5
	c31.8,1.5,58.8,23.2,67.2,54.1l186.2,685.9c5.2,18.9,2.6,38.6-7.1,55.7c-9.7,17-25.5,29.2-44.5,34.4h-0.1
	c-5.5,1.5-11.1,2.3-16.5,2.5C1215.5,1971.7,1214.6,1971.7,1213.7,1971.7z M1228.5,1952.2L1228.5,1952.2L1228.5,1952.2z M1027.7,1174
	c-3.3,0-6.7,0.5-10.1,1.4c-20.4,5.6-32.5,26.7-27,47.1l186.2,685.9c4.7,17.3,20.4,29,38.3,28.3c2.8-0.1,5.8-0.6,8.8-1.3
	c9.9-2.7,18.1-9.1,23.2-18s6.4-19.2,3.7-29.1l-186.2-686c-4.4-16.3-18.6-27.6-35.4-28.3c-0.4,0-0.8,0-1.2-0.1L1027.7,1174z
	 M1027.6,1173.9C1027.6,1173.9,1027.7,1173.9,1027.6,1173.9C1027.7,1173.9,1027.6,1173.9,1027.6,1173.9z"/>
<g class="st22">
	<g class="st22">
		<g class="st22">
			<g class="st22">
				<g class="st22">
					<g class="st22">
						<path class="st29" d="M1228.5,1959.3c-4.2,1.1-8.5,1.8-12.7,1.9c-25.3,0.9-49-15.6-55.9-41.2l-186.2-686
							c-8.1-29.8,9.5-60.4,39.3-68.6c4.9-1.3,9.8-2,14.6-2c0.8,0,1.5,0,2.3,0.1c23.7,0.9,45.1,17.1,51.6,41.2l186.2,685.9
							C1275.8,1920.5,1258.2,1951.2,1228.5,1959.3z"/>
					</g>
				</g>
			</g>
		</g>
	</g>
</g>
<path class="st3" d="M410.1,1971.7c-33.1,0-62-22-70.7-54.2l-186.2-685.9c-10.6-39,12.6-79.4,51.6-90c6.3-1.7,12.8-2.6,19.3-2.6
	c0.8,0,1.9,0,3.2,0.1l798.1-0.1c0.8,0,1.5,0,2.3,0c33.1,0,62.2,22.3,70.8,54.2l186.2,685.9c10.6,39-12.5,79.4-51.6,90.1h-0.1
	c-6,1.6-12.1,2.4-18,2.5H412.5C411.7,1971.7,410.9,1971.7,410.1,1971.7z M1228.5,1952.3L1228.5,1952.3L1228.5,1952.3z M224.4,1174
	c-3.8,0-7.1,0.5-10.3,1.4c-20.4,5.6-32.5,26.7-27,47.1l186.2,685.9c4.7,17.3,20.4,29,38.4,28.3c0.2,0,0.4,0,0.6,0h802.6
	c2.8,0,6-0.5,9.2-1.3c20.4-5.6,32.5-26.7,26.9-47.1l-186.2-685.9c-4.5-16.7-19.8-28.4-37.1-28.4h-0.7c-0.2,0-0.8,0-1.1,0l-799.5,0.1
	C225.7,1174.1,225,1174.1,224.4,1174z M223.7,1173.9C223.7,1173.9,223.8,1173.9,223.7,1173.9
	C223.8,1173.9,223.7,1173.9,223.7,1173.9z"/>
<path class="st3" d="M670.5,1666.5c23.1-8.6,29.5-48.5,14.3-89s-46.1-66.4-69.2-57.8c-23.1,8.6-29.5,48.5-14.3,89
	C616.4,1649.2,647.4,1675.1,670.5,1666.5z"/>
<g class="st22">
	<g class="st22">
		<g class="st22">
			<g class="st22">
				<g class="st22">
					<g class="st22">
						<path class="st29" d="M1021.1,1401.7c52.9,392.2-162.8,544.6-540.4,552.5h695.2l-12.4-23.4L1021.1,1401.7z"/>
					</g>
				</g>
			</g>
		</g>
	</g>
</g>
<path class="st3" d="M1609.4,1970.8h49.9c2.5,0,4.6-2.1,4.6-4.6v-14.7c0-2.6-2.1-4.6-4.6-4.6h-49.9c-2.6,0-4.6,2.1-4.6,4.6v14.7
	C1604.8,1968.7,1606.8,1970.8,1609.4,1970.8z"/>
<path class="st3" d="M1526.6,1970.8h49.9c2.5,0,4.6-2.1,4.6-4.6v-14.7c0-2.6-2.1-4.6-4.6-4.6h-49.9c-2.6,0-4.6,2.1-4.6,4.6v14.7
	C1522,1968.7,1524.1,1970.8,1526.6,1970.8z"/>
<g class="st22">
	<g class="st22">
		<g class="st22">
			<g class="st22">
				<g class="st22">
					<g class="st22">
						<path class="st29" d="M1757,1955.4c0,16.4-6.7,31.3-17.4,42.1c-10.8,10.8-25.6,17.4-42.1,17.4h-385.7
							c-32.9,0-59.5-26.7-59.5-59.5c0-16.4,6.7-31.3,17.4-42.1c10.8-10.8,25.6-17.4,42.1-17.4h385.7
							C1730.4,1895.8,1757,1922.5,1757,1955.4z"/>
					</g>
				</g>
			</g>
		</g>
	</g>
</g>
<g class="st30">
	<g class="st30">
		<g class="st30">
			<g class="st30">
				<g class="st30">
					<g class="st30">
						<path class="st31" d="M327.3,1475.9c-15-59-23.2-107.8,10.5-116.4c33.7-8.5,73.2,32.3,88.1,91.3s-0.2,113.8-33.9,122.3
							C358.3,1581.8,342.3,1534.9,327.3,1475.9z"/>
					</g>
				</g>
			</g>
		</g>
	</g>
</g>
<g class="st30">
	<g class="st30">
		<g class="st30">
			<g class="st30">
				<g class="st30">
					<g class="st30">
						<path class="st31" d="M383.6,1683.9c-6.1-24.1-8.5-44.3,13.8-49.9c22.3-5.7,45.3,9.3,51.4,33.4s-7,48.2-29.3,53.9
							C397.3,1726.8,389.8,1707.9,383.6,1683.9z"/>
					</g>
				</g>
			</g>
		</g>
	</g>
</g>
<path class="st32" d="M2994.5,2127.6H178.7c-29.1,0-52.7-23.6-52.7-52.7c0-29.1,23.6-52.7,52.7-52.7h2815.8
	c29.1,0,52.7,23.6,52.7,52.7C3047.2,2104,3023.6,2127.6,2994.5,2127.6z"/>
<g class="st0">
	<g class="st0">
		<g class="st0">
			<g class="st0">
				<g class="st0">
					<g class="st0">
						<path class="st1" d="M3047.2,2074.9c0,6.7-1.2,13-3.5,18.8c-7.6-19.8-26.8-33.8-49.2-33.8H178.7c-14.6,0-27.7,5.9-37.3,15.4
							c-5.2,5.2-9.3,11.4-11.9,18.4c-2.3-5.9-3.5-12.2-3.5-18.8c0-14.5,5.9-27.7,15.4-37.2c9.6-9.5,22.7-15.4,37.3-15.4h2815.8
							C3023.6,2022.3,3047.2,2045.9,3047.2,2074.9z"/>
					</g>
				</g>
			</g>
		</g>
	</g>
</g>
<path class="st3" d="M2994.5,2145.1H178.7c-38.7,0-70.2-31.5-70.2-70.2s31.5-70.2,70.2-70.2h2815.8c38.7,0,70.2,31.5,70.2,70.2
	S3033.2,2145.1,2994.5,2145.1z M178.7,2039.8c-19.4,0-35.2,15.8-35.2,35.2s15.8,35.2,35.2,35.2h2815.8c19.4,0,35.2-15.8,35.2-35.2
	s-15.8-35.2-35.2-35.2H178.7z"/>
<path class="st33" d="M2346,1918c0-31,25.2-56.2,56.2-56.2h474.6c13.5,0,24.4-10.9,24.4-24.4s-10.9-24.4-24.4-24.4h-479.1
	c-58,0-105,47-105,105s47,105,105,105h479.1c13.5,0,24.4-10.9,24.4-24.4s-10.9-24.4-24.4-24.4h-474.6
	C2371.1,1974.2,2346,1949,2346,1918z"/>
<path class="st3" d="M2876.8,2035.5h-479.1c-64.8,0-117.5-52.7-117.5-117.5s52.7-117.5,117.5-117.5h479.1
	c20.4,0,36.9,16.6,36.9,36.9s-16.6,36.9-36.9,36.9h-474.6c-24.1,0-43.7,19.6-43.7,43.7s19.6,43.7,43.7,43.7h474.6
	c20.4,0,36.9,16.6,36.9,36.9S2897.1,2035.5,2876.8,2035.5z M2397.7,1825.5c-51,0-92.5,41.5-92.5,92.5s41.5,92.5,92.5,92.5h479.1
	c6.6,0,11.9-5.3,11.9-11.9s-5.3-11.9-11.9-11.9h-474.6c-37.9,0-68.7-30.8-68.7-68.7c0-37.9,30.8-68.7,68.7-68.7h474.6
	c6.6,0,11.9-5.3,11.9-11.9s-5.3-11.9-11.9-11.9H2397.7L2397.7,1825.5z"/>
<g class="st12">
	<g class="st12">
		<g class="st12">
			<g class="st12">
				<g class="st12">
					<g class="st12">
						<path class="st13" d="M2876.8,1985.9h-474.6c-16.7,0-32-6.1-43.9-16.2c12.5,14.7,31,24,51.7,24h474.6c1.5,0,2.8,0.3,4.1,0.8
							C2887,1989.5,2882.3,1985.9,2876.8,1985.9z"/>
					</g>
				</g>
			</g>
		</g>
	</g>
</g>
<g class="st12">
	<g class="st12">
		<g class="st12">
			<g class="st12">
				<g class="st12">
					<g class="st12">
						<path class="st13" d="M2312.2,1925.8c0-51.4,41.9-93.3,93.3-93.3h479.1c1.5,0,2.8,0.3,4.1,0.8c-1.7-5-6.4-8.6-11.9-8.6h-479.1
							c-51.4,0-93.3,41.9-93.3,93.3c0,27.7,12.2,52.6,31.4,69.7C2321.1,1971.2,2312.2,1949.5,2312.2,1925.8z"/>
					</g>
				</g>
			</g>
		</g>
	</g>
</g>
<path class="st34" d="M2398.6,1861.8c-29.1,0-52.7,25.2-52.7,56.2s23.6,56.2,52.7,56.2h470.3v-112.4L2398.6,1861.8L2398.6,1861.8z"
	/>
<path class="st3" d="M2868.9,1985.9h-470.3c-35.5,0-64.4-30.5-64.4-67.9s28.9-67.9,64.4-67.9h470.3c6.5,0,11.7,5.2,11.7,11.7v112.4
	C2880.6,1980.7,2875.4,1985.9,2868.9,1985.9z M2398.6,1873.5c-22.6,0-41,19.9-41,44.5s18.4,44.5,41,44.5h458.6v-88.9L2398.6,1873.5
	L2398.6,1873.5z"/>
<path class="st35" d="M2497.5,1997.6l-17.8-14.2c-3.6-2.9-8.8-2.9-12.5,0l-17.8,14.2c-4,3.2-9.8,0.3-9.8-4.7v-72.1
	c0-3.6,2.9-6.5,6.6-6.5h54.5c3.6,0,6.6,2.9,6.6,6.5v72.1C2507.4,1997.9,2501.5,2000.8,2497.5,1997.6z"/>
<path class="st3" d="M2445.8,2008.9c-2.4,0-4.7-0.5-7-1.6c-5.6-2.7-9.1-8.2-9.1-14.5v-72.1c0-9.1,7.4-16.5,16.5-16.5h54.5
	c9.1,0,16.6,7.4,16.6,16.5v72.1c0,6.2-3.5,11.8-9.1,14.5s-12.1,2-17-1.9l-17.7-14.2l-17.7,14.2
	C2452.9,2007.7,2449.4,2008.9,2445.8,2008.9z M2503.8,1989.8L2503.8,1989.8L2503.8,1989.8z M2473.5,1971.2c4.4,0,8.8,1.5,12.5,4.4
	l11.3,9.1v-60.5h-47.6v60.5l11.3-9.1C2464.7,1972.7,2469.1,1971.2,2473.5,1971.2z"/>
<g class="st12">
	<g class="st12">
		<g class="st12">
			<g class="st12">
				<g class="st12">
					<g class="st12">
						<path class="st13" d="M2457.3,1923.9h-7.8v61.2l7.8-6.2V1923.9z"/>
					</g>
				</g>
			</g>
		</g>
	</g>
</g>
<g class="st12">
	<g class="st12">
		<g class="st12">
			<g class="st12">
				<g class="st12">
					<g class="st12">
						<path class="st13" d="M2493.7,1975.8c-3.6-2.9-8-4.4-12.3-4.4c-1.3,0-2.6,0.2-3.9,0.4c3,0.6,5.9,1.9,8.4,3.9l11.7,9.4v-6.2
							L2493.7,1975.8z"/>
					</g>
				</g>
			</g>
		</g>
	</g>
</g>
<path class="st3" d="M2510.7,1905.2l199.1,7.8l-199.1,7.8c-4.3,0.2-7.9-3.2-8.1-7.5c-0.2-4.3,3.2-7.9,7.5-8.1
	C2510.3,1905.2,2510.5,1905.2,2510.7,1905.2z"/>
<g class="st22">
	<g class="st22">
		<g class="st22">
			<g class="st22">
				<g class="st22">
					<g class="st22">
						<path class="st29" d="M2871.8,1892.1l-524.6,48.2l13.9-58.1l22.8-21.3h42.9h445V1892.1z"/>
					</g>
				</g>
			</g>
		</g>
	</g>
</g>
<path class="st34" d="M2513.4,34.1h532.7c40.1,0,72.6,32.5,72.6,72.6v391.5c0,40.1-32.5,72.6-72.6,72.6h-323.2l-115.3,124.9
	c-28,30.3-78.7,10.5-78.7-30.8v-94.5c-49.3-4-88.1-45.2-88.1-95.5V106.7C2440.8,66.6,2473.3,34.1,2513.4,34.1z"/>
<path class="st3" d="M2574.4,725.4c-7.4,0-14.9-1.4-22.1-4.2c-23.3-9.1-38.4-31.2-38.4-56.2v-81.6c-50.4-10.6-88.1-55.8-88.1-108.5
	V106.8c0-48.3,39.3-87.6,87.6-87.6h532.7c48.3,0,87.6,39.3,87.6,87.6v391.5c0,48.3-39.3,87.6-87.6,87.6h-316.6L2618.7,706
	C2606.9,718.6,2590.9,725.4,2574.4,725.4z M2513.4,49.1c-31.8,0-57.6,25.8-57.6,57.6v368.2c0,41.8,32.6,77.2,74.3,80.6
	c7.8,0.6,13.8,7.1,13.8,15V665c0,15.3,10,24.6,19.3,28.3c9.3,3.6,23,3.5,33.4-7.7l115.3-124.9c2.8-3.1,6.8-4.8,11-4.8h323.2
	c31.8,0,57.6-25.8,57.6-57.6V106.7c0-31.8-25.8-57.6-57.6-57.6H2513.4L2513.4,49.1z"/>
<g class="st36">
	<g class="st36">
		<g class="st36">
			<g class="st36">
				<g class="st36">
					<g class="st36">
						<path class="st37" d="M3078.5,48.4c-11.4,144.4-274.7,383-380.4,473.3c-29.6,25.2-54.9,55-75.2,88.1l-61.7,100.6l37.2-9.7
							l116-129.7l355.1-6.5l56.6-49.4V91.3L3078.5,48.4z"/>
					</g>
				</g>
			</g>
		</g>
	</g>
</g>
<path class="st38" d="M3006.3,491.8h-456c-17.4,0-31.5-14.1-31.5-31.5V130.7c0-13.2,10.7-23.9,23.9-23.9h471.1
	c13.2,0,23.9,10.7,23.9,23.9v329.6C3037.8,477.7,3023.7,491.8,3006.3,491.8z"/>
<path class="st3" d="M3006.3,501.3h-456c-22.6,0-41-18.4-41-41V130.7c0-18.4,15-33.5,33.4-33.5h471.1c18.4,0,33.4,15,33.4,33.5
	v329.6C3047.3,482.9,3028.9,501.3,3006.3,501.3z M2542.7,116.3c-7.9,0-14.4,6.5-14.4,14.4v329.6c0,12.1,9.8,22,21.9,22h456
	c12.1,0,22-9.9,22-22V130.7c0-7.9-6.5-14.4-14.4-14.4L2542.7,116.3L2542.7,116.3z"/>
<g class="st39">
	<g class="st39">
		<g class="st39">
			<g class="st39">
				<g class="st39">
					<g class="st39">
						<path class="st40" d="M2537.8,460.3V130.7c0-7.9,6.5-14.4,14.4-14.4h-9.5c-7.9,0-14.4,6.5-14.4,14.4v329.6
							c0,12.1,9.8,22,22,22h9.5C2547.7,482.3,2537.8,472.4,2537.8,460.3z"/>
					</g>
				</g>
			</g>
		</g>
	</g>
</g>
<path class="st41" d="M2878.5,354.8H2573c-4.1,0-7.5-3.4-7.5-7.5s3.4-7.5,7.5-7.5h305.5c4.1,0,7.5,3.4,7.5,7.5
	S2882.6,354.8,2878.5,354.8z"/>
<path class="st42" d="M2681.4,398.7H2573c-4.1,0-7.5-3.4-7.5-7.5s3.4-7.5,7.5-7.5h108.4c4.1,0,7.5,3.4,7.5,7.5
	C2688.9,395.3,2685.5,398.7,2681.4,398.7z"/>
<path class="st7" d="M2931,398.7h-206.9c-4.1,0-7.5-3.4-7.5-7.5s3.4-7.5,7.5-7.5H2931c4.1,0,7.5,3.4,7.5,7.5
	C2938.5,395.3,2935.2,398.7,2931,398.7z"/>
<path class="st6" d="M2825.9,447.4H2573c-4.1,0-7.5-3.4-7.5-7.5s3.4-7.5,7.5-7.5h252.9c4.1,0,7.5,3.4,7.5,7.5
	S2830.1,447.4,2825.9,447.4z"/>
<g class="st36">
	<g class="st36">
		<g class="st36">
			<g class="st36">
				<g class="st36">
					<g class="st36">
						<path class="st37" d="M3025.9,109.1c0,0-184.5,371.4-504,357.7l16.3,26.4h475.6l24.4-22.4l-0.1-339.1L3025.9,109.1z"/>
					</g>
				</g>
			</g>
		</g>
	</g>
</g>
<path class="st43" d="M2746.1,1808h-256.9l-40.2-441h337.2L2746.1,1808z"/>
<path class="st3" d="M2746.1,1821.6h-256.9c-7,0-12.9-5.4-13.5-12.3l-40.2-441c-0.4-3.8,0.9-7.6,3.5-10.4s6.2-4.4,10-4.4h337.2
	c3.8,0,7.4,1.6,10,4.4s3.8,6.6,3.5,10.4l-40.2,441C2759,1816.2,2753.1,1821.6,2746.1,1821.6z M2501.6,1794.4h232.1l37.7-413.9
	h-307.5L2501.6,1794.4z"/>
<g class="st39">
	<g class="st39">
		<g class="st39">
			<g class="st39">
				<g class="st39">
					<g class="st39">
						<path class="st40" d="M2463.9,1380.6l37.7,413.9h27.1l-37.7-413.9H2463.9z"/>
					</g>
				</g>
			</g>
		</g>
	</g>
</g>
<path class="st44" d="M2822.7,1464h-388.8v224.1h388.8V1464z"/>
<path class="st3" d="M2822.7,1698.2h-388.8c-5.5,0-10-4.5-10-10V1464c0-5.5,4.5-10,10-10h388.8c5.5,0,10,4.5,10,10v224.1
	C2832.7,1693.7,2828.2,1698.2,2822.7,1698.2z M2443.9,1678.2h368.8V1474h-368.8V1678.2z"/>
<g class="st12">
	<g class="st12">
		<g class="st12">
			<g class="st12">
				<g class="st12">
					<g class="st12">
						<path class="st13" d="M2490.9,1676.8h27.1l-18.4-201.5h-27.1L2490.9,1676.8z"/>
					</g>
				</g>
			</g>
		</g>
	</g>
</g>
<g>
	<path class="st3" d="M2572.4,1608.6c0.1,0,0.2-0.1,0.4-0.1c1.1-0.1,6.2-2.9,11.4-6.8c5.3-3.9,11.2-9.1,15.7-14
		c1.7-1.9,3.2-3.8,4.3-5.5c4.1-6.1,5.7-12.7,7.7-20.5c2-7.6,4.6-16.4,11.6-25c0.3-0.4,0.6-0.8,1-1.2c5.7-6.3,12.2-8.9,18-11.5
		c2.5-1.1,4.9-2.3,7.2-3.6c-5.3-2.6-11.4-3.7-17.8-3.3c-15.2,0.9-32.4,9.6-46,24.8C2566.1,1564,2560.9,1592.2,2572.4,1608.6z"/>
	<path class="st3" d="M2668.8,1578.4c1-2.9,1.8-5.8,2.3-8.6c0.7-3.7,1-7.4,1-10.9c-0.2-9.2-3.1-17.3-8.8-23.3
		c-4.4,3.1-8.7,5.1-12.4,6.7c-6.1,2.7-10.5,4.7-14,8.6c-0.2,0.2-0.4,0.5-0.6,0.8c-5.4,6.6-7.4,13.2-9.4,20.6s-3.7,15.7-9.3,24
		c-1.5,2.3-3.4,4.6-5.3,6.8c-5.2,5.8-11.6,11.4-17.5,15.7c-3.6,2.6-6.8,4.7-9.7,6.3c6,4.2,13.5,6,21.6,5.5
		c15-0.8,32.1-9.4,45.6-24.5c0.1-0.1,0.2-0.3,0.4-0.4C2660.2,1597.2,2665.6,1587.7,2668.8,1578.4z"/>
</g>
<path class="st45" d="M2814.3,1385.7H2421v-6.3c0-25.2,20.4-45.6,45.6-45.6h302.1c25.2,0,45.6,20.4,45.6,45.6L2814.3,1385.7
	L2814.3,1385.7z"/>
<path class="st3" d="M2814.3,1399.2H2421c-7.5,0-13.6-6.1-13.6-13.6v-6.3c0-32.6,26.5-59.2,59.2-59.2h302.1
	c32.6,0,59.2,26.5,59.2,59.2v6.3C2827.9,1393.2,2821.8,1399.2,2814.3,1399.2z M2435.4,1372.1h364.5c-3.3-14.2-16-24.8-31.2-24.8
	h-302.1C2451.5,1347.3,2438.7,1357.9,2435.4,1372.1z"/>
<g class="st12">
	<g class="st12">
		<g class="st12">
			<g class="st12">
				<g class="st12">
					<g class="st12">
						<path class="st13" d="M2475.7,1356.4h302.1c6.6,0,12.6,2.1,17.8,5.5c-5.7-8.7-15.6-14.6-26.8-14.6h-302.1
							c-15.2,0-27.9,10.6-31.2,24.8h12.8C2453.8,1362.7,2464,1356.4,2475.7,1356.4z"/>
					</g>
				</g>
			</g>
		</g>
	</g>
</g>
<path class="st45" d="M2468.8,1333.8h297.8V1316c0-14.6-11.5-26.7-26.2-27.3l-243.1-10.6c-15.6-0.7-28.5,11.8-28.5,27.3V1333.8
	L2468.8,1333.8z"/>
<path class="st3" d="M2766.6,1347.3h-297.8c-7.5,0-13.6-6.1-13.6-13.6v-28.4c0-11.3,4.5-21.8,12.6-29.5c8.1-7.8,18.8-11.8,30.1-11.3
	l243.1,10.6c21.9,1,39.1,18.9,39.1,40.9v17.9C2780.1,1341.3,2774.1,1347.3,2766.6,1347.3z M2482.3,1320.2H2753v-4.3
	c0-7.4-5.8-13.4-13.2-13.8l-243.1-10.6c-3.8-0.2-7.4,1.2-10.1,3.8s-4.2,6.2-4.2,9.9L2482.3,1320.2L2482.3,1320.2z"/>
<g class="st12">
	<g class="st12">
		<g class="st12">
			<g class="st12">
				<g class="st12">
					<g class="st12">
						<path class="st13" d="M2491.4,1309.9c0-3.8,1.5-7.3,4.2-9.9s6.3-4,10.1-3.8l243.1,10.6c0.2,0,0.4,0.1,0.6,0.1
							c-2.4-2.7-5.8-4.4-9.7-4.6l-243.1-10.6c-3.8-0.2-7.4,1.2-10.1,3.8s-4.2,6.2-4.2,9.9v14.9h9L2491.4,1309.9L2491.4,1309.9z"/>
					</g>
				</g>
			</g>
		</g>
	</g>
</g>
<g class="st22">
	<g class="st22">
		<g class="st22">
			<g class="st22">
				<g class="st22">
					<g class="st22">
						<path class="st29" d="M2464.9,1391.5l1.2,13.7l196.2,6.8c33.6,1.2,58.4,31.6,52.8,64.7c-17.4,103.4-69.4,299.8-214.1,312.2
							l0.5,5.5h223.1l36.7-402.9L2464.9,1391.5L2464.9,1391.5z"/>
					</g>
				</g>
			</g>
		</g>
	</g>
</g>
<g class="st22">
	<g class="st22">
		<g class="st22">
			<g class="st22">
				<g class="st22">
					<g class="st22">
						<path class="st29" d="M3077.5,2318H92.5c-51.1,0-92.5-41.4-92.5-92.5s41.4-92.5,92.5-92.5h2985c51.1,0,92.5,41.4,92.5,92.5
							S3128.6,2318,3077.5,2318z"/>
					</g>
				</g>
			</g>
		</g>
	</g>
</g>
<path class="st3" d="M807.3,1034.9c-16.6,0-31.5-8.6-39.8-23l-36.7-63.5h-93.6c-37.6-0.2-68.2-28.4-68.2-62.9V715.8
	c0-34.7,30.7-62.9,68.5-62.9H977c37.8,0,68.5,28.2,68.5,62.9v169.8c0,34.7-30.7,62.9-68.5,62.9h-93.2l-36.7,63.5
	C838.8,1026.3,823.9,1034.9,807.3,1034.9z"/>
<path class="st33" d="M977,668.8c29.1,0,52.6,21,52.6,47v169.8c0,26-23.6,47-52.6,47H874.6l-9.8,17l-31.5,54.5
	c-5.8,10-15.9,15-26,15s-20.2-5-26-15l-31.5-54.5l-9.8-17H637.3c-28.9-0.2-52.3-21.1-52.3-47V715.8c0-25.9,23.6-47,52.6-47H977
	L977,668.8z M977,637H637.6c-46.5,0-84.4,35.3-84.4,78.7v169.8c0,43.1,37.6,78.5,83.9,78.7h84.6l0.7,1.1l31.5,54.5
	c11.2,19.3,31.2,30.9,53.5,30.9s42.4-11.6,53.5-30.9l31.5-54.5l0.6-1.1h84c46.5,0,84.4-35.3,84.4-78.7V715.8
	C1061.4,672.4,1023.5,637,977,637z"/>
<path class="st34" d="M756.3,857.5c-2.5,0-5-0.9-7-2.8l-51.5-50.1c-1.9-1.9-3-4.5-3-7.2s1.1-5.3,3-7.2l48.1-46.8
	c4-3.8,10.3-3.8,14.1,0.2c3.9,4,3.8,10.3-0.2,14.1L719,797.4l44.1,42.9c4,3.9,4,10.2,0.2,14.1C761.5,856.5,758.9,857.5,756.3,857.5z
	"/>
<path class="st34" d="M858.4,857.5c-2.6,0-5.2-1-7.2-3c-3.9-4-3.8-10.3,0.2-14.1l44.1-42.9l-40.8-39.7c-4-3.9-4-10.2-0.2-14.1
	c3.8-4,10.2-4,14.1-0.2l48.1,46.8c1.9,1.9,3,4.5,3,7.2s-1.1,5.3-3,7.2l-51.4,50.1C863.4,856.6,860.9,857.5,858.4,857.5z"/>
<path class="st34" d="M788.2,884.5c-0.8,0-1.7-0.1-2.6-0.3c-5.3-1.4-8.5-6.9-7.1-12.2l39.8-150.8c1.4-5.3,6.9-8.5,12.2-7.1
	s8.5,6.9,7.1,12.2L797.9,877C796.7,881.5,792.7,884.5,788.2,884.5z"/>
<g class="st36">
	<g class="st36">
		<g class="st36">
			<g class="st36">
				<g class="st36">
					<g class="st36">
						<path class="st37" d="M977,668.8h-35c29.1,0,52.6,21,52.6,47v59.5C980,893,894.3,906.1,856,925c-10.9,5.4-20,13.8-26.1,24.3
							l-0.1,0.2l-31.5,54.5c-2.3,3.9-5.2,7-8.5,9.4c13.7,9.8,34.2,6.7,43.5-9.4l29.2-50.5l130-13l7.7-12.8
							c17.4-7.7,29.4-23.6,29.4-42.1V715.8C1029.6,689.8,1006.1,668.8,977,668.8z"/>
					</g>
				</g>
			</g>
		</g>
	</g>
</g>
<g>
	<g>
		<path class="st46" d="M2131.4,910.5c11.1-18.9,46.5-76.2,85.5-98.1c6.5-3.7,13.9-6.7,22.3-5.8c26,2.8,40.7,40.5,42.7,45.7
			c27.2,69.3-30.6,150.7-64.1,181.7c-6.9,6.4-15.4,13-27.2,17.5c-32.8,12.5-65.1-1.2-76.8-6.8"/>
		<path class="st47" d="M2143.6,913.9c38.2-41.7,76.7-57.6,94.2-45.7c14,9.5,14,36.2,7.8,53.4c-11.8,32.9-54.1,54.4-105.9,50.5"/>
	</g>
	<g>
		<path class="st46" d="M1497.1,897.6c-11.1-18.9-46.5-76.2-85.5-98.1c-6.5-3.7-13.9-6.7-22.3-5.8c-26,2.8-40.7,40.5-42.7,45.7
			c-27.2,69.3,30.6,150.7,64.1,181.7c6.9,6.4,15.4,13,27.2,17.5c32.8,12.5,65.1-1.2,76.8-6.8"/>
		<path class="st47" d="M1484.8,901c-38.2-41.7-76.7-57.6-94.2-45.7c-14,9.5-14,36.2-7.8,53.4c11.8,32.9,54.1,54.4,105.9,50.5"/>
	</g>
	<g>
		<path class="st21" d="M1455.3,601.5c11.6-6.9,25.5-16.6,39.3-29.6c50.3-47.5,65.6-108.4,70.9-139.9
			c102.3,124.1,202.3,175.8,274,200.1c0,0,188,61.5,355.2,57.6c-1.1,80.8-5.7,149.6-10.6,202.7c-11.7,127-24.7,164.5-46,197.5
			c-28.1,43.5-65.2,69.3-91.3,85.5c-49.4,30.7-74.7,39.7-123.7,62.2c-13.4,5.4-56.8,16.8-81.6,18.1c-33.3,1.8-59.8-5.9-75.1-11.7
			c-70.8-27.2-102.8-46.2-173.2-83.8c-16.6-8.9-52.4-35.6-70.4-61.3c-27.4-39.1-36.6-77.6-40.2-99.7c-14.9-77.2-29-280.7-27.4-388.7
			"/>
		<path class="st47" d="M2145,701.9c-8,2.1-19.6,5.8-28.5,7.8c-16.3-7.3-83.3-20.2-110.5-19c-41.1,1.8-27.5,12.6-38.9,21.2
			c-81.2-0.9-206-37-263.2-68.7c-65-35.9-90.8-72.6-116.9-117c-1.9,7.5-4.2,14.6-6.8,21.4c-22,57.9-68.3,95.7-111.3,121.9
			c-1.2-14.2-1.5-42.2-0.8-60.4c12.1-9.2,21.4-14.8,31.3-24.2c50.3-47.5,66.8-93.3,72.1-124.8C1694.7,586,1783.1,627,1854.8,651.4
			C1854.8,651.3,1997.4,692.5,2145,701.9z"/>
		<path class="st14" d="M1517.9,703.1c14.6-7.3,51.8-23.5,100.1-17.5c36.9,4.6,63.4,20,76.8,29.1"/>
		<path class="st48" d="M1956.1,711.8c10.3-7.9,39.7-28.3,82.6-30.1c47.6-2.1,81.2,20,91.3,27.2"/>
		<path class="st49" d="M1734.6,1069.3c6.5,6.4,39,37.3,90.4,37.9c53.3,0.6,87.2-31.8,93.3-37.9"/>
		<path class="st50" d="M1515,996.5c6.2,34.9,50,46.6,57.3,48.6c7.3,1.9,52.4,14,79.7-16.5c15.5-17.4,21.2-44.1,12.6-65.1
			c-16.4-40.2-82.2-52.6-119.5-27.2C1528.7,947.4,1510.5,970.9,1515,996.5z"/>
		<path class="st51" d="M1546.1,967.3c-6.3,9-7.5,22-2.9,32.1c9.5,20.6,43.6,28.4,66.1,14.6c15.3-9.4,27.2-30,21.4-43.7
			C1621.1,947.7,1563.7,942.2,1546.1,967.3z"/>
		<ellipse class="st52" cx="1618" cy="859.3" rx="85.9" ry="82.9"/>
		<circle class="st53" cx="1623.3" cy="857.1" r="74.4"/>
		<ellipse class="st54" cx="1644.2" cy="822.2" rx="20.9" ry="21.9"/>
		<g>
			<path d="M1702.8,843.3c-28.6-52.7-90-77.5-137.9-33.1c-13.1,11.7-25.6,27.4-33.6,42.2l-33.6-18.8l0.4-0.6
				c0.7-1.1,1.9-2.7,2.7-3.8c23-29.7,54.5-57.1,92.5-64.1c28.3-5.2,58.2,4.9,79.5,23.3c16.7,14.2,28.8,32.5,36.1,52.1
				C1708.9,840.6,1702.8,843.3,1702.8,843.3L1702.8,843.3z"/>
		</g>
		<path class="st50" d="M1960.9,988.7c2.1,34.8,41.4,56.5,71.9,59.3c4.3,0.4,43.1,3.2,68-27.2c2.4-3,25-31.3,15.5-60.2
			c-11.6-35.4-64.6-50.8-103-36.9C1989.4,932.3,1959,956.7,1960.9,988.7z"/>
		<path class="st51" d="M2010.5,963.4c-7,6.1-15.1,17.7-12.6,29.1c4.4,20.5,42,34.5,69,22.3c15.9-7.2,31.9-25.1,28.2-38.9
			C2089.3,954.7,2035.8,941.3,2010.5,963.4z"/>
		<g>
			<ellipse class="st52" cx="2035.7" cy="858.5" rx="85.9" ry="82.9"/>
			<circle class="st53" cx="2030.4" cy="856.3" r="74.4"/>
			<ellipse class="st54" cx="2056.6" cy="822.2" rx="20.9" ry="21.9"/>
			<g>
				<path d="M1944.8,839.7c16.7-46.5,63.9-84.6,115.6-75.4c36.9,6.8,66.9,32.4,89.9,60.7c1.9,2.5,4,5.1,5.7,7.8
					c0,0.1-34.2,18.8-33.5,18.9l-0.1-0.2l-0.3-0.6c-1.9-3.4-4-6.7-6.2-10c-17.1-25.3-42.7-50.9-73.8-54.1
					c-38.5-4.2-73.3,22.6-91.1,55.7C1950.9,842.5,1944.8,839.7,1944.8,839.7L1944.8,839.7z"/>
			</g>
		</g>
		<path class="st55" d="M1813.5,986.3c8,0.1,16.1,0.1,24.1,0.2c-0.6,6.1-5.5,10.8-11.2,11.2C1820.1,998,1814.2,993.1,1813.5,986.3z"
			/>
	</g>
</g>
<g>
	<path class="st56" d="M2659.3,1064.7c-11.2,18.8-30.9,48.1-16.5,69.2c4.9,7.3,11.7,14.3,16.7,22c5.4,8.2,9.6,17.4,12,26.9
		c1,3.6,1.8,7.7,1.9,11.4c0.4,10.2-2.8,19.9-7.3,28.8c-2.7,5.2-6.1,10.4-9.6,15.1c-5.8,7.5-12.2,14.3-19.1,20.6l-0.7-0.7
		c14-18.9,33.8-47.9,24.5-72.1c-2.8-8.3-6.7-16-11.8-23c-5.4-7.6-12-13.7-17.5-21.7c-9.6-13.2-9.4-31.3-3.1-45.9
		c4-9.2,10.3-17.1,17.9-23.5c3.7-3.1,7.7-5.8,12.1-7.9C2658.6,1064,2659.3,1064.7,2659.3,1064.7L2659.3,1064.7z"/>
</g>
<g>
	<path class="st56" d="M2608.5,1152.7c-1.9,14.4-7.4,30.3,2.4,42.6c5.3,6.5,12,10,17.8,16.8c11.9,14.4,2.9,31.6-9,42.3l-0.8-0.6
		c2.6-4.1,5.1-8.3,6.8-12.7c3.5-8.2,3.8-17.5-2.8-23.9c-3-3-6.9-5.6-11-8.6c-9.4-6.8-15.6-15.9-16.1-27.7
		c-0.3-10.8,4.1-21,11.6-28.5C2607.6,1152.2,2608.5,1152.7,2608.5,1152.7L2608.5,1152.7z"/>
</g>
</svg>
