<svg xmlns="http://www.w3.org/2000/svg" viewBox="0 0 1640.79 3058.57"><defs><style>.cls-1{fill:#fcdb4b;}.cls-2{opacity:0.7;}.cls-3{fill:#fff;}.cls-4{fill:#41acea;}.cls-5{opacity:0.3;}.cls-6{fill:#371b45;}.cls-7{fill:#7dbcf4;}</style></defs><g id="Layer_2" data-name="Layer 2"><g id="Layer_1-2" data-name="Layer 1"><path class="cls-1" d="M194.3,2979.11c12.47,14,31.15,14.74,44.58,6.64A34.2,34.2,0,0,0,255.66,2955l-5.15-225.1a129.9,129.9,0,0,1,60.64-112.94c31.83-20.11,80.05-44.8,153.1-73.29L308,2225.38s-26.68.28-63.88,9.61c-83.23,20.89-219.22,87.19-226.94,297.6C9.64,2736.92,120.57,2896.38,194.3,2979.11Z"/><path class="cls-1" d="M1176.52,2543.65c73,28.49,121.27,53.18,153.1,73.29a130.05,130.05,0,0,1,60.69,112.94l-5.2,225.1a34.15,34.15,0,0,0,15.16,29.66c13.53,9.27,33.17,9.05,46.2-5.53,73.79-82.73,184.71-242.19,177.16-446.52-11.19-304.41-290.82-307.21-290.82-307.21l-20.09,40.84Z"/><g class="cls-2"><path class="cls-3" d="M1422,2990.89a34.21,34.21,0,0,0,24.5-11.78c73.79-82.73,184.71-242.19,177.16-446.52-11.19-304.41-290.82-307.21-290.82-307.21L1320.22,2251c66.57,8.21,259.22,53.73,268.45,305.36C1595.88,2751.22,1495.31,2905.32,1422,2990.89Z"/></g><path class="cls-4" d="M529.08,2587.66l20.36,150a89,89,0,0,0,88.26,77h368.66a89,89,0,0,0,88.26-77l20.35-150"/><g class="cls-2"><path class="cls-3" d="M1115,2587.67l-20.36,150a89,89,0,0,1-88.27,77H967.83a89,89,0,0,0,88.27-77l20.36-150Z"/></g><g class="cls-5"><path class="cls-6" d="M529.09,2587.67l20.36,150a89,89,0,0,0,88.27,77h184.2a89,89,0,0,1-88-77l-20.36-150Z"/></g><path class="cls-6" d="M220.35,3007.72a51.51,51.51,0,0,1-38.56-17.45C110.67,2910.48-7.45,2744.84.37,2532c6.07-165.14,89.47-244.43,158.37-281.86,74.13-40.28,146.05-41.45,149.08-41.48a16.76,16.76,0,1,1,.36,33.51c-.78,0-67.7,1.32-134.52,38-88.34,48.51-135.36,133.65-139.75,253C26.52,2734.36,139.1,2892,206.86,2968a18.34,18.34,0,0,0,32-12.6l-5.17-225.1a147.58,147.58,0,0,1,68.45-127.52c38.14-24.09,90.63-49.24,156-74.74a16.76,16.76,0,1,1,12.22,31.21C407,2584,356.46,2608.14,320.12,2631.09a113.88,113.88,0,0,0-52.84,98.42l5.18,225.09A51.4,51.4,0,0,1,239.58,3004,52.43,52.43,0,0,1,220.35,3007.72Z"/><path class="cls-6" d="M1420.44,3007.72a52.43,52.43,0,0,1-19.23-3.68,51.38,51.38,0,0,1-32.88-49.44l5.18-225.09a113.9,113.9,0,0,0-52.84-98.42c-36.34-23-86.89-47.13-150.27-71.86a16.76,16.76,0,1,1,12.22-31.21c65.36,25.5,117.85,50.65,156,74.74a147.58,147.58,0,0,1,68.45,127.52l-5.17,225.1a18.34,18.34,0,0,0,32,12.6c67.76-76,180.34-233.62,173-434.77-4.39-119.39-51.41-204.53-139.75-253-66.88-36.72-133.85-38-134.52-38a16.76,16.76,0,0,1,.19-33.51h.17c3,0,75,1.2,149.08,41.48,68.9,37.43,152.3,116.72,158.37,281.86,7.82,212.86-110.31,378.5-181.42,458.29A51.51,51.51,0,0,1,1420.44,3007.72Z"/><path class="cls-3" d="M447.08,2519.63a155.18,155.18,0,0,0,134.25,77.2h481.24a155.17,155.17,0,0,0,134.25-77.2C1511,1978.39,1546.55,1302.81,1322.68,734.69,1215.06,461.55,1047.52,213.22,822.09,16.6h-.33c-12,10.45-23.72,21-35.36,31.78C578.76,239.64,423.08,476,321.16,734.64,97.36,1302.81,132.88,1978.39,447.08,2519.63Z"/><path class="cls-1" d="M321.16,734.64l.06.05q500.6-204.35,1001.46,0C1215.06,461.55,1047.52,213.22,822.09,16.6h-.33C596.38,213.22,428.79,461.5,321.16,734.64Z"/><g class="cls-2"><path class="cls-3" d="M1253.37,734.69c223.87,568.12,188.35,1243.7-125.86,1784.94a155.17,155.17,0,0,1-134.25,77.2h69.31a155.17,155.17,0,0,0,134.25-77.2C1511,1978.39,1546.55,1302.81,1322.68,734.69,1215.06,461.55,1047.52,213.22,822.09,16.6h-.33q-17.46,15.25-34.52,31C995.33,238.91,1151.29,475.69,1253.37,734.69Z"/></g><path class="cls-6" d="M1062.54,2613.59H581.34a172.51,172.51,0,0,1-148.78-85.54C204,2134.33,115.39,1659.94,183,1192.26,251.39,719.46,474.32,297.46,810.73,4c6.11-5.33,16.31-5.33,22.43,0,336.41,293.46,559.33,715.46,627.7,1188.26,67.63,467.68-21,942.07-249.53,1335.79A172.52,172.52,0,0,1,1062.54,2613.59ZM821.94,38.8C156.52,629.37-2.25,1712.16,461.6,2511.25a138.82,138.82,0,0,0,119.74,68.82h481.2a138.83,138.83,0,0,0,119.75-68.82C1646.14,1712.16,1487.36,629.36,821.94,38.8Z"/><g class="cls-5"><path class="cls-6" d="M447.08,2519.63a155.18,155.18,0,0,0,134.25,77.2H809.62v-337C630.73,2129,518.91,1928.9,463,1695.36a375.13,375.13,0,0,0,24,34.86c128.38,165.56,366.9,195.89,532.7,67.64s196.12-366.36,67.74-531.92-366.9-195.83-532.7-67.64a377.22,377.22,0,0,0-133.13,197.56C399.37,937.67,542.85,418.82,786.4,48.38,578.76,239.64,423.08,476,321.16,734.64,97.36,1302.81,132.88,1978.39,447.08,2519.63Z"/></g><ellipse class="cls-4" cx="822.08" cy="1408.34" rx="379.71" ry="379.16"/><g class="cls-5"><path class="cls-6" d="M459.08,1514.31c61.43,200.21,273.8,312.74,474.3,251.4,169.66-51.9,276.41-211.6,268.06-380.81-18,136.79-113.59,257.31-254.3,300.36-192.24,58.81-395.8-49.12-454.67-241a361.68,361.68,0,0,1,14.88-253.08C445.56,1282.86,424.16,1400.47,459.08,1514.31Z"/></g><g class="cls-2"><path class="cls-3" d="M442.49,1418.26a378.13,378.13,0,0,1,144.82-256.69c165.8-128.21,404.3-98,532.7,67.57a376.74,376.74,0,0,1,79.39,222.24,377.67,377.67,0,0,0-77.1-275.16c-128.39-165.55-366.88-195.89-532.68-67.68C490.28,1185.35,439.56,1301.66,442.49,1418.26Z"/></g><path class="cls-6" d="M822.53,1804.09c-118.56,0-235.89-52.72-313.93-153.35-64.85-83.61-93.2-187.43-79.84-292.34s66.82-198.34,150.56-263.09,187.72-93,292.77-79.73,198.64,66.74,263.48,150.35,93.2,187.44,79.84,292.34-66.82,198.34-150.56,263.09A394.9,394.9,0,0,1,822.53,1804.09Zm-1.19-758.21a360.49,360.49,0,0,0-221.47,75.93c-76.65,59.27-125.59,144.79-137.82,240.82a359.63,359.63,0,0,0,73.09,267.6c122.52,158,350.94,187,509.16,64.64A362,362,0,0,0,1109,1186.45c-59.35-76.54-145-125.41-241.17-137.62A370.18,370.18,0,0,0,821.34,1045.88Z"/><path class="cls-7" d="M614.37,1568.77A259.84,259.84,0,0,0,736.51,1656a254.27,254.27,0,0,0,69.24,13.74A258.49,258.49,0,0,0,879,1664a261.12,261.12,0,0,0,103.44-48.57c2.42-1.87,4.79-3.82,7-5.78,108.36-89.77,126.6-249.71,39.77-361.68a262.28,262.28,0,0,0-220.8-101.23,261.53,261.53,0,0,0-135.23,45.72c-4.06,2.79-8.07,5.65-12,8.72C546.54,1289.82,525.6,1454.3,614.37,1568.77Z"/><g class="cls-5"><path class="cls-6" d="M563.12,1364.33a262.34,262.34,0,0,1,55.72-58.79c4-3.07,8-5.93,12-8.71A261.42,261.42,0,0,1,766.1,1251.1,262,262,0,0,1,1038,1556.49a262,262,0,0,0-229.61-409.75,261.53,261.53,0,0,0-135.23,45.72c-4.06,2.79-8.07,5.65-12,8.72A260.82,260.82,0,0,0,563.12,1364.33Z"/></g><g class="cls-2"><path class="cls-3" d="M571.35,1433.46a261,261,0,0,0,40.78,116l321.81-248.56a255,255,0,0,0-46.82-27.09,261.16,261.16,0,0,0-80.94-21.72Z"/></g><g class="cls-2"><path class="cls-3" d="M660.18,1604.94a258.38,258.38,0,0,0,59.18,38.71l301.73-233.15a260,260,0,0,0-34.06-58Z"/></g><path class="cls-6" d="M822.1,1687c-83.48,0-166.08-37.12-221-108a278.5,278.5,0,0,1,49.79-391.07c121.7-94.1,297.4-71.8,391.64,49.72s71.91,297-49.79,391.07A278,278,0,0,1,822.1,1687Zm-.59-523.78a245.09,245.09,0,0,0-193.9,395.29c82.91,106.92,237.48,126.54,344.55,43.75s126.72-237.14,43.81-344C967.63,1195.86,894.94,1163.2,821.51,1163.2Z"/><path class="cls-6" d="M1322.67,751.46a16.73,16.73,0,0,1-6.34-1.25c-328.2-133.84-660.87-133.85-988.77,0a16.76,16.76,0,1,1-12.7-31c336.33-137.28,677.54-137.28,1014.16,0a16.75,16.75,0,0,1-6.35,32.27Z"/><path class="cls-6" d="M1006.36,2831.43H637.7c-52.72,0-97.82-39.34-104.89-91.51l-20.35-150a16.78,16.78,0,0,1,33.25-4.5l20.35,150a72.51,72.51,0,0,0,71.64,62.49h368.66a72.49,72.49,0,0,0,71.63-62.49l20.36-150a16.78,16.78,0,0,1,33.25,4.5l-20.35,150C1104.18,2792.09,1059.09,2831.43,1006.36,2831.43Z"/><ellipse class="cls-1" cx="809.6" cy="2650.82" rx="96.03" ry="390.99"/><g class="cls-2"><path class="cls-3" d="M864.44,2660.62c0,179.13-29.54,330.11-69.93,376.36a27.27,27.27,0,0,0,15.11,4.85c53,0,96-175,96-391s-43-391-96-391c-9.06,0-17.85,5.08-26.13,14.63C829.42,2304,864.44,2465.62,864.44,2660.62Z"/></g><path class="cls-6" d="M809.6,3058.57c-35.13,0-63.46-42.82-84.2-127.29-18.45-75.11-28.61-174.71-28.61-280.46S707,2445.47,725.4,2370.36c20.74-84.46,49.07-127.29,84.2-127.29s63.46,42.83,84.2,127.29c18.45,75.11,28.61,174.72,28.61,280.46s-10.16,205.35-28.61,280.46C873.06,3015.75,844.73,3058.57,809.6,3058.57Zm0-782c-27.66,0-79.25,128.53-79.25,374.23s51.59,374.24,79.25,374.24,79.24-128.53,79.24-374.24S837.25,2276.59,809.6,2276.59Z"/><g class="cls-5"><path class="cls-6" d="M1176.52,2543.65c73,28.49,121.27,53.18,153.1,73.29a130.05,130.05,0,0,1,60.69,112.94l-5.2,225.1a34.15,34.15,0,0,0,15.16,29.66c69.47-120.48,92.69-447.41-13.59-519.13-104.67-70.66-58.57-218.84-57.17-223.26l-16.79,24Z"/></g><g class="cls-5"><path class="cls-6" d="M238.88,2985.75A34.2,34.2,0,0,0,255.66,2955l-5.15-225.1a129.9,129.9,0,0,1,60.64-112.94c31.83-20.11,80.05-44.8,153.1-73.29L308,2225.38s-26.68.28-63.88,9.61c13.09,37.26,53.2,174.83-28.36,270.62C127.23,2609.56,224.9,2940.46,238.88,2985.75Z"/></g></g></g></svg>