<?xml version="1.0" encoding="utf-8"?>
<!-- Generator: Adobe Illustrator 25.0.1, SVG Export Plug-In . SVG Version: 6.00 Build 0)  -->
<svg version="1.1" id="Layer_1" xmlns="http://www.w3.org/2000/svg" xmlns:xlink="http://www.w3.org/1999/xlink" x="0px" y="0px"
	 viewBox="0 0 512 512" style="enable-background:new 0 0 512 512;" xml:space="preserve">
<style type="text/css">
	.st0{fill:#D6D6D6;}
</style>
<path class="st0" d="M435.2,0H76.8C34.4,0,0,34.4,0,76.8v358.4C0,477.6,34.4,512,76.8,512h358.4c42.4,0,76.8-34.4,76.8-76.8V76.8
	C512,34.4,477.6,0,435.2,0z M173.5,392h-65.2V194h65.2V392z M140.9,172.7c-21.5,0-38.9-17.4-38.9-38.9s17.4-38.9,38.9-38.9
	c21.5,0,38.9,17.4,38.9,38.9S162.4,172.7,140.9,172.7z M411,392h-66V287c0-27-9-45-33-45c-20.2,0-32.6,15.4-35.4,32.6V392h-65.2V194
	h31.9c0.5-0.1,1-0.1,1.5-0.1c0.2,0,0.3,0,0.5,0c0.3,0,0.6,0,0.9,0.1h30.4v26c0.2,0,0.4,0.1,0.6,0.1c8.5-12.9,25.4-30.1,57.8-30.1
	c44,0,76,28,76,89V392z"/>
</svg>
