<?xml version="1.0" encoding="utf-8"?>
<!-- Generator: Adobe Illustrator 25.0.1, SVG Export Plug-In . SVG Version: 6.00 Build 0)  -->
<svg version="1.1" id="Layer_1" xmlns="http://www.w3.org/2000/svg" xmlns:xlink="http://www.w3.org/1999/xlink" x="0px" y="0px"
	 viewBox="0 0 512 512" style="enable-background:new 0 0 512 512;" xml:space="preserve">
<style type="text/css">
	.st0{fill:#D6D6D6;}
</style>
<path class="st0" d="M77.4,0h357c42.2,0,76.5,34.4,76.5,76.8v358.4c0,42.4-34.3,76.8-76.5,76.8h-357c-42.2,0-76.5-34.4-76.5-76.8
	V76.8C0.9,34.4,35.1,0,77.4,0z M87.5,226c-16.9,92.9,44.4,182,136.9,199c20.3,3.7,41.1,3.7,61.4,0c108.6,53,184.3-64,138.5-139
	C447.2,154,326.6,66,226,87c-48.9-27.7-110.9-10.5-138.5,38.6C69.9,156.7,69.9,194.8,87.5,226L87.5,226z M327.6,184
	c15.9,23-15.9,41-27.9,27c-15.9-18-31.9-27-48.8-26c-43.8,3-42.8,40-5,45c51.8,8,98.6,22,94.7,68c-5,52-46.8,67-89.7,64
	c-51.8-4-67.8-22-77.7-41c-12-23,21.9-45,35.9-20c22.9,37,64.8,32,77.7,17c19.9-23-1-37-22.9-41c-23.9-5-48.8-10-67.8-20
	c-29.9-16-42.8-92,35.9-105C267.8,146,310.7,157,327.6,184L327.6,184z"/>
</svg>
