<?xml version="1.0" encoding="utf-8"?>
<!-- Generator: Adobe Illustrator 27.1.1, SVG Export Plug-In . SVG Version: 6.00 Build 0)  -->
<svg version="1.1" id="Layer_1" xmlns="http://www.w3.org/2000/svg" xmlns:xlink="http://www.w3.org/1999/xlink" x="0px" y="0px"
	 viewBox="0 0 250 250" style="enable-background:new 0 0 250 250;" xml:space="preserve">
<style type="text/css">
	.st0{fill:#0EA33C;}
	.st1{fill:#12B240;}
	.st2{fill:#0B7A2B;}
	.st3{fill:#021709;}
</style>
<g>
	<path class="st0" d="M226.4,80c0.1-3.4-0.8-6.8-2.5-9.7c-1.8-2.9-4.3-5.3-7.3-6.9c-27-14.9-54-29.8-81.1-44.7
		c-6.6-4-15-3.9-21.6,0.2C103.3,25,49.5,54.5,33.4,63.4C27.2,66.6,23.4,73,23.6,80v90c-0.1,3.3,0.7,6.6,2.3,9.5c1.8,3,4.4,5.4,7.4,7
		c16,8.9,69.8,38.4,80.6,44.5c6.6,4.1,14.9,4.2,21.6,0.2c27-14.9,54-29.8,81-44.7c3.1-1.6,5.7-4,7.4-7c1.6-2.9,2.4-6.2,2.3-9.5
		L226.4,80"/>
	<path class="st1" d="M222.9,180.9c0.4-0.5,0.8-0.9,1.1-1.4c1.6-2.9,2.4-6.2,2.3-9.5V80c0.1-3.4-0.8-6.8-2.5-9.7
		c-0.3-0.5-0.7-0.8-1-1.2L125,125L222.9,180.9z"/>
	<path class="st2" d="M222.9,180.9L125,125l-97.9,55.9c1.7,2.3,3.8,4.2,6.3,5.6c16,8.9,69.8,38.4,80.6,44.5
		c6.6,4.1,14.9,4.2,21.6,0.2c27-14.9,54-29.8,81-44.7C219.1,185.2,221.2,183.3,222.9,180.9z"/>
	<path class="st3" d="M153.1,140.8c-8.7,15.5-28.3,21-43.8,12.3s-21-28.3-12.3-43.8s28.3-21,43.8-12.3c5,2.8,9.2,6.9,12.1,11.9
		l28.2-16.2c-18-30.9-57.7-41.4-88.6-23.4C72.6,80.9,60.4,102.1,60.3,125c0,11.3,2.9,22.4,8.6,32.1c17.9,31,57.6,41.6,88.7,23.7
		c9.9-5.7,18.1-13.9,23.7-23.8L153.1,140.8"/>
	<path class="st3" d="M216,119.3v-9.7h-7.9v-7.8h-9.7v7.8h-11.8v-7.8h-9.7v7.8h-7.9v9.7h7.8v11.8h-7.8v9.6h7.8v7.8h9.7v-7.8h11.8
		v7.8h9.7v-7.8h7.8v-9.6h-7.8v-11.8H216z M198.5,131.1h-11.8v-11.8h11.8V131.1z"/>
</g>
</svg>
