<?xml version="1.0" encoding="utf-8"?>
<!-- Generator: Adobe Illustrator 27.1.1, SVG Export Plug-In . SVG Version: 6.00 Build 0)  -->
<svg version="1.1" id="Layer_1" xmlns="http://www.w3.org/2000/svg" xmlns:xlink="http://www.w3.org/1999/xlink" x="0px" y="0px"
	 viewBox="0 0 250 250" style="enable-background:new 0 0 250 250;" xml:space="preserve">
<style type="text/css">
	.st0{fill:#0B7A2B;}
	.st1{fill:#0EA33C;}
	.st2{fill:#021709;}
</style>
<g>
	<path class="st0" d="M44.7,213.7L26.9,13.6h196.2l-17.8,200.1l-80.5,22.6"/>
	<path class="st1" d="M125.2,219l64.8-17.8l15.2-171.4h-80"/>
	<path class="st2" d="M125.2,104.1H67.8l2.2,24.8h55.2V104.1z M125.2,54.5H63.4l2.2,24.4h59.6V54.5z M125.2,168.1l-53.9-14.4l3,26.1
		l50.9,13.9V168.1z"/>
	<path class="st2" d="M125.2,128.9h30l-3,31.8l-27,7.4v25.7l50-13.9l11.3-125.3h-61.3v24.4H160l-2.6,25.2h-32.2V128.9z"/>
</g>
</svg>
