<?xml version="1.0" encoding="utf-8"?>
<!-- Generator: Adobe Illustrator 27.1.1, SVG Export Plug-In . SVG Version: 6.00 Build 0)  -->
<svg version="1.1" id="Layer_1" xmlns="http://www.w3.org/2000/svg" xmlns:xlink="http://www.w3.org/1999/xlink" x="0px" y="0px"
	 viewBox="0 0 250 250" style="enable-background:new 0 0 250 250;" xml:space="preserve">
<style type="text/css">
	.st0{fill:#0EA33C;}
	.st1{fill:#0B7A2B;}
	.st2{fill:#021709;}
</style>
<g>
	<path class="st0" d="M44.7,213.7L26.9,13.6h196.2l-17.8,200.1l-80.5,22.6"/>
	<path class="st1" d="M125.2,219.6l64.8-17.8l15.2-171.4h-80"/>
	<path class="st2" d="M125.2,105H92.6l-2.2-25.2h34.8V55.4H63.4l6.5,74.4h55.2V105z M125.2,168.9l-27.8-7.4L95.6,142H71.3l3,38.7
		l50.9,13.9V168.9z"/>
	<path class="st2" d="M125.2,129.8h30l-3,31.8l-27,7.4v25.7l50-13.9l7-75.7h-57V129.8z M125.2,55.4v24.4h59.2l2.2-24.4H125.2z"/>
</g>
</svg>
