<?xml version="1.0" encoding="utf-8"?>
<!-- Generator: Adobe Illustrator 27.1.1, SVG Export Plug-In . SVG Version: 6.00 Build 0)  -->
<svg version="1.1" id="Layer_1" xmlns="http://www.w3.org/2000/svg" xmlns:xlink="http://www.w3.org/1999/xlink" x="0px" y="0px"
	 viewBox="0 0 250 250" style="enable-background:new 0 0 250 250;" xml:space="preserve">
<style type="text/css">
	.st0{fill:#0EA33C;}
</style>
<g>
	<path class="st0" d="M125,12.7c62,0,112.3,50.3,112.3,112.3S187,237.3,125,237.3S12.7,187,12.7,125S63,12.7,125,12.7z M155,111.3
		c-7.1-31.3-23.9-41.6-25.7-45.5c-2-2.8-4-7.7-4-7.7c0-0.1-0.1-0.2-0.1-0.4c-0.2,2.8-0.3,3.8-2.9,6.6c-4.1,3.2-24.9,20.7-26.6,56.2
		c-1.6,33.2,24,52.9,27.4,55.5l0.4,0.3v0c0,0.2,1.1,7.9,1.9,16.1h2.7c0.6-5.8,1.6-11.5,2.9-17.2l0.2-0.1c1.5-1.1,3-2.3,4.4-3.6
		l0.2-0.1c7.3-6.8,20.5-22.5,20.4-47.5C156.1,119.6,155.7,115.4,155,111.3L155,111.3z M125.1,157.3c0,0,0-46.5,1.5-46.5
		c1.2,0,2.7,60,2.7,60C127.2,170.5,125.1,160.9,125.1,157.3z"/>
</g>
</svg>
