<?xml version="1.0" encoding="utf-8"?>
<!-- Generator: Adobe Illustrator 27.1.1, SVG Export Plug-In . SVG Version: 6.00 Build 0)  -->
<svg version="1.1" id="Layer_1" xmlns="http://www.w3.org/2000/svg" xmlns:xlink="http://www.w3.org/1999/xlink" x="0px" y="0px"
	 viewBox="0 0 250 250" style="enable-background:new 0 0 250 250;" xml:space="preserve">
<style type="text/css">
	.st0{fill:#0EA33C;}
</style>
<g>
	<path class="st0" d="M206.5,43.9h-65.9c-3.1,0-5.7,2.5-5.7,5.7s2.5,5.7,5.7,5.7h65.9c6,0,10.9,4.9,10.9,10.9V198
		c0,6-4.9,10.9-10.9,10.9h-60c-5.5-4.4-10.9-8.9-16.2-13.6c-2.3-2.1-5.9-1.9-8,0.4s-1.9,5.9,0.4,8c2,1.8,4,3.5,5.9,5.1h-54
		c-6,0-10.9-4.9-10.9-10.9v-9.9c0-3.1-2.5-5.7-5.7-5.7s-5.7,2.5-5.7,5.7v9.9c0,12.3,10,22.2,22.2,22.2h131.9
		c12.3,0,22.2-10,22.2-22.2V66.1C228.7,53.8,218.8,43.9,206.5,43.9L206.5,43.9z"/>
	<path class="st0" d="M74.5,192.4c2.6,1.8,6.1,1.2,7.9-1.4c0.5-0.7,0.8-1.4,0.9-2.2c1.6-8.2,3.7-16.3,6.3-24.3
		c3.1,4.6,6.4,9.1,9.8,13.5c1.9,2.5,5.5,2.9,8,1s2.9-5.5,1-8l0,0c-5.6-7.2-10.8-14.8-15.5-22.6c-1.6-2.7-5.1-3.5-7.8-1.9
		c-1.1,0.7-1.9,1.7-2.4,2.9c-0.2,0.7-4.8,13.3-8.2,26.5c-6.4-9.4-13.6-28.6-1.5-61.5c0.8-2.1,0.2-4.5-1.4-6.1
		c-8.2-8.1-14.5-17.8-18.6-28.5c-2.2-6.6-5.6-12.7-10-18c-9.7-11.7-11.1-18.5-9.7-20.2c2.4-2.9,16.7,3.6,28.3,12.9
		c1.7,1.4,4.2,1.6,6.2,0.6c0.2-0.1,24.3-12,54.7,14.9c14.1,13.1,25.7,28.7,34.2,46.1c1.1,2.3,3.5,3.6,6.1,3.3
		c0.2,0,18.4-2.6,35.9,18.4c-26.1,4.5-27.3,8.8-28,11.4c-0.6,1.9,0,4,1.4,5.5c7.6,8,28.2,32.2,31.7,48.1c0.6,2.6,2.9,4.5,5.5,4.5
		c0.4,0,0.8,0,1.2-0.1c3.1-0.7,5-3.7,4.3-6.8c0,0,0,0,0,0c-3.7-16.7-20.8-38-29.5-47.9c8-2.1,16.1-3.7,24.3-4.8
		c3.1-0.4,5.3-3.3,4.8-6.4c-0.1-0.8-0.4-1.6-0.9-2.3c-17.9-27.2-39.2-30.7-48.2-30.8c-8.9-17.4-20.9-33.1-35.3-46.4
		c-29.4-26-54.8-21-63.9-17.9c-27.9-21.4-38.8-12.5-41.6-9.2c-6.3,7.7-3.1,19.4,9.7,34.7c3.5,4.2,6.2,9.1,8,14.3
		c4.2,11.3,10.6,21.7,19,30.5C42.3,169.3,73.1,191.5,74.5,192.4z"/>
	<path class="st0" d="M72.5,70.6c-1,1.1-1.6,2.5-1.6,4c0,1.5,0.6,2.9,1.6,4c2.2,2.2,5.8,2.2,8.1,0c1-1.1,1.6-2.5,1.6-4
		c0-1.5-0.6-2.9-1.6-4C78.3,68.5,74.7,68.5,72.5,70.6z"/>
	<path class="st0" d="M116.8,183c-0.2-0.3-0.4-0.6-0.7-0.8c-2.2-2.1-5.8-2.1-8,0c-0.3,0.2-0.5,0.5-0.7,0.8c-0.2,0.3-0.4,0.6-0.5,1
		c-0.1,0.3-0.2,0.7-0.3,1.1c-0.1,0.4-0.1,0.8-0.1,1.1c0,0.7,0.1,1.5,0.4,2.2c0.3,0.7,0.7,1.3,1.2,1.9c0.5,0.5,1.1,0.9,1.8,1.2
		c0.7,0.3,1.4,0.5,2.2,0.5c1.5,0,2.9-0.6,4-1.7c0.5-0.5,0.9-1.2,1.2-1.9c0.3-0.7,0.5-1.4,0.5-2.2c0-0.8-0.1-1.5-0.5-2.2
		C117.2,183.7,117,183.4,116.8,183L116.8,183z"/>
</g>
</svg>
