<?xml version="1.0" encoding="utf-8"?>
<!-- Generator: Adobe Illustrator 27.1.1, SVG Export Plug-In . SVG Version: 6.00 Build 0)  -->
<svg version="1.1" id="Layer_1" xmlns="http://www.w3.org/2000/svg" xmlns:xlink="http://www.w3.org/1999/xlink" x="0px" y="0px"
	 viewBox="0 0 250 250" style="enable-background:new 0 0 250 250;" xml:space="preserve">
<style type="text/css">
	.st0{fill:#0EA33C;}
</style>
<path class="st0" d="M125,233.7c-3,0-5.8-0.8-8.4-2.2L90,215.7c-4-2.2-2-3-0.8-3.4c5.4-1.8,6.4-2.2,12-5.4c0.6-0.4,1.4-0.2,2,0.2
	l20.4,12.2c0.8,0.4,1.8,0.4,2.4,0l79.7-46.1c0.8-0.4,1.2-1.2,1.2-2.2V78.9c0-1-0.4-1.8-1.2-2.2L126,30.8c-0.8-0.4-1.8-0.4-2.4,0
	L43.9,76.7c-0.8,0.4-1.2,1.4-1.2,2.2V171c0,0.8,0.4,1.8,1.2,2.2l21.8,12.6c11.8,6,19.2-1,19.2-8V86.9c0-1.2,1-2.4,2.4-2.4h10.2
	c1.2,0,2.4,1,2.4,2.4v90.9c0,15.8-8.6,25-23.6,25c-4.6,0-8.2,0-18.4-5l-21-12c-5.2-3-8.4-8.6-8.4-14.6V79.1c0-6,3.2-11.6,8.4-14.6
	l79.7-46.1c5-2.8,11.8-2.8,16.8,0l79.7,46.1c5.2,3,8.4,8.6,8.4,14.6v92.1c0,6-3.2,11.6-8.4,14.6l-79.7,46.1
	C130.8,233.1,127.8,233.7,125,233.7z M149.6,170.4c-35,0-42.1-16-42.1-29.6c0-1.2,1-2.4,2.4-2.4h10.4c1.2,0,2.2,0.8,2.2,2
	c1.6,10.6,6.2,15.8,27.4,15.8c16.8,0,24-3.8,24-12.8c0-5.2-2-9-28.2-11.6c-21.8-2.2-35.4-7-35.4-24.4c0-16.2,13.6-25.8,36.4-25.8
	c25.6,0,38.2,8.8,39.7,28c0,0.6-0.2,1.2-0.6,1.8c-0.4,0.4-1,0.8-1.6,0.8h-10.4c-1,0-2-0.8-2.2-1.8c-2.4-11-8.6-14.6-25-14.6
	c-18.4,0-20.6,6.4-20.6,11.2c0,5.8,2.6,7.6,27.4,10.8c24.6,3.2,36.2,7.8,36.2,25C189.3,160.4,174.9,170.4,149.6,170.4L149.6,170.4z"
	/>
</svg>
