<?xml version="1.0" encoding="utf-8"?>
<!-- Generator: Adobe Illustrator 27.1.1, SVG Export Plug-In . SVG Version: 6.00 Build 0)  -->
<svg version="1.1" id="Layer_1" xmlns="http://www.w3.org/2000/svg" xmlns:xlink="http://www.w3.org/1999/xlink" x="0px" y="0px"
	 viewBox="0 0 250 250" style="enable-background:new 0 0 250 250;" xml:space="preserve">
<style type="text/css">
	.st0{fill:#0EA33C;}
</style>
<path class="st0" d="M45.2,25.8h159.6c10.7,0,19.4,8.7,19.4,19.4v159.6c0,10.7-8.7,19.4-19.4,19.4H45.2c-10.7,0-19.4-8.7-19.4-19.4
	V45.2C25.8,34.5,34.5,25.8,45.2,25.8z M148.6,183.7v19.4c3.2,1.6,6.9,2.8,11.2,3.6c4.3,0.8,8.8,1.2,13.6,1.2c4.6,0,9.1-0.4,13.2-1.3
	c4.2-0.9,7.9-2.4,11-4.4c3.2-2,5.6-4.7,7.5-8c1.8-3.3,2.8-7.4,2.8-12.2c0-3.5-0.5-6.6-1.6-9.2s-2.6-5-4.5-7.1
	c-2-2.1-4.4-3.9-7.1-5.5c-2.8-1.6-5.9-3.2-9.4-4.6c-2.5-1.1-4.8-2.1-6.9-3.1c-2-1-3.7-2-5.2-3c-1.4-1-2.5-2.1-3.3-3.3
	c-0.8-1.2-1.2-2.5-1.2-3.9c0-1.3,0.3-2.5,1-3.6c0.7-1.1,1.7-2,2.9-2.8c1.3-0.8,2.8-1.4,4.6-1.8c1.8-0.4,3.8-0.6,6.1-0.6
	c1.6,0,3.3,0.1,5.1,0.4c1.8,0.2,3.6,0.6,5.4,1.1c1.8,0.5,3.6,1.1,5.3,1.9c1.7,0.8,3.3,1.7,4.8,2.7v-18.1c-3-1.1-6.2-2-9.7-2.5
	s-7.5-0.8-12-0.8c-4.6,0-9,0.5-13.1,1.5c-4.1,1-7.7,2.5-10.9,4.6c-3.1,2.1-5.6,4.8-7.4,8c-1.8,3.3-2.7,7.1-2.7,11.7
	c0,5.8,1.7,10.7,5,14.8c3.3,4.1,8.4,7.5,15.2,10.4c2.7,1.1,5.2,2.2,7.5,3.2s4.3,2.1,6,3.3c1.7,1.1,3,2.4,4,3.7
	c1,1.3,1.5,2.8,1.5,4.5c0,1.3-0.3,2.4-0.9,3.5c-0.6,1.1-1.5,2-2.8,2.8s-2.8,1.4-4.6,1.8c-1.8,0.4-4,0.7-6.5,0.7
	c-4.2,0-8.4-0.7-12.5-2.2C155.9,188.8,152.1,186.6,148.6,183.7L148.6,183.7z M116,135.9h24.9V120H71.5v15.9h24.8v70.9H116V135.9z"/>
</svg>
