<?xml version="1.0" encoding="utf-8"?>
<!-- Generator: Adobe Illustrator 27.1.1, SVG Export Plug-In . SVG Version: 6.00 Build 0)  -->
<svg version="1.1" id="Layer_1" xmlns="http://www.w3.org/2000/svg" xmlns:xlink="http://www.w3.org/1999/xlink" x="0px" y="0px"
	 viewBox="0 0 250 250" style="enable-background:new 0 0 250 250;" xml:space="preserve">
<style type="text/css">
	.st0{fill:#0EA33C;}
</style>
<g>
	<path class="st0" d="M125,23.7C69.2,23.7,23.7,69.1,23.7,125c0,55.9,45.4,101.3,101.3,101.3c55.8,0,101.3-45.4,101.3-101.3
		C226.3,69.2,180.8,23.7,125,23.7z M33.9,125c0-13.2,2.8-25.7,7.9-37.1l43.4,119C54.9,192.2,33.9,161,33.9,125z M125,216.1
		c-8.9,0-17.6-1.3-25.7-3.7l27.3-79.4l28,76.7c0.2,0.5,0.4,0.9,0.6,1.3C145.8,214.2,135.6,216.1,125,216.1z M137.6,82.3
		C143,82,148,81.4,148,81.4c4.9-0.6,4.3-7.8-0.6-7.5c0,0-14.7,1.2-24.3,1.2c-8.9,0-24-1.2-24-1.2c-4.9-0.3-5.5,7.2-0.6,7.5
		c0,0,4.6,0.6,9.5,0.9l14.2,38.9l-19.9,59.8L69.2,82.3c5.5-0.3,10.4-0.9,10.4-0.9c4.9-0.6,4.3-7.8-0.6-7.5c0,0-14.7,1.2-24.3,1.2
		c-1.7,0-3.7,0-5.9-0.1c16.3-24.7,44.3-41,76.1-41c23.7,0,45.3,9.1,61.5,23.9c-0.4,0-0.8-0.1-1.2-0.1c-8.9,0-15.3,7.8-15.3,16.2
		c0,7.5,4.3,13.9,8.9,21.4c3.5,6.1,7.5,13.9,7.5,25.1c0,7.8-3,16.8-6.9,29.4l-9.1,30.4L137.6,82.3z M170.8,203.7l27.8-80.4
		c5.2-13,6.9-23.4,6.9-32.6c0-3.3-0.2-6.5-0.6-9.4c7.1,13,11.2,27.9,11.2,43.7C216.1,158.6,197.9,187.9,170.8,203.7z"/>
</g>
</svg>
